<?xml version="1.0" encoding="UTF-8"?>
<svg id="Layer_1" xmlns="http://www.w3.org/2000/svg" viewBox="0 0 1928.73 1928.73">
  <defs>
    <style>
      .cls-1 {
        fill: #292d45;
      }

      .cls-2, .cls-3 {
        fill: #231f20;
      }

      .cls-4 {
        fill: #fbf4a2;
        stroke: #659ad2;
      }

      .cls-4, .cls-5, .cls-3 {
        stroke-miterlimit: 10;
        stroke-width: 20px;
      }

      .cls-6 {
        fill: #fff;
      }

      .cls-5 {
        fill: #262767;
        stroke: #121230;
      }

      .cls-3 {
        stroke: #ffc517;
      }
    </style>
  </defs>
  <circle class="cls-1" cx="964.36" cy="964.36" r="345.41"/>
  <path class="cls-2" d="M1464.36,1089.37v-250.01h-80.63c-8.65-29.09-20.24-56.92-34.44-83.13l57.03-57.04-176.78-176.78h-.01s0,0,0,0l-57.02,57.02c-26.22-14.2-54.04-25.8-83.14-34.44v-80.63h-250.02v80.63c-29.1,8.65-56.92,20.25-83.14,34.44l-57.02-57.02h0s-.01,0-.01,0l-176.78,176.78,57.03,57.04c-14.2,26.22-25.79,54.04-34.44,83.13h-80.63v250.01h80.63c8.65,29.09,20.24,56.92,34.44,83.13l-57.03,57.04,176.78,176.78h.01s0,0,0,0l57.02-57.02c26.22,14.2,54.04,25.8,83.14,34.44v80.63h250.02v-80.63c29.1-8.65,56.92-20.25,83.14-34.44l57.02,57.02h0s.01,0,.01,0l176.78-176.78-57.03-57.04c14.2-26.22,25.79-54.04,34.44-83.13h80.63ZM964.36,1309.78c-190.77,0-345.41-154.65-345.41-345.41s154.65-345.41,345.41-345.41,345.41,154.65,345.41,345.41-154.65,345.41-345.41,345.41Z"/>
  <path class="cls-6" d="M960.81,1125.95c-25.75,0-50.38-3.18-73.91-9.54s-42.55-14.43-57.04-24.19l28.85-65.26c13.91,8.88,29.96,16.2,48.17,21.97s36.33,8.66,54.38,8.66c12.43,0,22.27-1.03,29.52-3.11,7.25-2.07,12.58-5.03,15.98-8.88,3.4-3.84,5.11-8.43,5.11-13.76,0-6.8-3.26-12.21-9.77-16.2-6.51-4-15.02-7.39-25.53-10.21-10.51-2.81-21.91-5.47-34.18-7.99-12.28-2.51-24.79-5.84-37.51-9.99-12.73-4.14-24.27-9.61-34.63-16.42-10.36-6.8-18.72-15.68-25.08-26.64-6.37-10.95-9.54-24.71-9.54-41.28,0-18.35,5.03-35.07,15.09-50.16,10.06-15.09,25.3-27.22,45.72-36.4,20.42-9.17,45.87-13.76,76.35-13.76,20.42,0,40.47,2.3,60.15,6.88,19.68,4.59,37.07,11.47,52.16,20.64l-26.63,64.81c-14.8-8.28-29.45-14.35-43.95-18.2-14.5-3.84-28.56-5.77-42.17-5.77-12.14,0-21.91,1.33-29.3,4-7.4,2.66-12.73,6.07-15.98,10.21-3.26,4.15-4.88,8.59-4.88,13.32,0,7.1,3.25,12.65,9.77,16.65,6.51,4,14.94,7.26,25.3,9.77,10.36,2.52,21.82,5.11,34.4,7.77,12.58,2.66,25.08,5.99,37.51,9.99s23.9,9.32,34.4,15.98c10.5,6.66,19.01,15.39,25.52,26.19,6.51,10.81,9.77,24.35,9.77,40.62,0,18.05-5.11,34.7-15.32,49.94-10.21,15.25-25.52,27.45-45.94,36.62-20.42,9.17-46.02,13.76-76.8,13.76Z"/>
  <g id="_x3C_Radial_Repeat_x3E_">
    <path class="cls-3" d="M254.58,813.1L21.27,943.85c-14.8,8.3-15.07,29.5-.49,38.17l229.89,136.68c14.58,8.67,33.08-1.7,33.3-18.66l3.43-267.43c.22-16.97-18.01-27.81-32.81-19.51ZM241.66,889.5l-1.95,152.5c-.09,7.4-8.16,11.92-14.53,8.14l-131.09-77.94c-6.36-3.78-6.24-13.03.21-16.65l133.04-74.56c6.46-3.62,14.41,1.11,14.31,8.51Z"/>
  </g>
  <path class="cls-5" d="M1438.58,308.08c-7.66,39.33-17.72,72.21-118.8,144.27-101.09-72.06-111.14-104.94-118.8-144.27-7.66-39.33,24.32-77.3,22.95-98.06-1.37-20.76-20.6-44.85-20.6-44.85,25.83-6.61,25.19-26.23,25.19-26.23,60.58,28.89,91.25-9.77,91.25-9.77,0,0,30.67,38.67,91.25,9.77,0,0-.64,19.62,25.19,26.23,0,0-19.23,24.09-20.6,44.85-1.37,20.76,30.62,58.73,22.95,98.06Z"/>
  <g>
    <g id="_x3C_Radial_Repeat_x3E_-2" data-name="_x3C_Radial_Repeat_x3E_">
      <path class="cls-2" d="M1437.53,499.69l248.07-158.02s164.88,764.46-179.58,1112.29c0,0,139.29-492.9-68.49-954.27Z"/>
    </g>
    <g id="_x3C_Radial_Repeat_x3E_-3" data-name="_x3C_Radial_Repeat_x3E_">
      <path class="cls-2" d="M1130.2,1606.47l12.81,293.85s-744.48-239.44-873.48-711.67c0,0,357.22,367.08,860.66,417.82Z"/>
    </g>
    <g id="_x3C_Radial_Repeat_x3E_-4" data-name="_x3C_Radial_Repeat_x3E_">
      <path class="cls-2" d="M325.36,786.93l-260.88-135.83S644.08,126.08,1117.53,250.48c0,0-496.51,125.82-792.17,536.45Z"/>
    </g>
  </g>
  <path class="cls-4" d="M1275.79,1516.97l.22-.12c4.2-2.42,9.47-1.88,13.11,1.32,21.63,18.97,27.03,18.94,37.87-4.88,3.96-8.71,13.22-14.02,22.66-12.48,7.18,1.17,12.17,6,12.08,20.34-.06,9.76,19.72,13.63,27.48,5.42,7.49-7.93,12.1-16.73,25.98-8.39,12.58,7.57,8.41,15.17,5.6,25-3.46,12.1,7.9,23.56,20.29,21.66q22.04-3.38,28.24,12.81c-5.78,14.4-14.1,25.44-12.78,35.18.93,6.87,14.94,11.97,26.92,20.61v15.82c-11.25,8.56-24.8,13.76-27.14,22.1-2.29,8.18,6.83,19.56,13.16,34.9-3.1,7.12-5.09,23.71-27.49,12.58-4.07-2.02-13.79,1.93-17.48,6.13-3.42,3.9-1.95,11.89-3.22,17.95-1.45,6.96-1.57,15.57-5.81,20.27-7.26,8.05-15.28,6.76-23.07-2.71-3.9-4.74-13.93-8.98-18.83-7.14-5.72,2.14-8.34,11.65-13.3,17.05-4.57,4.97-10.3,11.85-15.82,12.13-5.46.28-14.33-5.42-16.42-10.62-9.75-24.22-16.59-25.46-36.61-9.98-1.54,1.19-3.53,1.82-5.81,2.08-12.31,1.42-22.52-9.6-20.8-21.87,2.49-17.82-2.22-23.94-17.24-22.74-13.08,1.05-25.67-5.14-32.47-16.36l-.39-.65c27.12-33.58,25.66-40.01-11.33-47.61-2.06-13.98-9.78-29.88,16.35-30.44,3.96-.08,9.95-6.95,11.06-11.62,1.3-5.49.25-13.73-3.25-17.69-6.54-7.38-15.33-11.54-8.25-24.3,6.63-11.95,13.55-10.64,24.54-7.26,5.51,1.69,14.59-2.62,19.62-7.01,3.07-2.69,2.16-10.72,1.81-16.28-.02-.31-.05-.61-.09-.92-1.14-8.95,2.82-17.77,10.65-22.28ZM1343.06,1579.13c-36.61.2-63.96,27.36-63.43,63,.52,34.95,29.6,62.62,65.26,62.08,35.26-.53,61.36-27.2,61.47-62.8.11-36.68-26.11-62.49-63.3-62.29Z"/>
</svg>