<?xml version="1.0" encoding="UTF-8"?>
<svg id="Layer_1" data-name="Layer 1" xmlns="http://www.w3.org/2000/svg" viewBox="0 0 1922.37 1084">
  <defs>
    <style>
      .cls-1, .cls-2 {
        fill: #fff;
      }

      .cls-3 {
        fill: none;
      }

      .cls-4 {
        stroke-width: 10px;
      }

      .cls-4, .cls-5, .cls-6, .cls-7, .cls-8, .cls-9, .cls-10, .cls-11, .cls-12, .cls-2, .cls-13 {
        stroke-miterlimit: 10;
      }

      .cls-4, .cls-6, .cls-9, .cls-11, .cls-2 {
        stroke: #fff;
      }

      .cls-4, .cls-9 {
        fill: #262767;
      }

      .cls-5 {
        stroke: #fbf4a2;
      }

      .cls-5, .cls-8 {
        stroke-width: 2px;
      }

      .cls-14, .cls-7, .cls-11 {
        fill: #231f20;
      }

      .cls-6 {
        fill: #121230;
      }

      .cls-6, .cls-7, .cls-9, .cls-11, .cls-12, .cls-2 {
        stroke-width: 8px;
      }

      .cls-7 {
        stroke: #ffc517;
      }

      .cls-15 {
        fill: #659ad2;
        opacity: .2;
      }

      .cls-8, .cls-10, .cls-13 {
        stroke: #231f20;
      }

      .cls-8, .cls-12 {
        fill: #fbf4a2;
      }

      .cls-16 {
        fill: #ffc517;
      }

      .cls-17 {
        fill: #121230;
      }

      .cls-12 {
        stroke: #659ad2;
      }

      .cls-13 {
        fill: #ffc517;
      }
    </style>
  </defs>
  <rect class="cls-17" y="2" width="1920" height="1080"/>
  <polygon class="cls-15" points="0 1084 0 2 551 2 0 1084"/>
  <polyline class="cls-15" points="1369 1082 1920 0 1920 1082"/>
  <g>
    <rect class="cls-3" x="447" y="434.54" width="1472.72" height="109.46"/>
    <path class="cls-1" d="M936.23,510.34c-5.87,0-11.53-.67-17-2-5.47-1.33-9.97-3.07-13.5-5.2l7.6-17.2c3.33,1.93,7.05,3.48,11.15,4.65,4.1,1.17,8.08,1.75,11.95,1.75,2.27,0,4.05-.15,5.35-.45,1.3-.3,2.25-.73,2.85-1.3.6-.57.9-1.25.9-2.05,0-1.27-.7-2.27-2.1-3-1.4-.73-3.25-1.35-5.55-1.85-2.3-.5-4.82-1.03-7.55-1.6-2.73-.57-5.48-1.32-8.25-2.25-2.77-.93-5.3-2.17-7.6-3.7-2.3-1.53-4.15-3.55-5.55-6.05s-2.1-5.62-2.1-9.35c0-4.33,1.22-8.28,3.65-11.85,2.43-3.57,6.07-6.42,10.9-8.55,4.83-2.13,10.85-3.2,18.05-3.2,4.73,0,9.4.5,14,1.5s8.73,2.53,12.4,4.6l-7.1,17.1c-3.47-1.73-6.82-3.03-10.05-3.9-3.23-.87-6.38-1.3-9.45-1.3-2.27,0-4.07.2-5.4.6-1.33.4-2.28.93-2.85,1.6-.57.67-.85,1.4-.85,2.2,0,1.2.7,2.15,2.1,2.85,1.4.7,3.25,1.28,5.55,1.75,2.3.47,4.83.97,7.6,1.5,2.77.53,5.52,1.27,8.25,2.2,2.73.93,5.25,2.17,7.55,3.7,2.3,1.53,4.15,3.53,5.55,6,1.4,2.47,2.1,5.53,2.1,9.2,0,4.27-1.22,8.18-3.65,11.75-2.43,3.57-6.05,6.43-10.85,8.6-4.8,2.17-10.83,3.25-18.1,3.25Z"/>
    <path class="cls-1" d="M999.43,508.74h-23.6v-70h23.6v70ZM1022.83,482.94h-25v-19.4h25v19.4ZM1021.23,438.74h23.6v70h-23.6v-70Z"/>
    <path class="cls-1" d="M1079.43,490.94h35v17.8h-58.2v-70h56.9v17.8h-33.7v34.4ZM1077.83,464.74h31.2v17h-31.2v-17Z"/>
    <path class="cls-1" d="M1123.53,508.74v-70h23.6v51.7h31.6v18.3h-55.2Z"/>
    <path class="cls-1" d="M1185.23,508.74v-70h37.4c9.67,0,16.8,1.72,21.4,5.15,4.6,3.43,6.9,7.82,6.9,13.15,0,3.53-.98,6.68-2.95,9.45-1.97,2.77-4.82,4.95-8.55,6.55-3.73,1.6-8.33,2.4-13.8,2.4l2-5.4c5.47,0,10.18.77,14.15,2.3,3.97,1.53,7.03,3.75,9.2,6.65,2.17,2.9,3.25,6.38,3.25,10.45,0,6.07-2.52,10.8-7.55,14.2-5.04,3.4-12.38,5.1-22.05,5.1h-39.4ZM1208.43,492.24h14.2c2.6,0,4.55-.47,5.85-1.4,1.3-.93,1.95-2.3,1.95-4.1s-.65-3.17-1.95-4.1c-1.3-.93-3.25-1.4-5.85-1.4h-15.8v-15.6h12.6c2.67,0,4.62-.45,5.85-1.35,1.23-.9,1.85-2.18,1.85-3.85s-.62-3.03-1.85-3.9c-1.23-.87-3.18-1.3-5.85-1.3h-11v37Z"/>
    <path class="cls-1" d="M1280.53,508.74v-30.7l5.4,14.1-31.8-53.4h24.9l21.5,36.5h-14.5l21.7-36.5h22.8l-31.6,53.4,5.2-14.1v30.7h-23.6Z"/>
    <path class="cls-1" d="M1363.52,508.74v-70h33.7c6.53,0,12.18,1.07,16.95,3.2,4.77,2.13,8.45,5.18,11.05,9.15,2.6,3.97,3.9,8.65,3.9,14.05s-1.3,10.05-3.9,13.95c-2.6,3.9-6.29,6.88-11.05,8.95-4.77,2.07-10.42,3.1-16.95,3.1h-20.6l10.5-9.7v27.3h-23.6ZM1387.12,484.04l-10.5-10.7h19.1c3.27,0,5.68-.73,7.25-2.2,1.57-1.47,2.35-3.47,2.35-6s-.78-4.53-2.35-6c-1.57-1.47-3.98-2.2-7.25-2.2h-19.1l10.5-10.7v37.8ZM1405.42,508.74l-17.2-25.5h25l17.4,25.5h-25.2Z"/>
    <path class="cls-1" d="M1474.72,510.34c-5.67,0-10.92-.9-15.75-2.7-4.83-1.8-9.02-4.35-12.55-7.65-3.53-3.3-6.28-7.18-8.25-11.65-1.97-4.47-2.95-9.33-2.95-14.6s.98-10.22,2.95-14.65c1.97-4.43,4.72-8.3,8.25-11.6,3.53-3.3,7.72-5.85,12.55-7.65,4.83-1.8,10.08-2.7,15.75-2.7s11,.9,15.8,2.7c4.8,1.8,8.97,4.35,12.5,7.65,3.53,3.3,6.28,7.17,8.25,11.6,1.97,4.43,2.95,9.32,2.95,14.65s-.98,10.13-2.95,14.6c-1.97,4.47-4.72,8.35-8.25,11.65-3.53,3.3-7.7,5.85-12.5,7.65-4.8,1.8-10.07,2.7-15.8,2.7ZM1474.72,491.24c2.2,0,4.25-.4,6.15-1.2,1.9-.8,3.57-1.95,5-3.45,1.43-1.5,2.55-3.33,3.35-5.5.8-2.17,1.2-4.62,1.2-7.35s-.4-5.18-1.2-7.35c-.8-2.17-1.92-4-3.35-5.5-1.43-1.5-3.1-2.65-5-3.45-1.9-.8-3.95-1.2-6.15-1.2s-4.25.4-6.15,1.2c-1.9.8-3.57,1.95-5,3.45-1.43,1.5-2.55,3.33-3.35,5.5-.8,2.17-1.2,4.62-1.2,7.35s.4,5.18,1.2,7.35c.8,2.17,1.92,4,3.35,5.5,1.43,1.5,3.1,2.65,5,3.45,1.9.8,3.95,1.2,6.15,1.2Z"/>
    <path class="cls-1" d="M1522.82,508.74v-70h37.4c9.67,0,16.8,1.72,21.4,5.15,4.6,3.43,6.9,7.82,6.9,13.15,0,3.53-.98,6.68-2.95,9.45-1.97,2.77-4.82,4.95-8.55,6.55-3.73,1.6-8.33,2.4-13.8,2.4l2-5.4c5.47,0,10.18.77,14.15,2.3,3.97,1.53,7.03,3.75,9.2,6.65,2.17,2.9,3.25,6.38,3.25,10.45,0,6.07-2.52,10.8-7.55,14.2-5.04,3.4-12.38,5.1-22.05,5.1h-39.4ZM1546.02,492.24h14.2c2.6,0,4.55-.47,5.85-1.4,1.3-.93,1.95-2.3,1.95-4.1s-.65-3.17-1.95-4.1c-1.3-.93-3.25-1.4-5.85-1.4h-15.8v-15.6h12.6c2.67,0,4.62-.45,5.85-1.35,1.23-.9,1.85-2.18,1.85-3.85s-.62-3.03-1.85-3.9c-1.23-.87-3.18-1.3-5.85-1.3h-11v37Z"/>
    <path class="cls-1" d="M1636.82,510.34c-5.67,0-10.92-.9-15.75-2.7-4.83-1.8-9.02-4.35-12.55-7.65-3.53-3.3-6.28-7.18-8.25-11.65-1.97-4.47-2.95-9.33-2.95-14.6s.98-10.22,2.95-14.65c1.97-4.43,4.72-8.3,8.25-11.6,3.53-3.3,7.72-5.85,12.55-7.65,4.83-1.8,10.08-2.7,15.75-2.7s11,.9,15.8,2.7c4.8,1.8,8.97,4.35,12.5,7.65,3.53,3.3,6.28,7.17,8.25,11.6,1.97,4.43,2.95,9.32,2.95,14.65s-.98,10.13-2.95,14.6c-1.97,4.47-4.72,8.35-8.25,11.65-3.53,3.3-7.7,5.85-12.5,7.65-4.8,1.8-10.07,2.7-15.8,2.7ZM1636.82,491.24c2.2,0,4.25-.4,6.15-1.2,1.9-.8,3.57-1.95,5-3.45,1.43-1.5,2.55-3.33,3.35-5.5.8-2.17,1.2-4.62,1.2-7.35s-.4-5.18-1.2-7.35c-.8-2.17-1.92-4-3.35-5.5-1.43-1.5-3.1-2.65-5-3.45-1.9-.8-3.95-1.2-6.15-1.2s-4.25.4-6.15,1.2c-1.9.8-3.57,1.95-5,3.45-1.43,1.5-2.55,3.33-3.35,5.5-.8,2.17-1.2,4.62-1.2,7.35s.4,5.18,1.2,7.35c.8,2.17,1.92,4,3.35,5.5,1.43,1.5,3.1,2.65,5,3.45,1.9.8,3.95,1.2,6.15,1.2Z"/>
    <path class="cls-1" d="M1700.12,508.74v-51.7h-20.5v-18.3h64.6v18.3h-20.5v51.7h-23.6Z"/>
    <path class="cls-1" d="M1750.32,508.74v-70h23.6v70h-23.6Z"/>
    <path class="cls-1" d="M1821.52,510.34c-5.6,0-10.79-.88-15.55-2.65-4.77-1.77-8.9-4.28-12.4-7.55-3.5-3.27-6.22-7.13-8.15-11.6-1.93-4.47-2.9-9.4-2.9-14.8s.96-10.33,2.9-14.8c1.93-4.47,4.65-8.33,8.15-11.6,3.5-3.27,7.63-5.78,12.4-7.55,4.77-1.77,9.95-2.65,15.55-2.65,6.87,0,12.95,1.2,18.25,3.6,5.3,2.4,9.68,5.87,13.15,10.4l-14.9,13.3c-2.07-2.6-4.35-4.62-6.85-6.05-2.5-1.43-5.32-2.15-8.45-2.15-2.47,0-4.7.4-6.7,1.2-2,.8-3.72,1.97-5.15,3.5-1.43,1.53-2.55,3.38-3.35,5.55-.8,2.17-1.2,4.58-1.2,7.25s.4,5.08,1.2,7.25c.8,2.17,1.92,4.02,3.35,5.55,1.43,1.53,3.15,2.7,5.15,3.5,2,.8,4.23,1.2,6.7,1.2,3.13,0,5.95-.72,8.45-2.15,2.5-1.43,4.78-3.45,6.85-6.05l14.9,13.3c-3.47,4.47-7.85,7.92-13.15,10.35-5.3,2.43-11.38,3.65-18.25,3.65Z"/>
    <path class="cls-1" d="M1885.82,510.34c-5.87,0-11.53-.67-17-2-5.47-1.33-9.97-3.07-13.5-5.2l7.6-17.2c3.33,1.93,7.05,3.48,11.15,4.65,4.1,1.17,8.08,1.75,11.95,1.75,2.27,0,4.05-.15,5.35-.45,1.3-.3,2.25-.73,2.85-1.3.6-.57.9-1.25.9-2.05,0-1.27-.7-2.27-2.1-3-1.4-.73-3.25-1.35-5.55-1.85s-4.82-1.03-7.55-1.6c-2.73-.57-5.48-1.32-8.25-2.25-2.77-.93-5.3-2.17-7.6-3.7-2.3-1.53-4.15-3.55-5.55-6.05s-2.1-5.62-2.1-9.35c0-4.33,1.21-8.28,3.65-11.85,2.43-3.57,6.07-6.42,10.9-8.55,4.83-2.13,10.85-3.2,18.05-3.2,4.73,0,9.4.5,14,1.5s8.73,2.53,12.4,4.6l-7.1,17.1c-3.47-1.73-6.82-3.03-10.05-3.9-3.23-.87-6.38-1.3-9.45-1.3-2.27,0-4.07.2-5.4.6-1.33.4-2.29.93-2.85,1.6-.57.67-.85,1.4-.85,2.2,0,1.2.7,2.15,2.1,2.85s3.25,1.28,5.55,1.75c2.3.47,4.83.97,7.6,1.5,2.77.53,5.52,1.27,8.25,2.2,2.73.93,5.25,2.17,7.55,3.7,2.3,1.53,4.15,3.53,5.55,6,1.4,2.47,2.1,5.53,2.1,9.2,0,4.27-1.22,8.18-3.65,11.75-2.43,3.57-6.05,6.43-10.85,8.6-4.8,2.17-10.83,3.25-18.1,3.25Z"/>
  </g>
  <g>
    <rect class="cls-3" x="58.87" y="503.7" width="1862.13" height="218.3"/>
    <path class="cls-1" d="M75.28,717.4v-201.6h97.06c18.81,0,35.09,3.07,48.82,9.22,13.73,6.15,24.34,14.93,31.82,26.35,7.49,11.43,11.23,24.91,11.23,40.46s-3.74,28.94-11.23,40.18c-7.49,11.23-18.1,19.83-31.82,25.78-13.73,5.95-30,8.93-48.82,8.93h-59.33l30.24-27.94v78.62h-67.97ZM143.25,646.26l-30.24-30.82h55.01c9.41,0,16.37-2.11,20.88-6.34,4.51-4.22,6.77-9.98,6.77-17.28s-2.26-13.05-6.77-17.28c-4.51-4.22-11.48-6.34-20.88-6.34h-55.01l30.24-30.82v108.86ZM195.95,717.4l-49.54-73.44h72l50.11,73.44h-72.58Z"/>
    <path class="cls-1" d="M395.54,722.01c-16.32,0-31.44-2.59-45.36-7.78-13.92-5.18-25.97-12.53-36.14-22.03-10.18-9.5-18.1-20.69-23.76-33.55-5.67-12.86-8.5-26.88-8.5-42.05s2.83-29.42,8.5-42.19c5.66-12.77,13.58-23.9,23.76-33.41,10.17-9.5,22.22-16.85,36.14-22.03,13.92-5.18,29.04-7.78,45.36-7.78s31.68,2.59,45.5,7.78c13.82,5.18,25.82,12.53,36,22.03,10.17,9.5,18.09,20.64,23.76,33.41,5.66,12.77,8.5,26.83,8.5,42.19s-2.83,29.19-8.5,42.05c-5.67,12.87-13.59,24.05-23.76,33.55-10.18,9.5-22.18,16.85-36,22.03-13.82,5.18-28.99,7.78-45.5,7.78ZM395.54,667c6.34,0,12.24-1.15,17.71-3.46,5.47-2.3,10.27-5.62,14.4-9.94,4.13-4.32,7.34-9.6,9.65-15.84,2.3-6.24,3.46-13.29,3.46-21.17s-1.15-14.93-3.46-21.17c-2.3-6.24-5.52-11.52-9.65-15.84-4.13-4.32-8.93-7.63-14.4-9.94-5.47-2.3-11.38-3.46-17.71-3.46s-12.24,1.15-17.71,3.46c-5.47,2.3-10.27,5.62-14.4,9.94-4.13,4.32-7.34,9.6-9.65,15.84-2.3,6.24-3.46,13.3-3.46,21.17s1.15,14.93,3.46,21.17c2.3,6.24,5.52,11.52,9.65,15.84,4.13,4.32,8.93,7.63,14.4,9.94,5.47,2.3,11.38,3.46,17.71,3.46Z"/>
    <path class="cls-1" d="M585.9,717.4v-88.42l15.55,40.61-91.58-153.79h71.71l61.92,105.12h-41.76l62.5-105.12h65.66l-91.01,153.79,14.98-40.61v88.42h-67.97Z"/>
    <path class="cls-1" d="M716.65,717.4l88.13-201.6h66.82l88.13,201.6h-70.27l-65.09-169.34h26.5l-65.09,169.34h-69.12ZM769.07,682.26l17.28-48.96h92.74l17.28,48.96h-127.3Z"/>
    <path class="cls-1" d="M970.67,717.4v-201.6h67.97v148.9h91.01v52.7h-158.98Z"/>
    <path class="cls-1" d="M1340.45,722.01c-16.32,0-31.44-2.59-45.36-7.78-13.92-5.18-25.97-12.53-36.14-22.03-10.18-9.5-18.1-20.69-23.76-33.55-5.67-12.86-8.5-26.88-8.5-42.05s2.83-29.42,8.5-42.19c5.66-12.77,13.58-23.9,23.76-33.41,10.17-9.5,22.22-16.85,36.14-22.03,13.92-5.18,29.04-7.78,45.36-7.78s31.68,2.59,45.5,7.78c13.82,5.18,25.82,12.53,36,22.03,10.17,9.5,18.09,20.64,23.76,33.41,5.66,12.77,8.5,26.83,8.5,42.19s-2.83,29.19-8.5,42.05c-5.67,12.87-13.59,24.05-23.76,33.55-10.18,9.5-22.18,16.85-36,22.03-13.82,5.18-28.99,7.78-45.5,7.78ZM1340.45,667c6.34,0,12.24-1.15,17.71-3.46,5.47-2.3,10.27-5.62,14.4-9.94,4.13-4.32,7.34-9.6,9.65-15.84,2.3-6.24,3.46-13.29,3.46-21.17s-1.15-14.93-3.46-21.17c-2.3-6.24-5.52-11.52-9.65-15.84-4.13-4.32-8.93-7.63-14.4-9.94-5.47-2.3-11.38-3.46-17.71-3.46s-12.24,1.15-17.71,3.46c-5.47,2.3-10.27,5.62-14.4,9.94-4.13,4.32-7.34,9.6-9.65,15.84-2.3,6.24-3.46,13.3-3.46,21.17s1.15,14.93,3.46,21.17c2.3,6.24,5.52,11.52,9.65,15.84,4.13,4.32,8.93,7.63,14.4,9.94,5.47,2.3,11.38,3.46,17.71,3.46Z"/>
    <path class="cls-1" d="M1457.09,717.4l88.13-201.6h66.82l88.13,201.6h-70.27l-65.09-169.34h26.5l-65.09,169.34h-69.12ZM1509.51,682.26l17.28-48.96h92.74l17.28,48.96h-127.3Z"/>
    <path class="cls-1" d="M1711.11,717.4v-201.6h66.82v201.6h-66.82ZM1771.87,674.2l-3.74-74.59,76.03-83.81h74.02l-85.25,93.89-37.73,38.59-23.33,25.92ZM1843.59,717.4l-59.33-78.34,44.06-46.66,93.89,124.99h-78.62Z"/>
  </g>
  <g>
    <path class="cls-1" d="M1534.07,774.53c-4.08,0-7.86-.65-11.34-1.94-3.48-1.3-6.49-3.13-9.04-5.51-2.54-2.38-4.53-5.17-5.94-8.39-1.42-3.21-2.12-6.72-2.12-10.51s.71-7.36,2.12-10.55c1.42-3.19,3.4-5.98,5.94-8.35,2.54-2.38,5.55-4.21,9.04-5.51,3.48-1.3,7.26-1.94,11.34-1.94s7.92.65,11.38,1.94c3.46,1.3,6.46,3.13,9,5.51,2.54,2.38,4.52,5.16,5.94,8.35,1.42,3.19,2.12,6.71,2.12,10.55s-.71,7.3-2.12,10.51c-1.42,3.22-3.4,6.01-5.94,8.39-2.54,2.38-5.54,4.21-9,5.51s-7.25,1.94-11.38,1.94ZM1534.07,760.78c1.58,0,3.06-.29,4.43-.86s2.57-1.4,3.6-2.48,1.84-2.4,2.41-3.96c.58-1.56.86-3.32.86-5.29s-.29-3.73-.86-5.29c-.58-1.56-1.38-2.88-2.41-3.96s-2.23-1.91-3.6-2.48c-1.37-.58-2.84-.86-4.43-.86s-3.06.29-4.43.86c-1.37.58-2.57,1.4-3.6,2.48-1.03,1.08-1.84,2.4-2.41,3.96-.58,1.56-.86,3.32-.86,5.29s.29,3.73.86,5.29c.58,1.56,1.38,2.88,2.41,3.96,1.03,1.08,2.23,1.91,3.6,2.48,1.37.58,2.84.86,4.43.86ZM1550.56,786.12c-2.35,0-4.54-.23-6.55-.68-2.02-.46-3.97-1.21-5.87-2.27-1.9-1.06-3.88-2.51-5.94-4.36-2.06-1.85-4.37-4.14-6.91-6.88l17.57-4.32c1.15,1.78,2.14,3.14,2.95,4.1.82.96,1.62,1.63,2.41,2.02.79.38,1.69.58,2.7.58,2.5,0,4.82-1.08,6.98-3.24l7.34,8.64c-3.6,4.27-8.5,6.41-14.69,6.41Z"/>
    <path class="cls-1" d="M1592.83,774.53c-7.73,0-13.75-2.09-18.07-6.26-4.32-4.18-6.48-10.03-6.48-17.57v-27.72h16.99v27.22c0,3.84.7,6.56,2.09,8.17,1.39,1.61,3.26,2.41,5.62,2.41s4.28-.8,5.65-2.41c1.37-1.61,2.05-4.33,2.05-8.17v-27.22h16.7v27.72c0,7.54-2.16,13.39-6.48,17.57-4.32,4.18-10.34,6.26-18.07,6.26Z"/>
    <path class="cls-1" d="M1619.68,773.38l22.03-50.4h16.7l22.03,50.4h-17.57l-16.27-42.34h6.62l-16.27,42.34h-17.28ZM1632.79,764.6l4.32-12.24h23.18l4.32,12.24h-31.82Z"/>
    <path class="cls-1" d="M1683.18,773.38v-50.4h16.99v37.22h22.75v13.18h-39.74Z"/>
    <path class="cls-1" d="M1727.61,773.38v-50.4h16.99v50.4h-16.99Z"/>
    <path class="cls-1" d="M1769.8,773.38h-16.99v-50.4h40.97v12.82h-23.98v37.58ZM1768.65,744.44h22.18v12.82h-22.18v-12.82Z"/>
    <path class="cls-1" d="M1799.17,773.38v-50.4h16.99v50.4h-16.99Z"/>
    <path class="cls-1" d="M1841.08,760.56h25.2v12.82h-41.9v-50.4h40.97v12.82h-24.26v24.77ZM1839.93,741.7h22.46v12.24h-22.46v-12.24Z"/>
    <path class="cls-1" d="M1872.83,773.38v-50.4h24.26c4.7,0,8.77.77,12.2,2.3,3.43,1.54,6.08,3.73,7.96,6.59,1.87,2.86,2.81,6.23,2.81,10.12s-.94,7.24-2.81,10.04c-1.87,2.81-4.53,4.96-7.96,6.44-3.43,1.49-7.5,2.23-12.2,2.23h-14.83l7.56-6.98v19.66h-16.99ZM1889.82,755.6l-7.56-7.7h13.75c2.35,0,4.09-.53,5.22-1.58,1.13-1.05,1.69-2.5,1.69-4.32s-.57-3.26-1.69-4.32c-1.13-1.06-2.87-1.58-5.22-1.58h-13.75l7.56-7.7v27.22ZM1903,773.38l-12.38-18.36h18l12.53,18.36h-18.14Z"/>
  </g>
  <g>
    <circle class="cls-6" cx="590.68" cy="240.57" r="96.15"/>
    <path class="cls-11" d="M729.76,275.29v-69.59h-22.45c-2.41-8.1-5.63-15.85-9.59-23.14l15.88-15.88-49.22-49.22h0l-15.87,15.86c-7.3-3.95-15.04-7.18-23.14-9.58v-22.42h-69.59v22.43c-8.1,2.41-15.84,5.64-23.14,9.59l-15.87-15.87h0l-49.21,49.22,15.88,15.88c-3.95,7.3-7.18,15.04-9.59,23.14h-22.44v69.59h22.45c2.41,8.1,5.63,15.85,9.59,23.14l-15.88,15.88,49.22,49.22h0l15.87-15.86c7.3,3.95,15.04,7.18,23.14,9.58v22.42h69.59v-22.43c8.1-2.41,15.84-5.64,23.14-9.59l15.87,15.87h0l49.21-49.22-15.88-15.88c3.95-7.3,7.18-15.04,9.59-23.14h22.44ZM590.68,336.73c-53.1,0-96.15-43.05-96.15-96.15s43.05-96.15,96.15-96.15,96.15,43.05,96.15,96.15-43.05,96.15-96.15,96.15Z"/>
    <path class="cls-2" d="M589.69,285.55c-7.17,0-14.02-.89-20.57-2.66s-11.84-4.02-15.88-6.73l8.03-18.17c3.87,2.47,8.34,4.51,13.41,6.12s10.11,2.41,15.14,2.41c3.46,0,6.2-.29,8.22-.87,2.02-.58,3.5-1.4,4.45-2.47.95-1.07,1.42-2.35,1.42-3.83,0-1.89-.91-3.4-2.72-4.51-1.81-1.11-4.18-2.06-7.11-2.84-2.93-.78-6.1-1.52-9.51-2.22-3.42-.7-6.9-1.63-10.44-2.78-3.54-1.15-6.76-2.68-9.64-4.57-2.88-1.89-5.21-4.36-6.98-7.42-1.77-3.05-2.66-6.88-2.66-11.49,0-5.11,1.4-9.76,4.2-13.96,2.8-4.2,7.04-7.58,12.73-10.13,5.68-2.55,12.77-3.83,21.25-3.83,5.68,0,11.27.64,16.74,1.92,5.48,1.28,10.32,3.19,14.52,5.75l-7.41,18.04c-4.12-2.3-8.2-3.99-12.23-5.07-4.04-1.07-7.95-1.61-11.74-1.61-3.38,0-6.1.37-8.16,1.11-2.06.74-3.54,1.69-4.45,2.84-.91,1.16-1.36,2.39-1.36,3.71,0,1.98.9,3.52,2.72,4.63,1.81,1.11,4.16,2.02,7.04,2.72,2.88.7,6.07,1.42,9.58,2.16,3.5.74,6.98,1.67,10.44,2.78,3.46,1.11,6.65,2.59,9.58,4.45s5.29,4.28,7.1,7.29c1.81,3.01,2.72,6.78,2.72,11.31,0,5.02-1.42,9.66-4.26,13.9-2.84,4.25-7.1,7.64-12.79,10.19-5.68,2.55-12.81,3.83-21.38,3.83h0Z"/>
    <g id="_Radial_Repeat_" data-name=" Radial Repeat ">
      <path class="cls-7" d="M393.12,198.46l-64.94,36.4c-4.12,2.31-4.19,8.21-.14,10.63l63.99,38.05c4.06,2.41,9.21-.47,9.27-5.19l.95-74.44c.06-4.72-5.01-7.74-9.13-5.43h0ZM389.61,219.62l-.54,42.45c-.03,2.06-2.27,3.32-4.04,2.27l-36.49-21.7c-1.77-1.05-1.74-3.63.06-4.63l37.03-20.75c1.8-1.01,4.01.31,3.98,2.37h0Z"/>
    </g>
    <path class="cls-9" d="M722.68,57.89c-2.13,10.95-4.93,20.1-33.07,40.16-28.14-20.06-30.94-29.21-33.07-40.16s6.77-21.52,6.39-27.3c-.38-5.78-5.73-12.48-5.73-12.48,7.19-1.84,7.01-7.3,7.01-7.3,16.86,8.04,25.4-2.72,25.4-2.72,0,0,8.54,10.76,25.4,2.72,0,0-.18,5.46,7.01,7.3,0,0-5.35,6.71-5.73,12.48-.38,5.78,8.52,16.35,6.39,27.3h0Z"/>
    <g>
      <g id="_Radial_Repeat_-2" data-name=" Radial Repeat -2">
        <path class="cls-11" d="M722.39,111.23l69.05-43.99s45.9,212.8-49.99,309.62c0,0,38.77-137.2-19.06-265.63h0Z"/>
      </g>
      <g id="_Radial_Repeat_-3" data-name=" Radial Repeat -3">
        <path class="cls-11" d="M636.84,419.2l3.57,81.8s-207.23-66.65-243.14-198.1c0,0,99.44,102.18,239.57,116.3h0Z"/>
      </g>
      <g id="_Radial_Repeat_-4" data-name=" Radial Repeat -4">
        <path class="cls-11" d="M412.81,191.18l-72.62-37.81S501.53,7.23,633.32,41.86c0,0-138.21,35.02-220.51,149.33h0Z"/>
      </g>
    </g>
    <path class="cls-12" d="M677.24,394.43l.06-.03c1.17-.67,2.64-.52,3.65.37,6.02,5.28,7.52,5.27,10.54-1.36,1.1-2.42,3.68-3.9,6.31-3.47,2,.33,3.39,1.67,3.36,5.66-.02,2.72,5.49,3.79,7.65,1.51,2.08-2.21,3.37-4.66,7.23-2.34,3.5,2.11,2.34,4.22,1.56,6.96-.96,3.37,2.2,6.56,5.65,6.03,4.09-.63,6.71.56,7.86,3.57-1.61,4.01-3.92,7.08-3.56,9.79.26,1.91,4.16,3.33,7.49,5.74v4.4c-3.13,2.38-6.9,3.83-7.55,6.15-.64,2.28,1.9,5.44,3.66,9.71-.86,1.98-1.42,6.6-7.65,3.5-1.13-.56-3.84.54-4.87,1.71-.95,1.09-.54,3.31-.9,5-.4,1.94-.44,4.33-1.62,5.64-2.02,2.24-4.25,1.88-6.42-.75-1.09-1.32-3.88-2.5-5.24-1.99-1.59.6-2.32,3.24-3.7,4.75-1.27,1.38-2.87,3.3-4.4,3.38-1.52.08-3.99-1.51-4.57-2.96-2.71-6.74-4.62-7.09-10.19-2.78-.43.33-.98.51-1.62.58-3.43.4-6.27-2.67-5.79-6.09.69-4.96-.62-6.66-4.8-6.33-3.64.29-7.15-1.43-9.04-4.55l-.11-.18c7.55-9.35,7.14-11.14-3.15-13.25-.57-3.89-2.72-8.32,4.55-8.47,1.1-.02,2.77-1.93,3.08-3.23.36-1.53.07-3.82-.9-4.92-1.82-2.05-4.27-3.21-2.3-6.76,1.85-3.33,3.77-2.96,6.83-2.02,1.53.47,4.06-.73,5.46-1.95.85-.75.6-2.99.5-4.53l-.03-.26c-.31-2.49.79-4.94,2.97-6.2h-.01ZM696.08,411.7c-10.19.06-17.8,7.62-17.66,17.54.14,9.73,8.24,17.43,18.17,17.28,9.82-.15,17.08-7.57,17.11-17.48.03-10.21-7.27-17.39-17.62-17.34h0Z"/>
  </g>
  <g>
    <rect class="cls-3" x="1350" y="22" width="552" height="361"/>
    <path class="cls-1" d="M1500.89,75.42V25.02h13.97l25.63,30.67h-6.48v-30.67h16.56v50.4h-13.97l-25.63-30.67h6.48v30.67h-16.56Z"/>
    <path class="cls-1" d="M1579.08,76.14c-4.46,0-8.41-.88-11.84-2.63-3.43-1.75-6.13-4.16-8.1-7.24-1.97-3.07-2.95-6.6-2.95-10.58s.98-7.51,2.95-10.58c1.97-3.07,4.67-5.47,8.1-7.2,3.43-1.73,7.38-2.59,11.84-2.59s8.42.86,11.88,2.59,6.16,4.13,8.1,7.2c1.94,3.07,2.92,6.6,2.92,10.58s-.97,7.51-2.92,10.58c-1.94,3.07-4.64,5.48-8.1,7.24-3.46,1.75-7.42,2.63-11.88,2.63ZM1579.08,63.47c1.2,0,2.28-.29,3.24-.86.96-.58,1.73-1.45,2.3-2.63.58-1.18.86-2.6.86-4.28s-.29-3.16-.86-4.28c-.58-1.13-1.34-1.98-2.3-2.56-.96-.58-2.04-.86-3.24-.86s-2.28.29-3.24.86c-.96.58-1.73,1.43-2.3,2.56-.58,1.13-.86,2.56-.86,4.28s.29,3.11.86,4.28c.58,1.18,1.34,2.05,2.3,2.63.96.58,2.04.86,3.24.86Z"/>
    <path class="cls-1" d="M1618.25,75.42l-15.84-39.38h16.7l12.02,31.97h-8.42l12.82-31.97h15.41l-15.84,39.38h-16.85Z"/>
    <path class="cls-1" d="M1675.2,76.14c-4.8,0-8.99-.89-12.56-2.66-3.58-1.78-6.35-4.21-8.32-7.31-1.97-3.1-2.95-6.59-2.95-10.48s.97-7.51,2.92-10.58c1.94-3.07,4.61-5.47,7.99-7.2s7.19-2.59,11.41-2.59c3.89,0,7.48.77,10.76,2.3,3.29,1.54,5.93,3.82,7.92,6.84,1.99,3.02,2.99,6.77,2.99,11.23,0,.58-.02,1.21-.07,1.91-.05.7-.1,1.33-.14,1.91h-30.31v-7.85h21.67l-6.12,2.09c0-1.54-.28-2.84-.83-3.92-.55-1.08-1.31-1.92-2.27-2.52-.96-.6-2.11-.9-3.46-.9s-2.51.3-3.49.9c-.98.6-1.74,1.44-2.27,2.52-.53,1.08-.79,2.39-.79,3.92v2.45c0,1.68.33,3.12,1.01,4.32.67,1.2,1.63,2.1,2.88,2.7,1.25.6,2.76.9,4.54.9s3.32-.24,4.5-.72c1.18-.48,2.41-1.2,3.71-2.16l8.5,8.57c-1.92,2.06-4.28,3.64-7.09,4.72s-6.18,1.62-10.12,1.62Z"/>
    <path class="cls-1" d="M1752.6,35.32c2.98,0,5.65.61,8.03,1.84s4.25,3.13,5.62,5.72c1.37,2.59,2.05,5.95,2.05,10.08v22.46h-16.27v-19.66c0-2.45-.41-4.19-1.22-5.22-.82-1.03-1.87-1.55-3.17-1.55-.96,0-1.82.24-2.59.72-.77.48-1.38,1.24-1.84,2.27-.46,1.03-.68,2.44-.68,4.21v19.22h-16.27v-19.66c0-2.45-.38-4.19-1.15-5.22-.77-1.03-1.85-1.55-3.24-1.55-.96,0-1.83.24-2.59.72-.77.48-1.38,1.24-1.84,2.27-.46,1.03-.68,2.44-.68,4.21v19.22h-16.27v-39.38h15.48v11.3l-3.17-3.17c1.49-2.98,3.48-5.2,5.98-6.66,2.5-1.46,5.28-2.2,8.35-2.2,3.46,0,6.52.9,9.18,2.7,2.66,1.8,4.45,4.64,5.36,8.53l-4.97-.79c1.44-3.26,3.54-5.82,6.3-7.67,2.76-1.85,5.96-2.77,9.61-2.77Z"/>
    <path class="cls-1" d="M1775.35,75.42V22h16.27v19.3l-.72,14.4-.07,14.4v5.33h-15.48ZM1801.63,76.14c-3.6,0-6.5-.72-8.71-2.16-2.21-1.44-3.8-3.67-4.79-6.7-.98-3.02-1.48-6.89-1.48-11.59s.53-8.48,1.58-11.48c1.05-3,2.7-5.23,4.93-6.7,2.23-1.46,5.05-2.2,8.46-2.2s6.62.82,9.5,2.45c2.88,1.63,5.18,3.97,6.91,7.02,1.73,3.05,2.59,6.69,2.59,10.91s-.86,7.86-2.59,10.91c-1.73,3.05-4.03,5.4-6.91,7.06-2.88,1.66-6.05,2.48-9.5,2.48ZM1797.75,63.47c1.2,0,2.28-.29,3.24-.86.96-.58,1.73-1.45,2.3-2.63.58-1.18.86-2.6.86-4.28s-.29-3.16-.86-4.28c-.58-1.13-1.34-1.98-2.3-2.56-.96-.58-2.04-.86-3.24-.86s-2.28.29-3.24.86c-.96.58-1.73,1.43-2.3,2.56-.58,1.13-.86,2.56-.86,4.28s.29,3.11.86,4.28c.58,1.18,1.34,2.05,2.3,2.63.96.58,2.04.86,3.24.86Z"/>
    <path class="cls-1" d="M1847.5,76.14c-4.8,0-8.99-.89-12.56-2.66-3.58-1.78-6.35-4.21-8.32-7.31-1.97-3.1-2.95-6.59-2.95-10.48s.97-7.51,2.92-10.58c1.94-3.07,4.61-5.47,7.99-7.2s7.19-2.59,11.41-2.59c3.89,0,7.48.77,10.76,2.3,3.29,1.54,5.93,3.82,7.92,6.84,1.99,3.02,2.99,6.77,2.99,11.23,0,.58-.02,1.21-.07,1.91-.05.7-.1,1.33-.14,1.91h-30.31v-7.85h21.67l-6.12,2.09c0-1.54-.28-2.84-.83-3.92-.55-1.08-1.31-1.92-2.27-2.52-.96-.6-2.11-.9-3.46-.9s-2.51.3-3.49.9c-.98.6-1.74,1.44-2.27,2.52-.53,1.08-.79,2.39-.79,3.92v2.45c0,1.68.33,3.12,1.01,4.32.67,1.2,1.63,2.1,2.88,2.7,1.25.6,2.76.9,4.54.9s3.32-.24,4.5-.72c1.18-.48,2.41-1.2,3.71-2.16l8.5,8.57c-1.92,2.06-4.28,3.64-7.09,4.72s-6.18,1.62-10.12,1.62Z"/>
    <path class="cls-1" d="M1872.77,75.42v-39.38h15.48v11.88l-2.52-3.38c1.2-3.07,3.12-5.38,5.76-6.91,2.64-1.54,5.81-2.3,9.5-2.3v14.4c-.72-.1-1.36-.17-1.91-.22-.55-.05-1.12-.07-1.69-.07-2.45,0-4.45.64-6.01,1.91-1.56,1.27-2.34,3.47-2.34,6.59v17.5h-16.27Z"/>
    <path class="cls-1" d="M1643.6,110.27c4.8,0,9.01.92,12.64,2.77,3.62,1.85,6.46,4.6,8.5,8.24,2.04,3.65,3.06,8.23,3.06,13.75,0,5.9-1.18,10.93-3.53,15.08-2.35,4.15-5.62,7.33-9.79,9.54-4.18,2.21-9.05,3.31-14.62,3.31-2.98,0-5.84-.35-8.6-1.04-2.76-.7-5.1-1.67-7.02-2.92l6.12-11.88c1.49,1.06,2.99,1.76,4.5,2.12,1.51.36,3.06.54,4.64.54,3.41,0,6.13-1.02,8.17-3.06,2.04-2.04,3.06-5,3.06-8.89v-4.25l3.89,2.81c-.91,1.63-2.03,3.01-3.35,4.14-1.32,1.13-2.87,1.99-4.64,2.59-1.78.6-3.84.9-6.19.9-3.07,0-5.92-.66-8.53-1.98-2.62-1.32-4.73-3.19-6.34-5.62-1.61-2.42-2.41-5.27-2.41-8.53,0-3.6.91-6.72,2.74-9.36,1.82-2.64,4.28-4.68,7.38-6.12,3.1-1.44,6.54-2.16,10.33-2.16ZM1644.75,122.01c-1.01,0-1.9.2-2.66.61-.77.41-1.38,1-1.84,1.76-.46.77-.68,1.68-.68,2.74,0,1.58.49,2.84,1.48,3.78.98.94,2.22,1.4,3.71,1.4,1.01,0,1.91-.22,2.7-.65s1.4-1.03,1.84-1.8c.43-.77.65-1.68.65-2.74s-.22-1.97-.65-2.74c-.43-.77-1.04-1.36-1.84-1.76-.79-.41-1.69-.61-2.7-.61Z"/>
    <path class="cls-1" d="M1672.4,173.34l6.05-20.23,2.38,9.07c-2.79,0-5.07-.8-6.84-2.41-1.78-1.61-2.66-3.8-2.66-6.59s.9-5.08,2.7-6.73c1.8-1.66,4.07-2.48,6.8-2.48s5,.83,6.8,2.48c1.8,1.66,2.7,3.9,2.7,6.73,0,.77-.06,1.54-.18,2.3-.12.77-.37,1.69-.76,2.77-.38,1.08-1.01,2.53-1.87,4.36l-5.04,10.73h-10.08Z"/>
    <path class="cls-1" d="M1715.38,161.82v-10.44l18.22-16.85c1.15-1.1,2-2.06,2.56-2.88.55-.82.92-1.55,1.12-2.2.19-.65.29-1.26.29-1.84,0-1.25-.41-2.22-1.22-2.92-.82-.69-2.04-1.04-3.67-1.04-1.49,0-2.9.4-4.25,1.19s-2.4,1.96-3.17,3.49l-12.82-6.41c1.82-3.46,4.56-6.26,8.21-8.42,3.65-2.16,8.18-3.24,13.61-3.24,3.98,0,7.51.65,10.58,1.94,3.07,1.3,5.47,3.12,7.2,5.47,1.73,2.35,2.59,5.14,2.59,8.35,0,1.63-.21,3.27-.61,4.9-.41,1.63-1.24,3.35-2.48,5.15-1.25,1.8-3.1,3.81-5.54,6.01l-13.68,12.46-2.66-5.9h26.14v13.18h-40.39Z"/>
    <path class="cls-1" d="M1782.05,162.98c-4.46,0-8.41-1.03-11.84-3.1-3.43-2.06-6.12-5.06-8.06-9-1.94-3.94-2.92-8.69-2.92-14.26s.97-10.32,2.92-14.26c1.94-3.94,4.63-6.94,8.06-9,3.43-2.06,7.38-3.1,11.84-3.1s8.41,1.03,11.84,3.1c3.43,2.06,6.12,5.06,8.06,9,1.94,3.94,2.92,8.69,2.92,14.26s-.97,10.32-2.92,14.26c-1.94,3.94-4.63,6.94-8.06,9-3.43,2.06-7.38,3.1-11.84,3.1ZM1782.05,149.37c1.1,0,2.09-.38,2.95-1.15.86-.77,1.55-2.09,2.05-3.96s.76-4.42.76-7.63-.25-5.82-.76-7.67c-.5-1.85-1.19-3.16-2.05-3.92-.86-.77-1.85-1.15-2.95-1.15s-2.09.38-2.95,1.15c-.86.77-1.55,2.08-2.05,3.92-.5,1.85-.76,4.4-.76,7.67s.25,5.76.76,7.63,1.19,3.19,2.05,3.96c.86.77,1.85,1.15,2.95,1.15Z"/>
    <path class="cls-1" d="M1808.98,161.82v-10.44l18.22-16.85c1.15-1.1,2-2.06,2.56-2.88.55-.82.92-1.55,1.12-2.2.19-.65.29-1.26.29-1.84,0-1.25-.41-2.22-1.22-2.92-.82-.69-2.04-1.04-3.67-1.04-1.49,0-2.9.4-4.25,1.19s-2.4,1.96-3.17,3.49l-12.82-6.41c1.82-3.46,4.56-6.26,8.21-8.42,3.65-2.16,8.18-3.24,13.61-3.24,3.98,0,7.51.65,10.58,1.94,3.07,1.3,5.47,3.12,7.2,5.47,1.73,2.35,2.59,5.14,2.59,8.35,0,1.63-.21,3.27-.61,4.9-.41,1.63-1.24,3.35-2.48,5.15-1.25,1.8-3.1,3.81-5.54,6.01l-13.68,12.46-2.66-5.9h26.14v13.18h-40.39Z"/>
    <path class="cls-1" d="M1852.39,153.18v-10.8l21.38-30.96h17.42l-20.59,30.96-7.92-2.38h39.02v13.18h-49.32ZM1878.53,161.82v-8.64l.5-13.18v-7.7h15.98v29.52h-16.49Z"/>
    <path class="cls-16" d="M1507.8,248.22v-50.4h24.26c4.7,0,8.77.77,12.2,2.3,3.43,1.54,6.08,3.73,7.96,6.59,1.87,2.86,2.81,6.23,2.81,10.12s-.94,7.24-2.81,10.04c-1.87,2.81-4.53,4.96-7.96,6.44-3.43,1.49-7.5,2.23-12.2,2.23h-14.83l7.56-6.98v19.66h-16.99ZM1524.8,230.44l-7.56-7.7h13.75c2.35,0,4.09-.53,5.22-1.58,1.13-1.06,1.69-2.5,1.69-4.32s-.57-3.26-1.69-4.32c-1.13-1.06-2.87-1.58-5.22-1.58h-13.75l7.56-7.7v27.22ZM1537.97,248.22l-12.38-18.36h18l12.53,18.36h-18.14Z"/>
    <path class="cls-16" d="M1581.75,248.94c-4.46,0-8.41-.88-11.84-2.63-3.43-1.75-6.13-4.16-8.1-7.24-1.97-3.07-2.95-6.6-2.95-10.58s.98-7.51,2.95-10.58c1.97-3.07,4.67-5.47,8.1-7.2,3.43-1.73,7.38-2.59,11.84-2.59s8.42.86,11.88,2.59,6.16,4.13,8.1,7.2c1.94,3.07,2.92,6.6,2.92,10.58s-.97,7.51-2.92,10.58c-1.94,3.07-4.64,5.48-8.1,7.24-3.46,1.75-7.42,2.63-11.88,2.63ZM1581.75,236.27c1.2,0,2.28-.29,3.24-.86.96-.58,1.73-1.45,2.3-2.63.58-1.18.86-2.6.86-4.28s-.29-3.16-.86-4.28c-.58-1.13-1.34-1.98-2.3-2.56-.96-.58-2.04-.86-3.24-.86s-2.28.29-3.24.86c-.96.58-1.73,1.43-2.3,2.56-.58,1.13-.86,2.56-.86,4.28s.29,3.11.86,4.28c.58,1.18,1.34,2.05,2.3,2.63.96.58,2.04.86,3.24.86Z"/>
    <path class="cls-16" d="M1622.21,250.02l-17.14-41.18h16.7l11.81,30.67-11.38,10.51ZM1618.4,262.91c-2.16,0-4.36-.32-6.59-.97-2.23-.65-4.02-1.5-5.36-2.56l5.4-11.16c.82.62,1.74,1.13,2.77,1.51,1.03.38,2.03.58,2.99.58,1.44,0,2.54-.3,3.31-.9.77-.6,1.39-1.5,1.87-2.7l1.66-4.18,1.15-1.58,12.6-32.11h15.41l-16.2,40.18c-1.44,3.6-3.11,6.41-5,8.42-1.9,2.02-4.01,3.43-6.34,4.25-2.33.82-4.88,1.22-7.67,1.22Z"/>
    <path class="cls-16" d="M1668.8,248.94c-3.22,0-5.9-.55-8.06-1.66s-3.79-2.58-4.9-4.43c-1.1-1.85-1.66-3.9-1.66-6.16,0-2.54.65-4.7,1.94-6.48,1.3-1.78,3.28-3.12,5.94-4.03,2.66-.91,6.04-1.37,10.12-1.37h8.21v7.85h-5.62c-1.73,0-2.99.28-3.78.83-.79.55-1.19,1.38-1.19,2.48,0,.91.35,1.67,1.04,2.27.7.6,1.64.9,2.84.9,1.1,0,2.12-.3,3.06-.9.94-.6,1.62-1.55,2.05-2.84l2.09,4.82c-.62,2.93-1.94,5.11-3.96,6.55-2.02,1.44-4.73,2.16-8.14,2.16ZM1679.96,248.22v-6.98l-1.15-1.87v-13.25c0-1.92-.59-3.38-1.76-4.39-1.18-1.01-3.08-1.51-5.72-1.51-1.78,0-3.58.28-5.4.83-1.82.55-3.38,1.31-4.68,2.27l-5.18-10.73c2.3-1.44,5.06-2.54,8.28-3.31,3.22-.77,6.36-1.15,9.43-1.15,6.77,0,12.01,1.51,15.73,4.54s5.58,7.82,5.58,14.4v21.17h-15.12Z"/>
    <path class="cls-16" d="M1702.13,248.22v-53.42h16.27v53.42h-16.27Z"/>
    <path class="cls-16" d="M1774.13,249.38c-4.08,0-7.86-.65-11.34-1.94-3.48-1.3-6.49-3.13-9.04-5.51-2.54-2.38-4.53-5.17-5.94-8.39-1.42-3.22-2.12-6.72-2.12-10.51s.71-7.35,2.12-10.55c1.42-3.19,3.4-5.98,5.94-8.35,2.54-2.38,5.55-4.21,9.04-5.51,3.48-1.3,7.26-1.94,11.34-1.94s7.92.65,11.38,1.94,6.46,3.13,9,5.51c2.54,2.38,4.52,5.16,5.94,8.35,1.42,3.19,2.12,6.71,2.12,10.55s-.71,7.3-2.12,10.51c-1.42,3.22-3.4,6.01-5.94,8.39-2.54,2.38-5.54,4.21-9,5.51s-7.25,1.94-11.38,1.94ZM1774.13,235.62c1.58,0,3.06-.29,4.43-.86,1.37-.58,2.57-1.4,3.6-2.48,1.03-1.08,1.84-2.4,2.41-3.96.58-1.56.86-3.32.86-5.29s-.29-3.73-.86-5.29c-.58-1.56-1.38-2.88-2.41-3.96s-2.23-1.91-3.6-2.48-2.84-.86-4.43-.86-3.06.29-4.43.86c-1.37.58-2.57,1.4-3.6,2.48-1.03,1.08-1.84,2.4-2.41,3.96-.58,1.56-.86,3.32-.86,5.29s.29,3.73.86,5.29c.58,1.56,1.38,2.88,2.41,3.96,1.03,1.08,2.23,1.91,3.6,2.48,1.37.58,2.84.86,4.43.86Z"/>
    <path class="cls-16" d="M1820.93,248.94c-3.22,0-5.9-.55-8.06-1.66s-3.79-2.58-4.9-4.43c-1.1-1.85-1.66-3.9-1.66-6.16,0-2.54.65-4.7,1.94-6.48,1.3-1.78,3.28-3.12,5.94-4.03,2.66-.91,6.04-1.37,10.12-1.37h8.21v7.85h-5.62c-1.73,0-2.99.28-3.78.83-.79.55-1.19,1.38-1.19,2.48,0,.91.35,1.67,1.04,2.27.7.6,1.64.9,2.84.9,1.1,0,2.12-.3,3.06-.9.94-.6,1.62-1.55,2.05-2.84l2.09,4.82c-.62,2.93-1.94,5.11-3.96,6.55-2.02,1.44-4.73,2.16-8.14,2.16ZM1832.09,248.22v-6.98l-1.15-1.87v-13.25c0-1.92-.59-3.38-1.76-4.39-1.18-1.01-3.08-1.51-5.72-1.51-1.78,0-3.58.28-5.4.83-1.82.55-3.38,1.31-4.68,2.27l-5.18-10.73c2.3-1.44,5.06-2.54,8.28-3.31,3.22-.77,6.36-1.15,9.43-1.15,6.77,0,12.01,1.51,15.73,4.54s5.58,7.82,5.58,14.4v21.17h-15.12Z"/>
    <path class="cls-16" d="M1854.26,248.22v-53.42h16.27v53.42h-16.27ZM1867.87,241.74l.36-19.15,13.61-13.75h19.22l-18,18.86-8.14,6.55-7.06,7.49ZM1882.71,248.22l-10.8-13.68,10.01-12.31,20.45,25.99h-19.66Z"/>
    <path class="cls-16" d="M1357.11,334.62v-50.4h13.97l20.16,32.9h-7.34l19.58-32.9h13.97l.14,50.4h-15.48l-.14-27.07h2.45l-13.39,22.54h-7.49l-13.97-22.54h3.02v27.07h-15.48Z"/>
    <path class="cls-16" d="M1433.43,292.07c-2.98,0-5.35-.79-7.13-2.38-1.78-1.58-2.66-3.55-2.66-5.9s.89-4.32,2.66-5.9c1.77-1.58,4.15-2.38,7.13-2.38s5.35.74,7.13,2.23c1.78,1.49,2.66,3.41,2.66,5.76,0,2.5-.89,4.55-2.66,6.16-1.78,1.61-4.15,2.41-7.13,2.41ZM1425.29,334.62v-39.38h16.27v39.38h-16.27Z"/>
    <path class="cls-16" d="M1466.05,335.34c-3.41,0-6.56-.83-9.47-2.48-2.91-1.66-5.22-4.01-6.95-7.06-1.73-3.05-2.59-6.68-2.59-10.91s.86-7.86,2.59-10.91c1.73-3.05,4.04-5.39,6.95-7.02,2.9-1.63,6.06-2.45,9.47-2.45s6.29.73,8.5,2.2c2.21,1.46,3.84,3.7,4.9,6.7,1.05,3,1.58,6.83,1.58,11.48s-.49,8.57-1.48,11.59c-.98,3.02-2.57,5.26-4.75,6.7-2.18,1.44-5.1,2.16-8.75,2.16ZM1469.93,322.67c1.2,0,2.28-.29,3.24-.86.96-.58,1.73-1.45,2.3-2.63.58-1.18.86-2.6.86-4.28s-.29-3.16-.86-4.28c-.58-1.13-1.34-1.98-2.3-2.56-.96-.58-2.04-.86-3.24-.86s-2.28.29-3.24.86c-.96.58-1.73,1.43-2.3,2.56-.58,1.13-.86,2.56-.86,4.28s.29,3.11.86,4.28c.58,1.18,1.34,2.05,2.3,2.63.96.58,2.04.86,3.24.86ZM1476.85,334.62v-5.33l-.07-14.4-.72-14.4v-19.3h16.27v53.42h-15.48Z"/>
    <path class="cls-16" d="M1516.8,335.34c-3.41,0-6.56-.83-9.47-2.48-2.91-1.66-5.22-4.01-6.95-7.06-1.73-3.05-2.59-6.68-2.59-10.91s.86-7.86,2.59-10.91c1.73-3.05,4.04-5.39,6.95-7.02,2.9-1.63,6.06-2.45,9.47-2.45s6.29.73,8.5,2.2c2.21,1.46,3.84,3.7,4.9,6.7,1.05,3,1.58,6.83,1.58,11.48s-.49,8.57-1.48,11.59c-.98,3.02-2.57,5.26-4.75,6.7-2.18,1.44-5.1,2.16-8.75,2.16ZM1520.69,322.67c1.2,0,2.28-.29,3.24-.86.96-.58,1.73-1.45,2.3-2.63.58-1.18.86-2.6.86-4.28s-.29-3.16-.86-4.28c-.58-1.13-1.34-1.98-2.3-2.56-.96-.58-2.04-.86-3.24-.86s-2.28.29-3.24.86c-.96.58-1.73,1.43-2.3,2.56-.58,1.13-.86,2.56-.86,4.28s.29,3.11.86,4.28c.58,1.18,1.34,2.05,2.3,2.63.96.58,2.04.86,3.24.86ZM1527.6,334.62v-5.33l-.07-14.4-.72-14.4v-19.3h16.27v53.42h-15.48Z"/>
    <path class="cls-16" d="M1550.28,334.62v-53.42h16.27v53.42h-16.27Z"/>
    <path class="cls-16" d="M1595.5,335.34c-4.8,0-8.99-.89-12.56-2.66-3.58-1.78-6.35-4.21-8.32-7.31-1.97-3.1-2.95-6.59-2.95-10.48s.97-7.51,2.92-10.58c1.94-3.07,4.61-5.47,7.99-7.2s7.19-2.59,11.41-2.59c3.89,0,7.48.77,10.76,2.3,3.29,1.54,5.93,3.82,7.92,6.84,1.99,3.02,2.99,6.77,2.99,11.23,0,.58-.02,1.21-.07,1.91-.05.7-.1,1.33-.14,1.91h-30.31v-7.85h21.67l-6.12,2.09c0-1.54-.28-2.84-.83-3.92-.55-1.08-1.31-1.92-2.27-2.52-.96-.6-2.11-.9-3.46-.9s-2.51.3-3.49.9c-.98.6-1.74,1.44-2.27,2.52-.53,1.08-.79,2.39-.79,3.92v2.45c0,1.68.33,3.12,1.01,4.32.67,1.2,1.63,2.1,2.88,2.7,1.25.6,2.76.9,4.54.9s3.32-.24,4.5-.72c1.18-.48,2.41-1.2,3.71-2.16l8.5,8.57c-1.92,2.06-4.28,3.64-7.09,4.72s-6.18,1.62-10.12,1.62Z"/>
    <path class="cls-16" d="M1661.67,335.77c-4.22,0-8.31-.48-12.24-1.44-3.94-.96-7.18-2.21-9.72-3.74l5.47-12.38c2.4,1.39,5.08,2.51,8.03,3.35,2.95.84,5.82,1.26,8.6,1.26,1.63,0,2.92-.11,3.85-.32.94-.22,1.62-.53,2.05-.94.43-.41.65-.9.65-1.48,0-.91-.5-1.63-1.51-2.16-1.01-.53-2.34-.97-4-1.33-1.66-.36-3.47-.74-5.44-1.15-1.97-.41-3.95-.95-5.94-1.62-1.99-.67-3.82-1.56-5.47-2.66-1.66-1.1-2.99-2.56-4-4.36-1.01-1.8-1.51-4.04-1.51-6.73,0-3.12.88-5.96,2.63-8.53,1.75-2.57,4.37-4.62,7.85-6.16,3.48-1.54,7.81-2.3,13-2.3,3.41,0,6.77.36,10.08,1.08,3.31.72,6.29,1.82,8.93,3.31l-5.11,12.31c-2.5-1.25-4.91-2.18-7.24-2.81-2.33-.62-4.6-.94-6.8-.94-1.63,0-2.93.14-3.89.43-.96.29-1.64.67-2.05,1.15-.41.48-.61,1.01-.61,1.58,0,.86.5,1.55,1.51,2.05,1.01.5,2.34.92,4,1.26,1.66.34,3.48.7,5.47,1.08,1.99.38,3.97.91,5.94,1.58,1.97.67,3.78,1.56,5.44,2.66,1.66,1.1,2.99,2.54,4,4.32,1.01,1.78,1.51,3.98,1.51,6.62,0,3.07-.88,5.89-2.63,8.46-1.75,2.57-4.36,4.63-7.81,6.19s-7.8,2.34-13.03,2.34Z"/>
    <path class="cls-16" d="M1710.84,335.34c-4.51,0-8.52-.86-12.02-2.59-3.5-1.73-6.25-4.14-8.24-7.24-1.99-3.1-2.99-6.64-2.99-10.62s1-7.51,2.99-10.58c1.99-3.07,4.74-5.47,8.24-7.2,3.5-1.73,7.51-2.59,12.02-2.59,4.8,0,8.9,1.03,12.31,3.1,3.41,2.06,5.76,4.92,7.06,8.57l-12.6,6.19c-.82-1.82-1.81-3.14-2.99-3.96-1.18-.82-2.46-1.22-3.85-1.22-1.2,0-2.32.29-3.35.86-1.03.58-1.85,1.43-2.45,2.56-.6,1.13-.9,2.56-.9,4.28s.3,3.17.9,4.32c.6,1.15,1.42,2.02,2.45,2.59,1.03.58,2.15.86,3.35.86,1.39,0,2.67-.41,3.85-1.22,1.18-.82,2.17-2.14,2.99-3.96l12.6,6.19c-1.3,3.65-3.65,6.5-7.06,8.57-3.41,2.06-7.51,3.1-12.31,3.1Z"/>
    <path class="cls-16" d="M1761.31,294.52c3.02,0,5.76.61,8.21,1.84s4.38,3.13,5.8,5.72c1.42,2.59,2.12,5.95,2.12,10.08v22.46h-16.27v-19.66c0-2.45-.43-4.19-1.3-5.22-.86-1.03-2.04-1.55-3.53-1.55-1.1,0-2.12.25-3.06.76-.94.5-1.68,1.33-2.23,2.48-.55,1.15-.83,2.71-.83,4.68v18.5h-16.27v-53.42h16.27v25.56l-3.89-3.31c1.54-2.98,3.61-5.21,6.23-6.7,2.62-1.49,5.53-2.23,8.75-2.23Z"/>
    <path class="cls-16" d="M1805.3,335.34c-4.46,0-8.41-.88-11.84-2.63-3.43-1.75-6.13-4.16-8.1-7.24-1.97-3.07-2.95-6.6-2.95-10.58s.98-7.51,2.95-10.58c1.97-3.07,4.67-5.47,8.1-7.2,3.43-1.73,7.38-2.59,11.84-2.59s8.42.86,11.88,2.59,6.16,4.13,8.1,7.2c1.94,3.07,2.92,6.6,2.92,10.58s-.97,7.51-2.92,10.58c-1.94,3.07-4.64,5.48-8.1,7.24-3.46,1.75-7.42,2.63-11.88,2.63ZM1805.3,322.67c1.2,0,2.28-.29,3.24-.86.96-.58,1.73-1.45,2.3-2.63.58-1.18.86-2.6.86-4.28s-.29-3.16-.86-4.28c-.58-1.13-1.34-1.98-2.3-2.56-.96-.58-2.04-.86-3.24-.86s-2.28.29-3.24.86c-.96.58-1.73,1.43-2.3,2.56-.58,1.13-.86,2.56-.86,4.28s.29,3.11.86,4.28c.58,1.18,1.34,2.05,2.3,2.63.96.58,2.04.86,3.24.86Z"/>
    <path class="cls-16" d="M1854.12,335.34c-4.46,0-8.41-.88-11.84-2.63-3.43-1.75-6.13-4.16-8.1-7.24-1.97-3.07-2.95-6.6-2.95-10.58s.98-7.51,2.95-10.58c1.97-3.07,4.67-5.47,8.1-7.2,3.43-1.73,7.38-2.59,11.84-2.59s8.42.86,11.88,2.59,6.16,4.13,8.1,7.2c1.94,3.07,2.92,6.6,2.92,10.58s-.97,7.51-2.92,10.58c-1.94,3.07-4.64,5.48-8.1,7.24-3.46,1.75-7.42,2.63-11.88,2.63ZM1854.12,322.67c1.2,0,2.28-.29,3.24-.86.96-.58,1.73-1.45,2.3-2.63.58-1.18.86-2.6.86-4.28s-.29-3.16-.86-4.28c-.58-1.13-1.34-1.98-2.3-2.56-.96-.58-2.04-.86-3.24-.86s-2.28.29-3.24.86c-.96.58-1.73,1.43-2.3,2.56-.58,1.13-.86,2.56-.86,4.28s.29,3.11.86,4.28c.58,1.18,1.34,2.05,2.3,2.63.96.58,2.04.86,3.24.86Z"/>
    <path class="cls-16" d="M1882.13,334.62v-53.42h16.27v53.42h-16.27Z"/>
  </g>
  <g>
    <path class="cls-1" d="M220.71,1063.11l-16.13-50.33h17.5l13.03,42.49h-8.78l13.82-42.49h15.62l12.89,42.49h-8.42l13.61-42.49h16.13l-16.13,50.33h-18.22l-10.51-34.8h4.9l-11.09,34.8h-18.22Z"/>
    <path class="cls-1" d="M289.33,1063.11l22.03-50.33h16.7l22.03,50.33h-17.57l-16.27-42.27h6.62l-16.27,42.27h-17.28ZM302.43,1054.34l4.32-12.22h23.18l4.32,12.22h-31.82Z"/>
    <path class="cls-1" d="M363.78,1063.11v-37.17h-14.76v-13.16h46.51v13.16h-14.76v37.17h-16.99Z"/>
    <path class="cls-1" d="M425.99,1064.26c-4.03,0-7.76-.64-11.2-1.91-3.43-1.27-6.41-3.08-8.93-5.43-2.52-2.35-4.48-5.13-5.87-8.34-1.39-3.21-2.09-6.76-2.09-10.64s.7-7.43,2.09-10.64c1.39-3.21,3.35-5.99,5.87-8.34,2.52-2.35,5.5-4.16,8.93-5.43,3.43-1.27,7.16-1.9,11.2-1.9,4.94,0,9.32.86,13.14,2.59,3.82,1.72,6.97,4.22,9.47,7.48l-10.73,9.56c-1.49-1.87-3.13-3.32-4.93-4.35-1.8-1.03-3.83-1.55-6.08-1.55-1.78,0-3.38.29-4.82.86-1.44.58-2.68,1.41-3.71,2.52-1.03,1.1-1.84,2.43-2.41,3.99-.58,1.56-.86,3.3-.86,5.21s.29,3.66.86,5.21c.58,1.56,1.38,2.89,2.41,3.99,1.03,1.1,2.27,1.94,3.71,2.52s3.05.86,4.82.86c2.26,0,4.28-.51,6.08-1.55,1.8-1.03,3.44-2.48,4.93-4.35l10.73,9.56c-2.5,3.21-5.65,5.69-9.47,7.44s-8.2,2.62-13.14,2.62Z"/>
    <path class="cls-1" d="M470.48,1063.11h-16.99v-50.33h16.99v50.33ZM487.33,1044.56h-18v-13.95h18v13.95ZM486.18,1012.78h16.99v50.33h-16.99v-50.33Z"/>
    <path class="cls-1" d="M559.4,1064.26c-4.08,0-7.86-.65-11.34-1.94-3.48-1.29-6.49-3.13-9.04-5.5-2.54-2.37-4.52-5.16-5.94-8.38-1.42-3.21-2.12-6.71-2.12-10.5s.71-7.34,2.12-10.53c1.42-3.19,3.4-5.97,5.94-8.34,2.54-2.37,5.56-4.21,9.04-5.5,3.48-1.29,7.26-1.94,11.34-1.94s7.92.65,11.38,1.94c3.46,1.29,6.46,3.13,9,5.5,2.54,2.37,4.52,5.15,5.94,8.34,1.42,3.19,2.12,6.7,2.12,10.53s-.71,7.29-2.12,10.5c-1.42,3.21-3.4,6-5.94,8.38-2.54,2.37-5.54,4.21-9,5.5-3.46,1.29-7.25,1.94-11.38,1.94ZM559.4,1050.53c1.58,0,3.06-.29,4.43-.86s2.57-1.4,3.6-2.48c1.03-1.08,1.84-2.4,2.41-3.95.58-1.56.86-3.32.86-5.28s-.29-3.73-.86-5.28c-.58-1.56-1.38-2.88-2.41-3.95-1.03-1.08-2.23-1.91-3.6-2.48-1.37-.57-2.84-.86-4.43-.86s-3.06.29-4.43.86c-1.37.58-2.57,1.4-3.6,2.48-1.03,1.08-1.84,2.4-2.41,3.95-.58,1.56-.86,3.32-.86,5.28s.29,3.73.86,5.28c.58,1.56,1.38,2.88,2.41,3.95,1.03,1.08,2.23,1.91,3.6,2.48,1.37.58,2.84.86,4.43.86Z"/>
    <path class="cls-1" d="M594.03,1063.11v-50.33h13.97l25.63,30.63h-6.48v-30.63h16.56v50.33h-13.97l-25.63-30.63h6.48v30.63h-16.56Z"/>
    <path class="cls-1" d="M688.42,1063.83c-3.36,0-6.67-.36-9.94-1.08-3.26-.72-5.9-1.65-7.92-2.8l4.46-10.71c1.87,1.1,4.04,1.97,6.52,2.59,2.47.62,4.88.93,7.24.93,1.97,0,3.3-.17,4-.5.7-.33,1.04-.79,1.04-1.37s-.41-.99-1.22-1.26c-.82-.26-1.9-.47-3.24-.61-1.34-.14-2.82-.32-4.43-.54-1.61-.21-3.23-.54-4.86-.97-1.63-.43-3.12-1.08-4.46-1.94-1.34-.86-2.42-2.02-3.24-3.49-.82-1.46-1.22-3.32-1.22-5.57,0-2.49.76-4.75,2.27-6.76,1.51-2.01,3.77-3.63,6.77-4.85,3-1.22,6.71-1.83,11.12-1.83,2.88,0,5.76.26,8.64.79,2.88.53,5.35,1.34,7.42,2.44l-4.46,10.71c-2.02-1.1-4-1.86-5.94-2.26-1.94-.41-3.76-.61-5.44-.61-2.06,0-3.47.19-4.21.58-.74.38-1.12.81-1.12,1.29,0,.58.41,1.01,1.22,1.29.82.29,1.9.5,3.24.65,1.34.14,2.82.32,4.43.54,1.61.22,3.22.55,4.82,1.01,1.61.46,3.08,1.11,4.43,1.98,1.34.86,2.42,2.03,3.24,3.49.82,1.46,1.22,3.32,1.22,5.57s-.74,4.54-2.23,6.58c-1.49,2.04-3.74,3.67-6.77,4.89-3.02,1.22-6.82,1.83-11.38,1.83Z"/>
    <path class="cls-1" d="M741.05,1023.06c3.02,0,5.76.61,8.21,1.83,2.45,1.22,4.38,3.13,5.8,5.72,1.42,2.59,2.12,5.94,2.12,10.07v22.43h-16.27v-19.63c0-2.44-.43-4.18-1.3-5.21-.86-1.03-2.04-1.55-3.53-1.55-1.1,0-2.12.25-3.06.76-.94.5-1.68,1.33-2.23,2.48-.55,1.15-.83,2.71-.83,4.67v18.48h-16.27v-53.34h16.27v25.52l-3.89-3.31c1.54-2.97,3.61-5.2,6.23-6.69,2.62-1.49,5.53-2.23,8.75-2.23Z"/>
    <path class="cls-1" d="M785.98,1063.83c-4.8,0-8.99-.89-12.56-2.66-3.58-1.77-6.35-4.21-8.32-7.3-1.97-3.09-2.95-6.58-2.95-10.46s.97-7.5,2.92-10.57c1.94-3.07,4.61-5.46,7.99-7.19,3.38-1.73,7.19-2.59,11.41-2.59,3.89,0,7.48.77,10.76,2.3,3.29,1.53,5.93,3.81,7.92,6.83,1.99,3.02,2.99,6.76,2.99,11.22,0,.58-.02,1.21-.07,1.91-.05.7-.1,1.33-.14,1.91h-30.31v-7.84h21.67l-6.12,2.09c0-1.53-.28-2.84-.83-3.92-.55-1.08-1.31-1.92-2.27-2.52-.96-.6-2.11-.9-3.46-.9s-2.51.3-3.49.9c-.98.6-1.74,1.44-2.27,2.52-.53,1.08-.79,2.38-.79,3.92v2.44c0,1.68.33,3.12,1.01,4.31.67,1.2,1.63,2.1,2.88,2.7s2.76.9,4.54.9,3.32-.24,4.5-.72c1.18-.48,2.41-1.2,3.71-2.16l8.5,8.56c-1.92,2.06-4.28,3.63-7.09,4.71-2.81,1.08-6.18,1.62-10.12,1.62Z"/>
    <path class="cls-1" d="M811.25,1063.11v-53.34h16.27v53.34h-16.27Z"/>
    <path class="cls-1" d="M834.72,1063.11v-53.34h16.27v19.27l-.72,14.38-.07,14.38v5.32h-15.48ZM861,1063.83c-3.6,0-6.5-.72-8.71-2.16-2.21-1.44-3.8-3.67-4.79-6.69-.98-3.02-1.48-6.88-1.48-11.58s.53-8.47,1.58-11.47c1.05-3,2.7-5.22,4.93-6.69,2.23-1.46,5.05-2.19,8.46-2.19s6.62.82,9.5,2.44c2.88,1.63,5.18,3.97,6.91,7.01,1.73,3.04,2.59,6.67,2.59,10.89s-.86,7.85-2.59,10.89c-1.73,3.04-4.03,5.39-6.91,7.04-2.88,1.65-6.05,2.48-9.5,2.48ZM857.11,1051.17c1.2,0,2.28-.29,3.24-.86.96-.58,1.73-1.45,2.3-2.62.58-1.17.86-2.6.86-4.28s-.29-3.15-.86-4.28-1.34-1.98-2.3-2.55c-.96-.58-2.04-.86-3.24-.86s-2.28.29-3.24.86c-.96.57-1.73,1.43-2.3,2.55s-.86,2.55-.86,4.28.29,3.1.86,4.28c.58,1.17,1.34,2.05,2.3,2.62.96.58,2.04.86,3.24.86Z"/>
    <path class="cls-1" d="M897.58,1064.91l-17.14-41.12h16.7l11.81,30.63-11.38,10.5ZM893.76,1077.77c-2.16,0-4.36-.32-6.59-.97-2.23-.65-4.02-1.5-5.36-2.55l5.4-11.14c.82.62,1.74,1.13,2.77,1.51,1.03.38,2.03.58,2.99.58,1.44,0,2.54-.3,3.31-.9.77-.6,1.39-1.5,1.87-2.7l1.66-4.17,1.15-1.58,12.6-32.06h15.41l-16.2,40.12c-1.44,3.59-3.11,6.4-5,8.41-1.9,2.01-4.01,3.43-6.34,4.24-2.33.81-4.88,1.22-7.67,1.22Z"/>
    <path class="cls-1" d="M931.49,1063.11v-39.33h15.48v11.86l-2.52-3.38c1.2-3.07,3.12-5.37,5.76-6.9,2.64-1.53,5.81-2.3,9.5-2.3v14.38c-.72-.1-1.36-.17-1.91-.22-.55-.05-1.12-.07-1.69-.07-2.45,0-4.45.64-6.01,1.91-1.56,1.27-2.34,3.46-2.34,6.58v17.47h-16.27Z"/>
    <path class="cls-1" d="M985.13,1063.83c-4.46,0-8.41-.87-11.84-2.62-3.43-1.75-6.13-4.16-8.1-7.23-1.97-3.07-2.95-6.59-2.95-10.57s.98-7.5,2.95-10.57c1.97-3.07,4.67-5.46,8.1-7.19,3.43-1.73,7.38-2.59,11.84-2.59s8.42.86,11.88,2.59c3.46,1.72,6.16,4.12,8.1,7.19,1.94,3.07,2.92,6.59,2.92,10.57s-.97,7.5-2.92,10.57c-1.94,3.07-4.64,5.48-8.1,7.23-3.46,1.75-7.42,2.62-11.88,2.62ZM985.13,1051.17c1.2,0,2.28-.29,3.24-.86.96-.58,1.73-1.45,2.3-2.62.58-1.17.86-2.6.86-4.28s-.29-3.15-.86-4.28-1.34-1.98-2.3-2.55c-.96-.58-2.04-.86-3.24-.86s-2.28.29-3.24.86c-.96.57-1.73,1.43-2.3,2.55s-.86,2.55-.86,4.28.29,3.1.86,4.28c.58,1.17,1.34,2.05,2.3,2.62.96.58,2.04.86,3.24.86Z"/>
    <path class="cls-1" d="M1013.14,1063.11v-53.34h16.27v19.27l-.72,14.38-.07,14.38v5.32h-15.48ZM1039.42,1063.83c-3.6,0-6.5-.72-8.71-2.16-2.21-1.44-3.8-3.67-4.79-6.69-.98-3.02-1.48-6.88-1.48-11.58s.53-8.47,1.58-11.47c1.05-3,2.7-5.22,4.93-6.69,2.23-1.46,5.05-2.19,8.46-2.19s6.62.82,9.5,2.44c2.88,1.63,5.18,3.97,6.91,7.01,1.73,3.04,2.59,6.67,2.59,10.89s-.86,7.85-2.59,10.89c-1.73,3.04-4.03,5.39-6.91,7.04-2.88,1.65-6.05,2.48-9.5,2.48ZM1035.53,1051.17c1.2,0,2.28-.29,3.24-.86.96-.58,1.73-1.45,2.3-2.62.58-1.17.86-2.6.86-4.28s-.29-3.15-.86-4.28-1.34-1.98-2.3-2.55c-.96-.58-2.04-.86-3.24-.86s-2.28.29-3.24.86c-.96.57-1.73,1.43-2.3,2.55s-.86,2.55-.86,4.28.29,3.1.86,4.28c.58,1.17,1.34,2.05,2.3,2.62.96.58,2.04.86,3.24.86Z"/>
    <path class="cls-1" d="M1084.34,1063.83c-4.46,0-8.41-.87-11.84-2.62-3.43-1.75-6.13-4.16-8.1-7.23-1.97-3.07-2.95-6.59-2.95-10.57s.98-7.5,2.95-10.57c1.97-3.07,4.67-5.46,8.1-7.19,3.43-1.73,7.38-2.59,11.84-2.59s8.42.86,11.88,2.59c3.46,1.72,6.16,4.12,8.1,7.19,1.94,3.07,2.92,6.59,2.92,10.57s-.97,7.5-2.92,10.57c-1.94,3.07-4.64,5.48-8.1,7.23-3.46,1.75-7.42,2.62-11.88,2.62ZM1084.34,1051.17c1.2,0,2.28-.29,3.24-.86.96-.58,1.73-1.45,2.3-2.62.58-1.17.86-2.6.86-4.28s-.29-3.15-.86-4.28-1.34-1.98-2.3-2.55c-.96-.58-2.04-.86-3.24-.86s-2.28.29-3.24.86c-.96.57-1.73,1.43-2.3,2.55s-.86,2.55-.86,4.28.29,3.1.86,4.28c.58,1.17,1.34,2.05,2.3,2.62.96.58,2.04.86,3.24.86Z"/>
    <path class="cls-1" d="M1108.75,1037.8v-11.86h29.74v11.86h-29.74ZM1131.36,1063.83c-5.42,0-9.65-1.3-12.67-3.92-3.02-2.61-4.54-6.63-4.54-12.04v-32.93h16.27v32.78c0,1.2.32,2.13.97,2.8.65.67,1.45,1.01,2.41,1.01,1.39,0,2.62-.36,3.67-1.08l3.89,11.29c-1.25.72-2.75,1.25-4.5,1.58-1.75.33-3.59.5-5.51.5Z"/>
    <path class="cls-1" d="M1153.61,1020.62c-2.98,0-5.35-.79-7.13-2.37-1.78-1.58-2.66-3.55-2.66-5.89s.89-4.31,2.66-5.9c1.77-1.58,4.15-2.37,7.13-2.37s5.35.74,7.13,2.23c1.78,1.49,2.66,3.4,2.66,5.75,0,2.49-.89,4.54-2.66,6.15-1.78,1.61-4.15,2.41-7.13,2.41ZM1145.47,1063.11v-39.33h16.27v39.33h-16.27Z"/>
    <path class="cls-1" d="M1190.11,1063.83c-4.51,0-8.52-.86-12.02-2.59-3.5-1.73-6.25-4.13-8.24-7.23-1.99-3.09-2.99-6.62-2.99-10.6s1-7.5,2.99-10.57c1.99-3.07,4.74-5.46,8.24-7.19,3.5-1.73,7.51-2.59,12.02-2.59,4.8,0,8.9,1.03,12.31,3.09,3.41,2.06,5.76,4.91,7.06,8.56l-12.6,6.18c-.82-1.82-1.81-3.14-2.99-3.95-1.18-.81-2.46-1.22-3.85-1.22-1.2,0-2.32.29-3.35.86-1.03.57-1.85,1.43-2.45,2.55-.6,1.13-.9,2.55-.9,4.28s.3,3.16.9,4.31c.6,1.15,1.42,2.01,2.45,2.59s2.15.86,3.35.86c1.39,0,2.67-.41,3.85-1.22,1.18-.81,2.17-2.13,2.99-3.95l12.6,6.18c-1.3,3.64-3.65,6.5-7.06,8.56-3.41,2.06-7.51,3.09-12.31,3.09Z"/>
    <path class="cls-1" d="M1228.63,1063.83c-3.36,0-6.67-.36-9.94-1.08-3.26-.72-5.9-1.65-7.92-2.8l4.46-10.71c1.87,1.1,4.04,1.97,6.52,2.59,2.47.62,4.88.93,7.24.93,1.97,0,3.3-.17,4-.5.7-.33,1.04-.79,1.04-1.37s-.41-.99-1.22-1.26c-.82-.26-1.9-.47-3.24-.61-1.34-.14-2.82-.32-4.43-.54-1.61-.21-3.23-.54-4.86-.97-1.63-.43-3.12-1.08-4.46-1.94-1.34-.86-2.42-2.02-3.24-3.49-.82-1.46-1.22-3.32-1.22-5.57,0-2.49.76-4.75,2.27-6.76,1.51-2.01,3.77-3.63,6.77-4.85,3-1.22,6.71-1.83,11.12-1.83,2.88,0,5.76.26,8.64.79,2.88.53,5.35,1.34,7.42,2.44l-4.46,10.71c-2.02-1.1-4-1.86-5.94-2.26-1.94-.41-3.76-.61-5.44-.61-2.06,0-3.47.19-4.21.58s-1.12.81-1.12,1.29c0,.58.41,1.01,1.22,1.29.82.29,1.9.5,3.24.65,1.34.14,2.82.32,4.43.54,1.61.22,3.21.55,4.82,1.01,1.61.46,3.08,1.11,4.43,1.98,1.34.86,2.42,2.03,3.24,3.49.82,1.46,1.22,3.32,1.22,5.57s-.74,4.54-2.23,6.58c-1.49,2.04-3.74,3.67-6.77,4.89-3.02,1.22-6.82,1.83-11.38,1.83Z"/>
    <path class="cls-1" d="M1261.25,1063.83c-2.69,0-4.94-.87-6.77-2.62-1.82-1.75-2.74-3.99-2.74-6.72s.91-5.01,2.74-6.69c1.82-1.68,4.08-2.52,6.77-2.52s4.94.84,6.77,2.52c1.82,1.68,2.74,3.91,2.74,6.69s-.91,4.97-2.74,6.72c-1.82,1.75-4.08,2.62-6.77,2.62Z"/>
    <path class="cls-1" d="M1296.96,1063.83c-4.51,0-8.52-.86-12.02-2.59-3.5-1.73-6.25-4.13-8.24-7.23-1.99-3.09-2.99-6.62-2.99-10.6s1-7.5,2.99-10.57c1.99-3.07,4.74-5.46,8.24-7.19,3.5-1.73,7.51-2.59,12.02-2.59,4.8,0,8.9,1.03,12.31,3.09,3.41,2.06,5.76,4.91,7.06,8.56l-12.6,6.18c-.82-1.82-1.81-3.14-2.99-3.95-1.18-.81-2.46-1.22-3.85-1.22-1.2,0-2.32.29-3.35.86-1.03.57-1.85,1.43-2.45,2.55-.6,1.13-.9,2.55-.9,4.28s.3,3.16.9,4.31c.6,1.15,1.42,2.01,2.45,2.59s2.15.86,3.35.86c1.39,0,2.67-.41,3.85-1.22,1.18-.81,2.17-2.13,2.99-3.95l12.6,6.18c-1.3,3.64-3.65,6.5-7.06,8.56-3.41,2.06-7.51,3.09-12.31,3.09Z"/>
    <path class="cls-1" d="M1340.88,1063.83c-4.46,0-8.41-.87-11.84-2.62-3.43-1.75-6.13-4.16-8.1-7.23-1.97-3.07-2.95-6.59-2.95-10.57s.98-7.5,2.95-10.57c1.97-3.07,4.67-5.46,8.1-7.19,3.43-1.73,7.38-2.59,11.84-2.59s8.42.86,11.88,2.59c3.46,1.72,6.16,4.12,8.1,7.19,1.94,3.07,2.92,6.59,2.92,10.57s-.97,7.5-2.92,10.57c-1.94,3.07-4.64,5.48-8.1,7.23-3.46,1.75-7.42,2.62-11.88,2.62ZM1340.88,1051.17c1.2,0,2.28-.29,3.24-.86.96-.58,1.73-1.45,2.3-2.62.58-1.17.86-2.6.86-4.28s-.29-3.15-.86-4.28-1.34-1.98-2.3-2.55c-.96-.58-2.04-.86-3.24-.86s-2.28.29-3.24.86c-.96.57-1.73,1.43-2.3,2.55s-.86,2.55-.86,4.28.29,3.1.86,4.28c.58,1.17,1.34,2.05,2.3,2.62.96.58,2.04.86,3.24.86Z"/>
    <path class="cls-1" d="M1421.01,1023.06c2.98,0,5.65.61,8.03,1.83,2.38,1.22,4.25,3.13,5.62,5.72,1.37,2.59,2.05,5.94,2.05,10.07v22.43h-16.27v-19.63c0-2.44-.41-4.18-1.22-5.21-.82-1.03-1.87-1.55-3.17-1.55-.96,0-1.82.24-2.59.72-.77.48-1.38,1.23-1.84,2.26-.46,1.03-.68,2.43-.68,4.21v19.2h-16.27v-19.63c0-2.44-.38-4.18-1.15-5.21s-1.85-1.55-3.24-1.55c-.96,0-1.83.24-2.59.72-.77.48-1.38,1.23-1.84,2.26-.46,1.03-.68,2.43-.68,4.21v19.2h-16.27v-39.33h15.48v11.29l-3.17-3.16c1.49-2.97,3.48-5.19,5.98-6.65,2.5-1.46,5.28-2.19,8.35-2.19,3.46,0,6.52.9,9.18,2.7s4.45,4.64,5.36,8.52l-4.97-.79c1.44-3.26,3.54-5.81,6.3-7.66,2.76-1.85,5.96-2.77,9.61-2.77Z"/>
    <path class="cls-1" d="M1437.28,1070.3l23.76-67.72h14.4l-23.76,67.72h-14.4Z"/>
    <path class="cls-1" d="M1485.09,1063.11l-13.68-39.33h15.41l10.37,31.92h-7.42l10.87-31.92h13.82l10.37,31.92h-7.2l10.73-31.92h14.26l-13.68,39.33h-15.84l-8.28-25.31h4.75l-8.64,25.31h-15.84Z"/>
    <path class="cls-1" d="M1558.46,1063.83c-3.22,0-5.9-.55-8.06-1.65s-3.79-2.58-4.9-4.42c-1.1-1.84-1.66-3.89-1.66-6.15,0-2.54.65-4.7,1.94-6.47,1.3-1.77,3.28-3.12,5.94-4.03s6.04-1.37,10.12-1.37h8.21v7.84h-5.62c-1.73,0-2.99.28-3.78.83-.79.55-1.19,1.38-1.19,2.48,0,.91.35,1.67,1.04,2.26.7.6,1.64.9,2.84.9,1.1,0,2.12-.3,3.06-.9.94-.6,1.62-1.55,2.05-2.84l2.09,4.82c-.62,2.92-1.94,5.1-3.96,6.54-2.02,1.44-4.73,2.16-8.14,2.16ZM1569.62,1063.11v-6.97l-1.15-1.87v-13.23c0-1.92-.59-3.38-1.76-4.39-1.18-1.01-3.08-1.51-5.72-1.51-1.78,0-3.58.28-5.4.83s-3.38,1.31-4.68,2.26l-5.18-10.71c2.3-1.44,5.06-2.54,8.28-3.31s6.36-1.15,9.43-1.15c6.77,0,12.01,1.51,15.73,4.53s5.58,7.81,5.58,14.38v21.14h-15.12Z"/>
    <path class="cls-1" d="M1588.19,1037.8v-11.86h29.74v11.86h-29.74ZM1610.8,1063.83c-5.42,0-9.65-1.3-12.67-3.92-3.02-2.61-4.54-6.63-4.54-12.04v-32.93h16.27v32.78c0,1.2.32,2.13.97,2.8.65.67,1.45,1.01,2.41,1.01,1.39,0,2.62-.36,3.67-1.08l3.89,11.29c-1.25.72-2.75,1.25-4.5,1.58-1.75.33-3.59.5-5.51.5Z"/>
    <path class="cls-1" d="M1646.08,1063.83c-4.51,0-8.52-.86-12.02-2.59-3.5-1.73-6.25-4.13-8.24-7.23-1.99-3.09-2.99-6.62-2.99-10.6s1-7.5,2.99-10.57c1.99-3.07,4.74-5.46,8.24-7.19,3.5-1.73,7.51-2.59,12.02-2.59,4.8,0,8.9,1.03,12.31,3.09,3.41,2.06,5.76,4.91,7.06,8.56l-12.6,6.18c-.82-1.82-1.81-3.14-2.99-3.95-1.18-.81-2.46-1.22-3.85-1.22-1.2,0-2.32.29-3.35.86-1.03.57-1.85,1.43-2.45,2.55-.6,1.13-.9,2.55-.9,4.28s.3,3.16.9,4.31c.6,1.15,1.42,2.01,2.45,2.59s2.15.86,3.35.86c1.39,0,2.67-.41,3.85-1.22,1.18-.81,2.17-2.13,2.99-3.95l12.6,6.18c-1.3,3.64-3.65,6.5-7.06,8.56-3.41,2.06-7.51,3.09-12.31,3.09Z"/>
    <path class="cls-1" d="M1696.55,1023.06c3.02,0,5.76.61,8.21,1.83,2.45,1.22,4.38,3.13,5.8,5.72,1.42,2.59,2.12,5.94,2.12,10.07v22.43h-16.27v-19.63c0-2.44-.43-4.18-1.3-5.21-.86-1.03-2.04-1.55-3.53-1.55-1.1,0-2.12.25-3.06.76-.94.5-1.68,1.33-2.23,2.48-.55,1.15-.83,2.71-.83,4.67v18.48h-16.27v-53.34h16.27v25.52l-3.89-3.31c1.54-2.97,3.61-5.2,6.23-6.69,2.62-1.49,5.53-2.23,8.75-2.23Z"/>
  </g>
  <g>
    <path class="cls-5" d="M873.18,127.01c2.57,1.43,5.13,2.85,7.7,4.28.09.05.16.14.24.2,2.37,1.94,4.47,4.59,7.19,5.65,3.63,1.41,3.85-3.84,6.59-4.61,1.19,2.52,2.39,5.05,3.59,7.58.45-.08.9-.17,1.34-.26.32-1.8.84-3.59.92-5.39.21-4.34,1.5-5.64,5.85-5.54,1.58.04,3.16,0,5.26,0-.6-1.44-1.25-2.6-1.57-3.85-.52-2.04-.68-4.18-1.28-6.2-.27-.89-1.18-2.2-1.9-2.26-5.9-.52-11.83-.89-17.75-1.02-.7-.02-1.86,1.55-2.06,2.53-.34,1.73-.1,3.57-.72,5.38,0-1.16-.03-2.32,0-3.48.14-4.11-.56-4.88-4.49-5.17-5.77-.43-11.54-.95-17.17-1.42,1.97-1.07,4.05-2.19,6.1-3.3.1,1.91,1.8,3.01,4.34,3.25,6.38.59,12.76,1.25,19.14,1.88.13-.33.27-.67.4-1-1.97-1.23-3.92-2.48-5.91-3.69-1.45-.88-2.9-1.76-4.41-2.53-2.3-1.16-3.35-2.81-2.2-5.78-3.81-.59-7.42-1.15-11.03-1.7l.11-.85c2.73.33,5.46.89,8.2.9,1.3,0,3.41-.73,3.75-1.66,1.09-2.89,1.52-6.04,2.25-9.3-9.25-1.54-18.09-3.01-26.92-4.48.05-.32.1-.64.14-.96,2.63.34,5.26.61,7.87,1.04,2.37.39,3.22-.62,3.42-2.91.22-2.56.79-5.08,1.21-7.62-.18,1.47-.46,2.93-.54,4.41-.3,6.13.98,7.63,7.12,8.49.21.03.43,0,.64.04,4.84.82,9.68,1.63,14.52,2.45-.03.21-.06.42-.09.63h-5.44s11.04,11.12,17.28,16.64v-3.44c2.41.31,4.69.73,7,.82.89.04,1.81-.65,2.71-1-.71-.76-1.33-2.04-2.15-2.19-2.5-.46-3.73-1.87-4.77-4.07-1.59-3.38-4.24-5.69-7.43-5.82.16-3.21.21-6.22.5-9.19.22-2.22-.85-2.98-2.78-3.35-5.4-1.02-10.76-2.23-16.17-3.15-3.48-.6-7.02-.83-10.53-1.22.03-1.47.52-2.04,2.18-1.61,3.26.85,6.57,1.57,9.9,2.07.89.13,2.4-.43,2.81-1.14,2.41-4.13.01-9.85-4.52-11.1-2.89-.8-5.81-1.49-8.57-2.86,9.01,2.16,27.65,6.62,27.65,6.62v-7.19c.96,8.62.56,6.99,9.53,9.33,4.07,1.06,8.24,1.78,12.34,2.74,3.9.91,4.18.74,4.23-3.28,0-.52,0-1.05,0-1.48.57,1.87.64,4.31,1.89,5.56,1.33,1.33,3.75,1.65,5.75,2.23,2.61.75,5.26,1.31,8.02,2.17-4.66-.51-2.58,3.12-3.41,5.27-.13-1.08-.32-1.88-.29-2.67.09-2.28-.84-3.4-3.19-3.9-5.77-1.22-11.48-2.73-17.21-4.12-1.95-.48-3.11.07-3.04,2.31.05,1.38-.07,2.77.04,4.15.29,3.87,1.16,4.57,5.5,4.37.12-1.28.25-2.6.47-4.85,1.56,2.35,2.38,4.52,3.94,5.68,1.58,1.17,3.9,1.35,6.1,2.03.32-1.1.55-1.93.81-2.83,3.24,2.64,3.97,7.57,8.87,9.33v-12.03c2.79,1.94,5.07,3.48,7.31,5.09,2.04,1.46,3.9,3.36,6.81,2.28.35-.13,1.08.18,1.35.52,1.3,1.59,2.5,3.26,3.88,5.11-1.07.71-2.09,1.39-3.4,2.25-.18-1.22-.33-2.16-.47-3.1-.33-.03-.66-.05-1-.08-.29,2.31-.79,4.63-.8,6.95-.02,2.75,2.08,3.1,4.26,3.05,2.45-.06,2.14-1.8,2.03-3.42-.02-.3.08-.62.26-1.74,2.01,4.67,4.43,8.14,8.87,9.67.57.2.65,1.82,1.08,3.16,4.51-.52,9.33-.97,14.13-1.64,8.05-1.12,16.08-2.35,24.11-3.56,3.02-.46,4.46,1.69,6.66,3.89-15.48,3.41-30.7,2.76-45.95,3.31.36.13.71.31,1.08.39.5.1,1.02.13,1.94.23-1.58,3.43-3.05,6.64-4.76,10.35,5.33.53,9.71.97,14.09,1.4-.02.2-.03.4-.05.6-1-.08-2.18-.52-2.96-.14-.82.4-1.26,1.58-1.55,1.97-.77-.75-1.88-1.84-3.44-3.38-.63,1.82-.91,2.63-1.25,3.59-1.47-.62-2.79-1.18-4.11-1.73-.16.14-.31.27-.47.41,1.84,2.59,3.68,5.19,5.81,8.19h-4.32c-.24.44-.3.54-.54.98,3.05,4.97,8.91,7.04,12.57,10.93-1.78,1.2-3.34,2.71-5.21,3.42-4.53,1.72-6.76-2.27-9.7-4.42-.58-.42-.84-1.4-1.44-1.65-1-.42-2.27-.83-3.23-.55-.72.21-1.41,1.46-1.59,2.35-.27,1.33-.33,2.82-.01,4.12.32,1.31.98,3.21,1.92,3.52,1.13.37,2.73-.65,4.1-1.13.33-.12.56-.51,1.16-1.08.37,2.45.86,4.5.95,6.56.19,4.68-1.34,6.33-5.97,6.41-2.52.04-3.41,1.1-3.07,3.54.27,1.92-.19,3.1-2.07,4.58-2.22,1.75-3.19,5.09-5.06,8.37,3.35,1.06,6.25,2.15,9.25,2.81.7.15,2.02-.97,2.54-1.82,1.15-1.89,1.97-3.99,3.74-6.2.76,2.08,1.52,4.15,2.44,6.65h5.09c.02.18.04.37.06.55-1.38.23-2.85.24-4.1.76-1.01.42-2.06,1.33-2.48,2.3-.18.41,1.03,1.92,1.86,2.22,11.52,4.18,23.09,8.2,34.61,12.37,1.36.49,2.48,1.63,4.21,2.8-13.5,1.03-23.06-6.64-33.67-11.4-2.2-.99-4.32-2.17-6.48-3.26-.26.16-.52.32-.77.48.66,1.34,1.31,2.68,1.98,4.04-7.99,3.04-15.95,2.32-23.08-4.69-.31,5.85,2.02,9.85,6.13,11.88,2.28,1.12,4.51,2.37,6.62,3.78.87.58,1.36,1.72,2.02,2.6-1.66.68-2.03,3.92-4.66,2.58-5.17-2.63-10.43-2-15.76-.81-2.11.47-3.46,1.35-3.19,3.86.26,2.42.25,4.88.37,7.51-2.41.26-4.16,1.82-5.34,4.56-.65,1.5-2.44,2.52-3.74,3.73-1.34,1.24-2.71,2.44-4.34,3.91-1.93-1.06-5.27-1.56-5.44-5.63-.02-.52-1.8-1.51-2.6-1.37-3.41.61-6.77,1.54-10.14,2.39-.51.13-1.07.3-1.44.64-1.42,1.31-4.46-.52-4.93,2.45-.3,1.87-.31,3.79-.45,5.69-.06.84-.11,1.67-.63,2.51,0-2.12-.06-4.25.02-6.36.09-2.44-1.08-3.36-3.35-2.85-7.71,1.74-15.41,3.54-23.11,5.34-2.43.57-3.43,2.03-3.2,4.62.23,2.58.05,5.19.05,7.79-.34.01-.67.02-1.01.03,0-2.53.04-5.06,0-7.58-.06-3.12-.84-3.69-3.94-2.99-2.38.54-4.75,1.08-7.28.93,7.86-1.81,15.7-3.7,23.59-5.37,3.04-.64,4.38-2.1,4.1-5.25-.2-2.29-.04-4.62-.04-7.5-9.99,1.88-19.44,3.67-28.89,5.45-.08-.34-.15-.67-.23-1,2.03-.43,4.09-.75,6.07-1.34,2.04-.61,5.32-1.06,5.72-2.32.96-2.97.61-6.39.53-9.63-.01-.37-1.74-1.05-2.63-.98-2.96.22-5.91.71-8.96.39,5.53-.91,11.05-1.83,16.58-2.72,2.81-.46,5.7-.63,8.42-1.41,1.29-.37,3.05-1.73,3.23-2.87.46-2.85.15-5.83.15-9.14-10.88,1.27-21.16,2.47-31.45,3.67l-.13-1c3.53-.46,7.06-1.01,10.61-1.35,3.47-.33,4.43-1.22,4.53-4.76.22-7.66-.07-8.08-7.66-7.59-6.23.4-12.43,1.19-18.65,1.73-1.68.15-3.39.02-5.08.02v-.92c3-.23,6.01-.49,9.01-.67,4.22-.26,5.21-1.25,5.22-5.39,0-5.1-2.56-7.64-7.7-7.61-2.62.01-5.23,0-7.86-.53,8.59-.38,17.17-.85,25.76-1.12,6.43-.2,9.22-4.72,6.46-10.73-1.14-2.49-3.46-2.17-5.49-2.14-7.96.09-15.91.32-23.87.49-1.01.02-2.01,0-3.02,0-.03-.27-.06-.54-.08-.81.71-.13,1.42-.37,2.13-.38,2.66-.05,5.32.04,7.97-.05,1.36-.05,2.98.04,4.01-.65,3.23-2.17,1.45-5.65,1.54-8.53.03-1.19-1.51-3.23-2.66-3.5-2.84-.67-5.87-.58-8.82-.73-1.55-.08-3.1-.01-4.65-.01,0-.33-.02-.66-.03-.99,2.08,0,4.16-.04,6.24,0,7.85.18,15.7.47,23.55.5,1.1,0,3.05-1.07,3.17-1.87.46-3,.46-6.1.28-9.14-.03-.46-1.86-1.11-2.9-1.18-5.17-.35-10.36-.54-15.52-1.26,7.31-.95,14.56-.56,21.76,1.29-.67.89-1.76,1.7-1.94,2.68-.32,1.74-.11,3.58-.11,5.38,0,5.02,1.65,6.03,6.64,3.95.24-4.7-.97-8.86-4.68-12.08h0ZM902.05,201.74c.13.36.26.73.39,1.09-.81.25-1.61.65-2.43.7-1.01.06-2.07-.38-3.06-.23-5.85.86-11.66,1.96-17.52,2.74-9.61,1.29-8.15.8-8.22,9.68-.02,2.84,1.26,3.74,4.11,3.21,5.49-1.03,10.98-2.13,16.48-3.09,4.31-.75,8.68-1.31,7.54-7.79,2.03.86,3.64,1.4,5.1,2.2,1.98,1.08,3.5.66,4.6-1.16,4.3-7.06,8.57-14.14,12.76-21.27.41-.69.55-2.35.24-2.51-.91-.5-2.28-.91-3.15-.56-1.95.78-3.61,2.27-5.55,3.06-2.71,1.11-5.57,1.84-8.82,2.88.39-4.07-.67-6.39-3.45-7.87-.7-.37-1.24-1.14-1.71-1.83-1.52-2.23-3.49-2.92-6.53-1.78,1.01,2.68,1.51,5.67,3.13,7.82,1.61,2.13,4.35,3.4,6.78,5.19-.8,2.23-3.43,2.78-5.92,3.7-3.62,1.34-6.49.32-9.07-2.68-.31,2.78-.44,5.19-.27,7.57.14,1.86,1.22,2.75,3.28,2.43,3.74-.6,7.51-1.01,11.27-1.5h0ZM869.33,152.73h0c3.92-.01,7.87.29,11.75-.15,1.73-.19,3.57-1.6,4.81-2.96.57-.63.29-3.15-.42-3.63-2.83-1.92-5.82-4.24-9.04-4.81-5.25-.94-10.73-.71-16.12-.81-6.08-.12-6.65.55-6.35,6.65.04.84.19,1.68.32,2.52.35,2.22,1.59,3.27,3.92,3.21,3.71-.09,7.42-.03,11.12-.03h0ZM854.28,174.47h-.03c0,1.17-.09,2.34.02,3.5.19,1.97,1.12,3.05,3.33,2.82,8.5-.88,17-1.75,25.51-2.48,2.47-.21,3.27-1.69,3.55-3.71.31-2.26-1.23-2.7-3.06-3.17-2.32-.6-5.12-.48-6.3-3.46-.21-.52-1.67-.79-2.54-.77-5.71.14-11.43.22-17.11.75-1.21.11-2.54,1.81-3.29,3.09-.51.87-.1,2.27-.1,3.44h0ZM887.34,70.34c0,6.03.03,6.02,5.92,7.08,4.76.85,9.55,1.62,14.24,2.76,7.73,1.87,7.27,1.64,7.37-6.12.03-2.45-.89-3.51-3.35-4.04-6.78-1.45-13.49-3.24-20.23-4.85-3.14-.75-3.82-.21-3.94,2.94-.03.74,0,1.48,0,2.22h0ZM900.53,175.49c2.93,2.95,6.21,1.59,9.25,1.21,1.12-.14,3.03-1.61,2.98-2.36-.24-3.21,1.69-6.81-1.36-9.59-.13-.12-.41-.15-.61-.13-3.04.22-6.42-.3-9.05.86-4.69,2.08-8.98,5.11-13.32,7.91-.69.44-.98,1.78-1.06,2.74-.04.44.91,1.4,1.36,1.37,3.93-.21,8.14,1.36,11.81-2.02h0ZM891.73,179.99l-.52-.67c-.69-.05-1.38-.18-2.05-.14-3.48.21-6.95.58-10.42.68-7.69.22-8.77,1.47-7.58,9.08.05.31-.1.77.07.93.86.84,1.82,2.31,2.69,2.28,4.31-.17,8.62-.58,12.87-1.32.92-.16,2.4-2.32,2.15-3.07-1.12-3.33-.52-5.86,2.8-7.76h0ZM918.64,218.78c2.18-1.7,3.92-3.06,5.77-4.5.73.96,1.59,2.02,2.37,3.14,1.63,2.33,3.74,2.78,6.39,1.97,5.33-1.63,7.37-5.66,5.17-10.94-.36-.86-1.75-1.29-2.66-1.92l-.64.83c.59.94,1.18,1.89,2.15,3.45-1.34,0-2.63.3-2.83-.05-1.37-2.33-3.45-1.91-5.34-1.37-2.51.72-4.6.58-6.88-.92-2.74-1.8-4.14-1.13-5.69,2.34,1.7-.19,3.19-.36,5.03-.57-6.89,3.6-7.07,4.03-5.19,12.2,1.59-.3,3.2-.61,4.81-.91.07-.31.15-.62.22-.93-.95-.64-1.9-1.28-2.69-1.82h0ZM915,99.97c.49-.1.97-.2,1.46-.29.48-1.1.93-2.22,1.47-3.3.35-.71.76-1.41,1.26-2.02.88-1.05,2.03-1.91,2.73-3.06.88-1.44,1.43-3.09,2.31-5.06,2.1,8.9,2.14,8.94,6.55,7.94-.09-.71.03-1.55-.31-2.12-1.4-2.34-2.92-4.61-4.46-6.86-.18-.26-.77-.27-1.18-.35-4.35-.86-8.69-1.78-13.06-2.56-2.72-.48-3.46.39-2.66,3.08.84,2.83,1.71,5.66,2.79,8.4.85,2.14,2.05,4.14,3.1,6.21h0ZM899.52,226.62c-.31-1.91-.82-3.44-.75-4.94.39-7.6-.54-6-6.44-5.15-2.2.32-4.32,1.12-4.7,3.54-.36,2.37-.28,4.85-.02,7.24.07.61,1.62,1.63,2.33,1.5,3.29-.57,6.53-1.47,9.57-2.19h0ZM905.07,161.05c-2.53-3.78-4.81-6.71-6.55-9.94-1.28-2.39-2.81-3.59-5.52-4.02-2.27-.36-2.74.53-2.62,2.29.18,2.63.33,5.3.92,7.86.26,1.12,1.45,2.7,2.42,2.86,3.5.58,7.08.64,11.35.95ZM879.75,154.51c-6.96-2-8.96-.52-8.65,5.75.06,1.27-.1,2.6.24,3.79.23.8,1.07,1.83,1.81,2,3.23.73,4.1-.15,4.13-3.57.02-2.75-1.16-5.83,2.47-7.97h0ZM901.64,80.2c.77,3.96-.92,7.69,1.38,11.45,1.76-3.6,3.3-6.75,4.95-10.14-1.75-.36-3.76-.78-6.34-1.32ZM908.48,223.95c2.12-.36,3.86-.13,4.63-.89,2.34-2.28,1.83-5.25.77-8.35-1.62,2.77-3.23,5.53-5.4,9.24ZM945.66,199.46c-1.67,2.34-2.98,4.17-4.61,6.44,1.72-.13,2.84-.14,3.93-.33,1.19-.21,2.35-.59,3.92-.99-1.08-1.71-2-3.17-3.23-5.12h0Z"/>
    <path class="cls-5" d="M960.66,37.96c2.06,2.6,3.98,4.99,5.86,7.41.38.49.65,1.08,1.32,2.22-8.96,4.89-17.82,9.8-26.79,14.49-.94.49-2.98.17-3.75-.56-2.06-1.96-3.8-4.28-5.47-6.6-1.04-1.43-.32-2.47,1.22-3.23,9.11-4.49,18.19-9.04,27.6-13.73h0Z"/>
    <path class="cls-5" d="M947.22,235.53c5.49.97,11.17,1.36,16.39,3.13,3.41,1.15,6.24,4.2,9.12,6.65.53.45.28,2.13-.01,3.12-.21.73-.99,1.38-1.67,1.87-2.43,1.78-3.54,6.67-7.96,3.88-2.76-1.74-6.21-3.02-6.88-7-.1-.59-1.02-1.39-1.65-1.47-4.46-.59-6.57-4.43-9.66-6.88-.47-.37-.6-1.87-.24-2.44.48-.75,1.59-1.1,2.43-1.63.04.25.08.51.13.77h0Z"/>
    <path class="cls-5" d="M985.16,81.51c-.75,1.68-1.52,3.34-2.26,5.03-.85,1.97-1.23,4.1-3.93,4.83-.88.24-1.38,2.41-1.76,3.79-.62,2.26-1.65,2.18-3.11.81-.15-.14-.3-.3-.45-.45-1.61-1.7-5.41-15.45-4.91-18.01,5.57,1.05,11.15,2.09,16.73,3.15.31.06.74.11.88.32,2.07,3.23,5.83,5.46,6.18,9.83-4.23.77-5.19.02-5.62-3.88-.19-1.75-.59-3.48-.89-5.22-.29-.07-.57-.13-.86-.2h0Z"/>
    <path class="cls-5" d="M1017.71,48.61c-1.01,4.27-3.78,6.7-7.95,7.64-11.21,2.51-22.4,5.11-33.64,7.46-5.57,1.16-11.23,1.82-17.17,2.75,19.82-6.02,39.31-11.94,58.76-17.84h0Z"/>
    <path class="cls-5" d="M949.85,218.42c6.91,2.53,13.8,5.08,20.72,7.57,3.87,1.39,7.71,2.95,11.69,3.92,3.62.88,5.05,2.92,4.88,7.36-12.77-6.14-25.2-12.11-37.63-18.08l.34-.77h0Z"/>
    <path class="cls-5" d="M984.38,152.28h-12.09c3.82-1.8,7.96-.51,12.09,0Z"/>
    <path class="cls-8" d="M1031.28,155.54c1.27-.73,2.34-1.35,3.36-1.93,4.51,4.07,4.94,3.96,7.28-1.64,2.26-.28,4.46-.78,4.43,2.89,0,1.45,2.94,2.03,4.09.81,1.12-1.18,1.8-2.49,3.87-1.25,1.87,1.13,1.25,2.26.83,3.72-.52,1.8,1.18,3.51,3.02,3.23,2.19-.34,3.59.3,4.21,1.91-.86,2.15-2.1,3.79-1.9,5.24.14,1.02,2.23,1.78,4.01,3.07v2.36c-1.68,1.28-3.69,2.05-4.04,3.29-.34,1.22,1.02,2.91,1.96,5.2-.46,1.06-.76,3.53-4.1,1.87-.61-.3-2.05.29-2.6.91-.51.58-.29,1.77-.48,2.67-.22,1.04-.23,2.32-.87,3.02-1.08,1.2-2.28,1.01-3.44-.4-.58-.71-2.08-1.34-2.81-1.06-.85.32-1.24,1.74-1.98,2.54-.68.74-1.53,1.77-2.36,1.81-.81.04-2.13-.81-2.45-1.58-1.45-3.61-2.47-3.79-5.45-1.49-.23.18-.53.27-.87.31-1.83.21-3.36-1.43-3.1-3.26.37-2.65-.33-3.57-2.57-3.39-1.95.16-3.82-.77-4.84-2.44l-.06-.1c4.04-5,3.82-5.96-1.69-7.09-.31-2.08-1.46-4.45,2.44-4.53.59-.01,1.48-1.04,1.65-1.73.19-.82.04-2.05-.48-2.64-.97-1.1-2.28-1.72-1.23-3.62.99-1.78,2.02-1.59,3.66-1.08.82.25,2.17-.39,2.92-1.04.46-.4.32-1.6.27-2.42-.04-.6-.37-1.19-.7-2.15h0ZM1043.63,163.49c-5.45.03-9.53,4.08-9.45,9.39.08,5.21,4.41,9.33,9.72,9.25,5.25-.08,9.14-4.05,9.16-9.36.02-5.46-3.89-9.31-9.43-9.28h0Z"/>
    <path class="cls-5" d="M1052.72,205.78c-.16-.01-.3.08-.36.22-1.26,2.96-3.04,5.37-6.49,6.02-.41.08-.94.66-1.02,1.08-.55,2.9-2.5,4.29-5.13,5.02-.31.08-.9.14-.9.2.05,3.87-3.8,4.36-5.69,6.53-.44.51-1.33.79-2.04.84-.01,0-.03,0-.05,0l-.35,1.85c1.08.48,2.18.97,3.31,1.47.16.07.35.02.45-.13.83-1.2,1.5-2.29,2.32-3.26,2.97-3.54,6.57-3.36,9.2.4,3.45,4.94,2.97,14.57-.97,19.11-3.03,3.5-6.99,3.41-9.61-.4-.92-1.35-1.77-3.06-1.81-4.63-.1-4.25-1.58-7.09-6.17-7.62-.1-.01-.21.02-.28.09-4.14,3.55-6.7,2.63-8.56-2.84-.46-1.34-2.14-2.26-3.84-3.73-.21-.18-.54-.08-.6.19-.49,2.06-.72,3.44-1.2,4.73-.76,2.07-1.5,4.2-2.67,6.05-2.02,3.21-4.78,5.58-8.93,4.79-3.98-.76-6.16-3.73-7.25-7.3-2.24-7.34-1.19-14.44,2.55-21.08,1.59-2.83,3.74-5.27,7.45-5.16,3.75.11,5.93,2.52,7.52,5.56.73,1.4,1.61,2.92,1.67,4.41.12,2.83,1.8,3.5,4.75,4.14.28.06.52-.21.43-.48-.62-1.79-1.08-3.13-1.55-4.48-.07-.19-.37-.4-.33-.52,1.38-4.58-3.21-8.2-2.04-12.75.11-.44-.03-.99-.18-1.44-.89-2.72-1.81-5.42-2.72-8.13-.05-.16,0-.34.15-.43.02-.01.05-.03.07-.05.26-.16.21-.55-.07-.66-.82-.29-1.64-.59-2.44-.91-4.85-1.94-7.33-6.83-5.89-11.86,2.16-7.51,4.42-14.99,6.63-22.49.92-3.13.13-4.41-3.02-3.65-3.28.79-6.39,2.45-9.46,3.96-1.25.61-2.25,1.71-3.44,2.73-.17.15-.17.42.01.56,1.18.93,2.44,1.8,3.45,2.89,1.6,1.74,1.85,3.85.35,5.74-.44.55-1.46.62-2.33.83-.2.05-.39-.08-.44-.28-.19-.87-.55-1.79-.29-2.49,1.36-3.64.32-5.4-3.61-5.7-.52-.04-1.23.04-1.53-.25-1.67-1.64-3.04-1.07-4.25.49-1.24,1.61-1.01,3.14.49,4.51.19.17.32.41.74,1.04.14.21.03.5-.21.56-1.19.31-2.33.81-2.83.44-.92-.69-1.73-2.08-1.82-3.23-.21-2.72,1.47-4.22,5.79-5.71.14-.05.24-.17.25-.32.25-3.59-.03-7.33.96-10.69,1.99-6.8,5.62-12.39,13.13-14.66,4.63-1.39,9.07-2.77,13.93-1.43.62.17,1.77-.17,2.13-.67,3.52-4.82,8.11-5.24,13.32-3.49.63.21,1.28.34,1.78.45.19.04.37-.07.43-.26.83-2.8,1.62-5.48,2.52-8.53.06-.19-.05-.39-.24-.45-2.29-.74-5-1.6-7.7-2.49-5.52-1.83-8.28-5.47-8.76-11.19-.08-.96-.74-2.21-1.52-2.73-6.15-4.02-8.34-9.84-7.24-16.77.99-6.22,4.85-10.38,10.83-12.62,1.06-.4,2.19-1.63,2.53-2.72,3.14-9.98,6.16-20,9.08-30.04.3-1.03.01-2.47-.5-3.46-1.59-3.05-1.14-5.64,1.53-7.1,2.35-1.29,5.43-.37,6.57,1.95,1.29,2.65,0,5.38-3.13,6.81-.68.31-1.52.93-1.72,1.58-3.2,10.36-6.32,20.75-8.93,31.86-.07.28.21.53.48.43.91-.34,1.9-.6,2.44-1.25,3.86-4.57,8.61-5.39,14.06-3.76,17.1,5.12,34.18,10.28,51.29,15.36,5.59,1.66,8.72,5.26,9.6,11.02.11.75.66,1.43,1.15,2.12l1.56-.26c2.12-6.93,4.24-13.85,6.34-20.79.73-2.43,1.3-4.91,2.12-7.3.76-2.22,1.49-4.07-.36-6.39-1.67-2.1-.29-5.29,2.13-6.43,2.32-1.11,5.01-.22,6.22,2.06,1.31,2.45.58,5.42-2.06,6.42-2.13.81-2.73,2.21-3.29,4.11-2.82,9.52-5.82,18.99-8.56,28.54-.36,1.25-.04,3.11.7,4.19,3.9,5.71,4.38,11.68,1.34,17.73-3,5.95-8.32,8.43-14.82,8.81-.94.05-2.13.66-2.72,1.4-3.5,4.41-8,5.92-13.55,4.34-2.68-.76-5.35-1.53-8.16-2.33-.23-.06-.45.1-.47.33-.1,1.66-.05,3.16-.44,4.51-.39,1.34-1.23,2.55-2,3.93-.11.2-.01.45.2.53,1.43.49,2.77.95,4.12,1.4,4.27,1.41,6.81,4.26,6.86,8.84.02,2.04,1.3,2.32,2.71,2.89,7.52,3.02,14.15,12.21,13.91,19.33-.2,5.87-1.08,11.5-5.31,16.12-.59.65-.26,2.35-.04,3.5.36,1.91,1.39,3.8,1.3,5.65-.05,1.01-1.68,2.36-2.86,2.77-.63.22-1.52-.28-2.38-.72l.12-1.76c.61-.21,1.22-.43,1.56-.86.83-1.06,1.8-2.46,1.71-3.63-.07-.84-1.73-1.63-2.77-2.28-.59-.37-1.43-.3-2.07-.62-3.47-1.76-5.2-.88-5.94,2.83-.13.67-.92,1.21-1.53,1.79-.15.14-.38.13-.52-.02-.58-.63-1.34-1.24-1.43-1.93-.31-2.49,1.08-4.04,3.48-4.49,1.32-.25,2.69-.22,4.34-.29.24-.01.41-.25.34-.47-1.51-4.98-2.92-9.78-7.05-13.18-2.27-1.87-3.69-1.4-4.54,1.41-2.05,6.78-4.08,13.56-6.16,20.33-2.49,8.09-6.18,10.18-14.48,8.3-.23-.05-.46-.06-.75-.08h0ZM1031.55,155.4c-.15.09-.22.28-.16.45.29.79.56,1.32.59,1.86.05.83.19,2.02-.27,2.42-.75.65-2.1,1.3-2.92,1.04-1.64-.5-2.67-.7-3.66,1.08-1.05,1.9.25,2.52,1.23,3.62.52.59.68,1.82.48,2.64-.17.7-1.06,1.72-1.65,1.73-3.74.08-2.83,2.27-2.48,4.28.03.15.14.27.29.3,5.19,1.1,5.41,2.09,1.6,6.84-.1.12-.11.29-.03.42,0,.01.01.02.02.03.96,1.58,2.73,2.49,4.56,2.3,2.38-.24,3.13.65,2.75,3.37-.26,1.83,1.26,3.47,3.1,3.26.34-.04.64-.13.87-.31,2.98-2.31,4-2.12,5.45,1.49.31.77,1.63,1.62,2.45,1.58.82-.04,1.68-1.07,2.36-1.81.74-.8,1.13-2.22,1.98-2.54.73-.27,2.22.36,2.81,1.06,1.16,1.41,2.36,1.6,3.44.4.63-.7.65-1.98.87-3.02.19-.9-.03-2.09.48-2.67.55-.63,2-1.21,2.6-.91,3.21,1.59,3.61-.62,4.04-1.74.03-.09.03-.19,0-.27-.94-2.21-2.23-3.86-1.9-5.06.34-1.21,2.25-1.97,3.89-3.18.09-.07.15-.18.15-.3v-1.98c0-.12-.06-.23-.16-.3-1.75-1.22-3.72-1.97-3.86-2.96-.19-1.42.99-3.03,1.85-5.1.04-.09.04-.19,0-.28-.87-2.27-.94-2.26-4.15-1.77-1.85.28-3.54-1.42-3.02-3.23.42-1.46,1.04-2.6-.83-3.72-2.07-1.24-2.75.07-3.87,1.25-1.16,1.22-4.1.65-4.09-.81.02-3.55-2.04-3.19-4.22-2.91-.13.02-.25.1-.3.23-2.24,5.32-2.73,5.46-7,1.62-.12-.11-.29-.13-.43-.05-.87.5-1.8,1.04-2.86,1.65h0ZM1022.5,101.91c.4.19.73-.38.37-.63-.02-.02-.04-.03-.07-.05-4.83-3.46-6.57-8.73-4.63-13.97,2.05-5.52,6.47-8.14,12.76-7.37,1.86.23,2.89-.37,3.89-1.91,2.25-3.43,4.81-4.31,8.72-3.14,16.1,4.83,32.19,9.68,48.27,14.57,4.24,1.29,5.92,3.37,5.86,7.53-.03,1.99.62,2.95,2.46,3.78,5.52,2.5,8.1,8.05,5.93,13.69-1,2.59-3.03,5.22-5.32,6.74-1.83,1.21-4.26,1.5-6.52,1.94-.39.07-.4.63-.01.72.35.08.72.14,1.09.16,5.77.31,11.05-3.5,12.97-9.3,1.9-5.74-.29-12.11-5.14-15.49-1.07-.74-2.39-2.01-2.48-3.13-.39-4.97-2.84-8.09-7.52-9.51-16.39-4.96-32.76-9.98-49.19-14.8-4.31-1.27-8.12-.03-11.07,3.64-.7.87-2.17,1.61-3.27,1.59-4.87-.1-8.66,1.86-11.48,5.66-4.83,6.51-2.43,16.14,4.38,19.28h0ZM997.11,226.52s.03.02.05.03c.09.06.16.15.18.26.24,1.5.21,3.14.87,4.41.76,1.46,2.16,3.51,3.37,3.57,1.46.08,3.52-1.32,4.44-2.68,2.79-4.11,3.56-8.83,1.87-13.56-.56-1.58-2.23-3.66-3.57-3.81-1.37-.15-3.57,1.48-4.33,2.91-1.4,2.6-2.08,5.6-3.03,8.44-.06.16.01.34.16.43h0ZM1046.19,94.61c6.61,2.12,13.83,4.43,20.81,6.67.33.11.61-.27.42-.55-3.58-5.34-7.37-11-11.32-16.9-.13-.2-.41-.22-.58-.05-3.46,3.73-6.75,7.29-9.48,10.23-.18.2-.1.52.16.6h0ZM1036.09,235.42c-.02.06-.03.13-.01.2.45,2.11.57,3.71,1.17,5.09,1.13,2.57,3.62,2.92,5.28.7,2.7-3.61,3.4-7.72,1.78-11.97-1.16-3.07-4.07-3.36-5.74-.5-1.21,2.08-1.77,4.53-2.48,6.48h0ZM1087.75,97.78c-5.22,1.48-10.18,2.88-14.95,4.23-.33.09-.36.56-.04.69,5.26,2.24,10.58,4.51,15.95,6.79.26.11.54-.09.51-.37-.31-3.41-.64-7.1-1-11.02-.02-.23-.25-.38-.47-.32h0Z"/>
    <path class="cls-5" d="M1043.63,163.49c5.54-.03,9.45,3.81,9.43,9.28-.01,5.3-3.9,9.28-9.16,9.36-5.31.08-9.64-4.04-9.72-9.25-.08-5.31,4-9.36,9.45-9.39h0Z"/>
  </g>
  <g>
    <path class="cls-10" d="M1107.84,192.68l-115.86,200.68c-7.35,12.73,1.84,28.64,16.54,28.64h231.72c14.7,0,23.89-15.91,16.54-28.64l-115.86-200.68c-7.35-12.73-25.72-12.73-33.07,0Z"/>
    <path class="cls-13" d="M1117.17,206.16l-109.32,189.34c-3.21,5.55.8,12.5,7.22,12.5h218.63c6.41,0,10.42-6.94,7.22-12.5l-109.32-189.34c-3.21-5.55-11.22-5.55-14.43,0Z"/>
    <path class="cls-14" d="M1106.73,316.16c17.13-4.59,34.25-9.18,51.38-13.77.11.14.22.29.34.43-13.02,20.02-26.04,40.05-39.28,60.4h13.08c.1.3.1.29.2.6-9.55,7.26-19.11,14.51-28.94,21.99-3.8-7.56-7.5-14.91-11.3-22.46,3.94,0,7.54-.08,11.15.04,1.52.05,2.47-.33,3.36-1.66,8.72-13.07,17.52-26.08,26.3-39.11.14-.2.22-.44.48-.95-14.43,4.84-28.61,9.59-43.18,14.48.72-2.94,1.32-5.52,1.98-8.07,3.45-13.28,6.92-26.54,10.36-39.82,2.22-8.56,4.41-17.14,6.6-25.71.23-.88.44-1.61,1.64-1.61,7.87.05,15.74.03,23.61.04.17,0,.34.1.82.26-9.7,18.23-19.37,36.39-29.03,54.55l.44.38h0Z"/>
  </g>
  <g>
    <path class="cls-4" d="M1333.16,153.12c-5.78,29.69-13.37,54.5-89.66,108.88-76.29-54.38-83.88-79.2-89.66-108.88-5.78-29.68,18.36-58.34,17.32-74.01-1.03-15.67-15.54-33.85-15.54-33.85,19.5-4.99,19.01-19.8,19.01-19.8,45.72,21.81,68.87-7.38,68.87-7.38,0,0,23.15,29.18,68.87,7.38,0,0-.49,14.81,19.01,19.8,0,0-14.51,18.18-15.54,33.85-1.03,15.67,23.11,44.32,17.32,74.01h0Z"/>
    <g>
      <g>
        <path class="cls-1" d="M1285.76,133.73l1.03,1.03-16.27,16.27-1.03-1.03-4.22-4.22c-2.41,1.31-4.97,2.37-7.65,3.17v7.29h-23.01v-7.29c-2.67-.8-5.22-1.86-7.62-3.17l-4.2,4.22-1.02,1.03-16.21-16.27,1.02-1.03,4.2-4.22c-1.3-2.41-2.37-4.97-3.16-7.65h-7.39v-23.01h7.29c.8-2.67,1.86-5.22,3.17-7.62l-4.22-4.2-1.03-1.02,8.13-8.1,8.13-8.1,5.25,5.23c2.41-1.3,4.97-2.36,7.65-3.16v-7.39h23.01v7.29c2.68.8,5.24,1.86,7.65,3.17l5.25-5.25,8.13,8.13,8.13,8.13-1.03,1.03-4.22,4.22-7.65,7.65h-8.91c-4.2-6.87-12.04-11.26-20.84-10.5-10.57.92-19.03,9.33-20.01,19.89-1.22,13.15,9.1,24.19,21.99,24.19,7.98,0,14.98-4.24,18.86-10.58h8.91l7.65,7.65,4.22,4.22h0Z"/>
        <path class="cls-1" d="M1206.6,133.73l-1.03,1.03,16.27,16.27,1.03-1.03,4.22-4.22c2.41,1.31,4.97,2.37,7.65,3.17v7.29h23.01v-7.29c2.67-.8,5.22-1.86,7.62-3.17l4.2,4.22,1.02,1.03,16.21-16.27-1.02-1.03-4.2-4.22c1.3-2.41,2.37-4.97,3.16-7.65h7.39v-23.01h-7.29c-.8-2.67-1.86-5.22-3.17-7.62l4.22-4.2,1.03-1.02-8.13-8.1-8.13-8.1-5.25,5.23c-2.41-1.3-4.97-2.36-7.65-3.16v-7.39h-23.01v7.29c-2.68.8-5.24,1.86-7.65,3.17l-5.25-5.25-8.13,8.13-8.13,8.13,1.03,1.03,4.22,4.22,7.65,7.65h8.91c4.2-6.87,12.04-11.26,20.84-10.5,10.57.92,19.03,9.33,20.01,19.89,1.22,13.15-9.1,24.19-21.99,24.19-7.98,0-14.98-4.24-18.86-10.58h-8.91l-7.65,7.65-4.22,4.22h0Z"/>
      </g>
      <path class="cls-1" d="M1238.07,111.64h16.07c-2.34,4.7-7.18,7.94-12.78,7.94s-10.44-3.24-12.78-7.94h-9.31v-12.78h9.37c2.35-4.69,7.21-7.94,12.84-7.94s13.16,8.71,13.16,8.71h-16.58l-1.23,2.22-2.08,3.77,2.08,3.8,1.23,2.22h0Z"/>
      <path class="cls-1" d="M1262.54,118.92h-9.23c1.34,2.7,4.12,4.56,7.34,4.56s6-1.86,7.34-4.56h5.35v-7.16h-5.27c-1.34-2.74-4.11-4.6-7.32-4.6s-7.51,4.85-7.51,4.85h9.3l.7,1.28,1.2,2.17-1.2,2.18-.7,1.28Z"/>
    </g>
    <g>
      <rect class="cls-3" x="1176.33" y="170.81" width="140.21" height="37.06"/>
      <path class="cls-1" d="M1203.68,198.17l9.69-22.69,2.31,3.65h-12.15l3.34-3.89v7.6h-7.29v-10.48h22.11v5.37l-8.55,20.44h-9.47Z"/>
      <path class="cls-1" d="M1223.62,198.16v-5.37l9.34-8.66c.59-.57,1.03-1.06,1.31-1.48.28-.42.47-.8.57-1.13.1-.33.15-.65.15-.94,0-.64-.21-1.14-.63-1.5s-1.05-.54-1.88-.54c-.76,0-1.49.2-2.18.61-.69.41-1.23,1.01-1.62,1.8l-6.57-3.29c.93-1.78,2.34-3.22,4.21-4.33,1.87-1.11,4.2-1.67,6.98-1.67,2.04,0,3.85.33,5.43,1,1.58.67,2.81,1.6,3.69,2.81s1.33,2.64,1.33,4.29c0,.84-.11,1.68-.31,2.52-.21.84-.63,1.72-1.27,2.65-.64.93-1.59,1.96-2.84,3.09l-7.01,6.4-1.37-3.04h13.4v6.77h-20.71,0Z"/>
      <path class="cls-1" d="M1255.38,198.59c-1.76,0-3.54-.2-5.35-.59-1.81-.39-3.39-.96-4.76-1.72l2.93-6.37c1.1.64,2.25,1.1,3.44,1.41,1.2.31,2.33.46,3.4.46.98,0,1.78-.17,2.42-.51.63-.34.95-.84.95-1.5,0-.37-.11-.69-.33-.97s-.6-.49-1.15-.64-1.35-.22-2.4-.22h-7.47l1.28-15.59h17.06v6.52h-14.15l4.41-3.74-.78,10.04-4.41-3.74h6.14c2.54,0,4.57.37,6.1,1.1s2.64,1.72,3.33,2.95c.7,1.23,1.04,2.61,1.04,4.12s-.41,2.96-1.23,4.34c-.82,1.38-2.09,2.5-3.81,3.37-1.72.87-3.95,1.3-6.68,1.3h0Z"/>
      <path class="cls-1" d="M1268.74,193.69v-5.56l10.9-15.78h8.88l-10.5,15.78-4.04-1.21h19.93v6.77h-25.18ZM1282.03,198.16v-4.41l.26-6.74v-3.94h8.18v15.08h-8.44Z"/>
    </g>
  </g>
</svg>