<?xml version="1.0" encoding="UTF-8"?>
<svg id="Layer_1" data-name="Layer 1" xmlns="http://www.w3.org/2000/svg" viewBox="0 0 1920 500">
  <defs>
    <style>
      .cls-1 {
        fill: #fff;
      }

      .cls-2 {
        fill: none;
      }

      .cls-3 {
        fill: #659ad2;
        opacity: .2;
      }

      .cls-4 {
        fill: #ffc517;
      }

      .cls-5 {
        fill: #121230;
      }
    </style>
  </defs>
  <rect class="cls-5" width="1920" height="500"/>
  <polygon class="cls-3" points="-1.42 810.3 -1.42 -271.7 549.58 -271.7 -1.42 810.3"/>
  <polyline class="cls-3" points="1367.58 808.3 1918.58 -273.7 1918.58 808.3"/>
  <g>
    <g>
      <rect class="cls-2" x="444.58" y="81.26" width="1472.72" height="109.46"/>
      <path class="cls-1" d="M933.81,157.06c-5.87,0-11.53-.67-17-2-5.47-1.33-9.97-3.07-13.5-5.2l7.6-17.2c3.33,1.93,7.05,3.48,11.15,4.65,4.1,1.17,8.08,1.75,11.95,1.75,2.27,0,4.05-.15,5.35-.45,1.3-.3,2.25-.73,2.85-1.3.6-.57.9-1.25.9-2.05,0-1.27-.7-2.27-2.1-3-1.4-.73-3.25-1.35-5.55-1.85-2.3-.5-4.82-1.03-7.55-1.6-2.73-.57-5.48-1.32-8.25-2.25-2.77-.93-5.3-2.17-7.6-3.7-2.3-1.53-4.15-3.55-5.55-6.05s-2.1-5.62-2.1-9.35c0-4.33,1.22-8.28,3.65-11.85,2.43-3.57,6.07-6.42,10.9-8.55,4.83-2.13,10.85-3.2,18.05-3.2,4.73,0,9.4.5,14,1.5s8.73,2.53,12.4,4.6l-7.1,17.1c-3.47-1.73-6.82-3.03-10.05-3.9-3.23-.87-6.38-1.3-9.45-1.3-2.27,0-4.07.2-5.4.6-1.33.4-2.28.93-2.85,1.6-.57.67-.85,1.4-.85,2.2,0,1.2.7,2.15,2.1,2.85,1.4.7,3.25,1.28,5.55,1.75,2.3.47,4.83.97,7.6,1.5,2.77.53,5.52,1.27,8.25,2.2,2.73.93,5.25,2.17,7.55,3.7,2.3,1.53,4.15,3.53,5.55,6,1.4,2.47,2.1,5.53,2.1,9.2,0,4.27-1.22,8.18-3.65,11.75-2.44,3.57-6.05,6.43-10.85,8.6-4.8,2.17-10.83,3.25-18.1,3.25Z"/>
      <path class="cls-1" d="M997.01,155.46h-23.6v-70h23.6v70ZM1020.41,129.66h-25v-19.4h25v19.4ZM1018.81,85.46h23.6v70h-23.6v-70Z"/>
      <path class="cls-1" d="M1077.01,137.66h35v17.8h-58.2v-70h56.9v17.8h-33.7v34.4ZM1075.41,111.46h31.2v17h-31.2v-17Z"/>
      <path class="cls-1" d="M1121.11,155.46v-70h23.6v51.7h31.6v18.3h-55.2Z"/>
      <path class="cls-1" d="M1182.81,155.46v-70h37.4c9.67,0,16.8,1.72,21.4,5.15,4.6,3.43,6.9,7.82,6.9,13.15,0,3.53-.98,6.68-2.95,9.45-1.97,2.77-4.82,4.95-8.55,6.55-3.73,1.6-8.33,2.4-13.8,2.4l2-5.4c5.47,0,10.18.77,14.15,2.3,3.97,1.53,7.03,3.75,9.2,6.65,2.17,2.9,3.25,6.38,3.25,10.45,0,6.07-2.52,10.8-7.55,14.2-5.04,3.4-12.38,5.1-22.05,5.1h-39.4ZM1206.01,138.96h14.2c2.6,0,4.55-.47,5.85-1.4,1.3-.93,1.95-2.3,1.95-4.1s-.65-3.17-1.95-4.1c-1.3-.93-3.25-1.4-5.85-1.4h-15.8v-15.6h12.6c2.67,0,4.62-.45,5.85-1.35,1.23-.9,1.85-2.18,1.85-3.85s-.62-3.03-1.85-3.9c-1.23-.87-3.18-1.3-5.85-1.3h-11v37Z"/>
      <path class="cls-1" d="M1278.11,155.46v-30.7l5.4,14.1-31.8-53.4h24.9l21.5,36.5h-14.5l21.7-36.5h22.8l-31.6,53.4,5.2-14.1v30.7h-23.6Z"/>
      <path class="cls-1" d="M1361.1,155.46v-70h33.7c6.53,0,12.18,1.07,16.95,3.2,4.77,2.13,8.45,5.18,11.05,9.15,2.6,3.97,3.9,8.65,3.9,14.05s-1.3,10.05-3.9,13.95c-2.6,3.9-6.29,6.88-11.05,8.95-4.77,2.07-10.42,3.1-16.95,3.1h-20.6l10.5-9.7v27.3h-23.6ZM1384.7,130.76l-10.5-10.7h19.1c3.27,0,5.68-.73,7.25-2.2,1.57-1.47,2.35-3.47,2.35-6s-.78-4.53-2.35-6c-1.57-1.47-3.98-2.2-7.25-2.2h-19.1l10.5-10.7v37.8ZM1403,155.46l-17.2-25.5h25l17.4,25.5h-25.2Z"/>
      <path class="cls-1" d="M1472.3,157.06c-5.67,0-10.92-.9-15.75-2.7-4.83-1.8-9.02-4.35-12.55-7.65-3.53-3.3-6.28-7.18-8.25-11.65-1.97-4.47-2.95-9.33-2.95-14.6s.98-10.22,2.95-14.65c1.97-4.43,4.72-8.3,8.25-11.6,3.53-3.3,7.72-5.85,12.55-7.65,4.83-1.8,10.08-2.7,15.75-2.7s11,.9,15.8,2.7c4.8,1.8,8.97,4.35,12.5,7.65,3.53,3.3,6.28,7.17,8.25,11.6,1.97,4.43,2.95,9.32,2.95,14.65s-.98,10.13-2.95,14.6c-1.97,4.47-4.72,8.35-8.25,11.65-3.53,3.3-7.7,5.85-12.5,7.65-4.8,1.8-10.07,2.7-15.8,2.7ZM1472.3,137.96c2.2,0,4.25-.4,6.15-1.2,1.9-.8,3.57-1.95,5-3.45,1.43-1.5,2.55-3.33,3.35-5.5.8-2.17,1.2-4.62,1.2-7.35s-.4-5.18-1.2-7.35c-.8-2.17-1.92-4-3.35-5.5-1.43-1.5-3.1-2.65-5-3.45-1.9-.8-3.95-1.2-6.15-1.2s-4.25.4-6.15,1.2c-1.9.8-3.57,1.95-5,3.45-1.43,1.5-2.55,3.33-3.35,5.5-.8,2.17-1.2,4.62-1.2,7.35s.4,5.18,1.2,7.35c.8,2.17,1.92,4,3.35,5.5,1.43,1.5,3.1,2.65,5,3.45,1.9.8,3.95,1.2,6.15,1.2Z"/>
      <path class="cls-1" d="M1520.4,155.46v-70h37.4c9.67,0,16.8,1.72,21.4,5.15,4.6,3.43,6.9,7.82,6.9,13.15,0,3.53-.98,6.68-2.95,9.45-1.97,2.77-4.82,4.95-8.55,6.55-3.73,1.6-8.33,2.4-13.8,2.4l2-5.4c5.47,0,10.18.77,14.15,2.3,3.97,1.53,7.03,3.75,9.2,6.65,2.17,2.9,3.25,6.38,3.25,10.45,0,6.07-2.52,10.8-7.55,14.2-5.04,3.4-12.38,5.1-22.05,5.1h-39.4ZM1543.6,138.96h14.2c2.6,0,4.55-.47,5.85-1.4,1.3-.93,1.95-2.3,1.95-4.1s-.65-3.17-1.95-4.1c-1.3-.93-3.25-1.4-5.85-1.4h-15.8v-15.6h12.6c2.67,0,4.62-.45,5.85-1.35,1.23-.9,1.85-2.18,1.85-3.85s-.62-3.03-1.85-3.9c-1.23-.87-3.18-1.3-5.85-1.3h-11v37Z"/>
      <path class="cls-1" d="M1634.4,157.06c-5.67,0-10.92-.9-15.75-2.7-4.83-1.8-9.02-4.35-12.55-7.65-3.53-3.3-6.28-7.18-8.25-11.65-1.97-4.47-2.95-9.33-2.95-14.6s.98-10.22,2.95-14.65c1.97-4.43,4.72-8.3,8.25-11.6,3.53-3.3,7.72-5.85,12.55-7.65,4.83-1.8,10.08-2.7,15.75-2.7s11,.9,15.8,2.7c4.8,1.8,8.97,4.35,12.5,7.65,3.53,3.3,6.28,7.17,8.25,11.6,1.97,4.43,2.95,9.32,2.95,14.65s-.98,10.13-2.95,14.6c-1.97,4.47-4.72,8.35-8.25,11.65-3.53,3.3-7.7,5.85-12.5,7.65-4.8,1.8-10.07,2.7-15.8,2.7ZM1634.4,137.96c2.2,0,4.25-.4,6.15-1.2,1.9-.8,3.57-1.95,5-3.45,1.43-1.5,2.55-3.33,3.35-5.5.8-2.17,1.2-4.62,1.2-7.35s-.4-5.18-1.2-7.35c-.8-2.17-1.92-4-3.35-5.5-1.43-1.5-3.1-2.65-5-3.45-1.9-.8-3.95-1.2-6.15-1.2s-4.25.4-6.15,1.2c-1.9.8-3.57,1.95-5,3.45-1.43,1.5-2.55,3.33-3.35,5.5-.8,2.17-1.2,4.62-1.2,7.35s.4,5.18,1.2,7.35c.8,2.17,1.92,4,3.35,5.5,1.43,1.5,3.1,2.65,5,3.45,1.9.8,3.95,1.2,6.15,1.2Z"/>
      <path class="cls-1" d="M1697.7,155.46v-51.7h-20.5v-18.3h64.6v18.3h-20.5v51.7h-23.6Z"/>
      <path class="cls-1" d="M1747.9,155.46v-70h23.6v70h-23.6Z"/>
      <path class="cls-1" d="M1819.1,157.06c-5.6,0-10.79-.88-15.55-2.65-4.77-1.77-8.9-4.28-12.4-7.55-3.5-3.27-6.22-7.13-8.15-11.6-1.93-4.47-2.9-9.4-2.9-14.8s.96-10.33,2.9-14.8c1.93-4.47,4.65-8.33,8.15-11.6,3.5-3.27,7.63-5.78,12.4-7.55,4.77-1.77,9.95-2.65,15.55-2.65,6.87,0,12.95,1.2,18.25,3.6,5.3,2.4,9.68,5.87,13.15,10.4l-14.9,13.3c-2.07-2.6-4.35-4.62-6.85-6.05-2.5-1.43-5.32-2.15-8.45-2.15-2.47,0-4.7.4-6.7,1.2-2,.8-3.72,1.97-5.15,3.5-1.43,1.53-2.55,3.38-3.35,5.55-.8,2.17-1.2,4.58-1.2,7.25s.4,5.08,1.2,7.25c.8,2.17,1.92,4.02,3.35,5.55,1.43,1.53,3.15,2.7,5.15,3.5,2,.8,4.23,1.2,6.7,1.2,3.13,0,5.95-.72,8.45-2.15,2.5-1.43,4.78-3.45,6.85-6.05l14.9,13.3c-3.47,4.47-7.85,7.92-13.15,10.35-5.3,2.43-11.38,3.65-18.25,3.65Z"/>
      <path class="cls-1" d="M1883.4,157.06c-5.87,0-11.53-.67-17-2-5.47-1.33-9.97-3.07-13.5-5.2l7.6-17.2c3.33,1.93,7.05,3.48,11.15,4.65,4.1,1.17,8.08,1.75,11.95,1.75,2.27,0,4.05-.15,5.35-.45,1.3-.3,2.25-.73,2.85-1.3.6-.57.9-1.25.9-2.05,0-1.27-.7-2.27-2.1-3-1.4-.73-3.25-1.35-5.55-1.85s-4.82-1.03-7.55-1.6c-2.73-.57-5.48-1.32-8.25-2.25-2.77-.93-5.3-2.17-7.6-3.7-2.3-1.53-4.15-3.55-5.55-6.05s-2.1-5.62-2.1-9.35c0-4.33,1.21-8.28,3.65-11.85,2.43-3.57,6.07-6.42,10.9-8.55,4.83-2.13,10.85-3.2,18.05-3.2,4.73,0,9.4.5,14,1.5s8.73,2.53,12.4,4.6l-7.1,17.1c-3.47-1.73-6.82-3.03-10.05-3.9-3.23-.87-6.38-1.3-9.45-1.3-2.27,0-4.07.2-5.4.6-1.33.4-2.29.93-2.85,1.6-.57.67-.85,1.4-.85,2.2,0,1.2.7,2.15,2.1,2.85s3.25,1.28,5.55,1.75c2.3.47,4.83.97,7.6,1.5,2.77.53,5.52,1.27,8.25,2.2,2.73.93,5.25,2.17,7.55,3.7,2.3,1.53,4.15,3.53,5.55,6,1.4,2.47,2.1,5.53,2.1,9.2,0,4.27-1.22,8.18-3.65,11.75-2.43,3.57-6.05,6.43-10.85,8.6-4.8,2.17-10.83,3.25-18.1,3.25Z"/>
    </g>
    <g>
      <rect class="cls-2" x="56.45" y="150.42" width="1862.13" height="218.3"/>
      <path class="cls-1" d="M72.86,364.11v-201.6h97.06c18.81,0,35.09,3.07,48.82,9.22,13.73,6.15,24.34,14.93,31.82,26.35,7.49,11.43,11.23,24.91,11.23,40.46s-3.74,28.94-11.23,40.18c-7.49,11.23-18.1,19.83-31.82,25.78-13.73,5.95-30,8.93-48.82,8.93h-59.33l30.24-27.94v78.62h-67.97ZM140.83,292.98l-30.24-30.82h55.01c9.41,0,16.37-2.11,20.88-6.34,4.51-4.22,6.77-9.98,6.77-17.28s-2.26-13.05-6.77-17.28c-4.51-4.22-11.48-6.34-20.88-6.34h-55.01l30.24-30.82v108.86ZM193.53,364.11l-49.54-73.44h72l50.11,73.44h-72.58Z"/>
      <path class="cls-1" d="M393.12,368.72c-16.32,0-31.44-2.59-45.36-7.78-13.92-5.18-25.97-12.53-36.14-22.03-10.18-9.5-18.1-20.69-23.76-33.55-5.67-12.86-8.5-26.88-8.5-42.05s2.83-29.42,8.5-42.19c5.66-12.77,13.58-23.9,23.76-33.41,10.17-9.5,22.22-16.85,36.14-22.03,13.92-5.18,29.04-7.78,45.36-7.78s31.68,2.59,45.5,7.78c13.82,5.18,25.82,12.53,36,22.03,10.17,9.5,18.09,20.64,23.76,33.41,5.66,12.77,8.5,26.83,8.5,42.19s-2.83,29.19-8.5,42.05c-5.67,12.87-13.59,24.05-23.76,33.55-10.18,9.5-22.18,16.85-36,22.03-13.82,5.18-28.99,7.78-45.5,7.78ZM393.12,313.71c6.34,0,12.24-1.15,17.71-3.46,5.47-2.3,10.27-5.62,14.4-9.94,4.13-4.32,7.34-9.6,9.65-15.84,2.3-6.24,3.46-13.29,3.46-21.17s-1.15-14.93-3.46-21.17c-2.3-6.24-5.52-11.52-9.65-15.84-4.13-4.32-8.93-7.63-14.4-9.94-5.47-2.3-11.38-3.46-17.71-3.46s-12.24,1.15-17.71,3.46c-5.47,2.3-10.27,5.62-14.4,9.94-4.13,4.32-7.34,9.6-9.65,15.84-2.3,6.24-3.46,13.3-3.46,21.17s1.15,14.93,3.46,21.17c2.3,6.24,5.52,11.52,9.65,15.84,4.13,4.32,8.93,7.63,14.4,9.94,5.47,2.3,11.38,3.46,17.71,3.46Z"/>
      <path class="cls-1" d="M583.48,364.11v-88.42l15.55,40.61-91.58-153.79h71.71l61.92,105.12h-41.76l62.5-105.12h65.66l-91.01,153.79,14.98-40.61v88.42h-67.97Z"/>
      <path class="cls-1" d="M714.23,364.11l88.13-201.6h66.82l88.13,201.6h-70.27l-65.09-169.34h26.5l-65.09,169.34h-69.12ZM766.65,328.98l17.28-48.96h92.74l17.28,48.96h-127.3Z"/>
      <path class="cls-1" d="M968.25,364.11v-201.6h67.97v148.9h91.01v52.7h-158.98Z"/>
      <path class="cls-1" d="M1338.03,368.72c-16.32,0-31.44-2.59-45.36-7.78-13.92-5.18-25.97-12.53-36.14-22.03-10.18-9.5-18.1-20.69-23.76-33.55-5.67-12.86-8.5-26.88-8.5-42.05s2.83-29.42,8.5-42.19c5.66-12.77,13.58-23.9,23.76-33.41,10.17-9.5,22.22-16.85,36.14-22.03,13.92-5.18,29.04-7.78,45.36-7.78s31.68,2.59,45.5,7.78,25.82,12.53,36,22.03c10.17,9.5,18.09,20.64,23.76,33.41,5.66,12.77,8.5,26.83,8.5,42.19s-2.83,29.19-8.5,42.05c-5.67,12.87-13.59,24.05-23.76,33.55-10.18,9.5-22.18,16.85-36,22.03-13.82,5.18-28.99,7.78-45.5,7.78ZM1338.03,313.71c6.34,0,12.24-1.15,17.71-3.46,5.47-2.3,10.27-5.62,14.4-9.94,4.13-4.32,7.34-9.6,9.65-15.84,2.3-6.24,3.46-13.29,3.46-21.17s-1.15-14.93-3.46-21.17c-2.3-6.24-5.52-11.52-9.65-15.84-4.13-4.32-8.93-7.63-14.4-9.94-5.47-2.3-11.38-3.46-17.71-3.46s-12.24,1.15-17.71,3.46c-5.47,2.3-10.27,5.62-14.4,9.94-4.13,4.32-7.34,9.6-9.65,15.84-2.3,6.24-3.46,13.3-3.46,21.17s1.15,14.93,3.46,21.17c2.3,6.24,5.52,11.52,9.65,15.84,4.13,4.32,8.93,7.63,14.4,9.94,5.47,2.3,11.38,3.46,17.71,3.46Z"/>
      <path class="cls-1" d="M1454.67,364.11l88.13-201.6h66.82l88.13,201.6h-70.27l-65.09-169.34h26.5l-65.09,169.34h-69.12ZM1507.09,328.98l17.28-48.96h92.74l17.28,48.96h-127.3Z"/>
      <path class="cls-1" d="M1708.69,364.11v-201.6h66.82v201.6h-66.82ZM1769.45,320.91l-3.74-74.59,76.03-83.81h74.02l-85.25,93.89-37.73,38.59-23.33,25.92ZM1841.17,364.11l-59.33-78.34,44.06-46.66,93.89,124.99h-78.62Z"/>
    </g>
    <g>
      <path class="cls-1" d="M1531.65,421.25c-4.08,0-7.86-.65-11.34-1.94-3.48-1.3-6.49-3.13-9.04-5.51-2.54-2.38-4.53-5.17-5.94-8.39-1.42-3.21-2.12-6.72-2.12-10.51s.71-7.36,2.12-10.55c1.42-3.19,3.4-5.98,5.94-8.35,2.54-2.38,5.55-4.21,9.04-5.51,3.48-1.3,7.26-1.94,11.34-1.94s7.92.65,11.38,1.94c3.46,1.3,6.46,3.13,9,5.51,2.54,2.38,4.52,5.16,5.94,8.35,1.42,3.19,2.12,6.71,2.12,10.55s-.71,7.3-2.12,10.51c-1.42,3.22-3.4,6.01-5.94,8.39-2.54,2.38-5.54,4.21-9,5.51s-7.25,1.94-11.38,1.94ZM1531.65,407.49c1.58,0,3.06-.29,4.43-.86s2.57-1.4,3.6-2.48,1.84-2.4,2.41-3.96c.58-1.56.86-3.32.86-5.29s-.29-3.73-.86-5.29c-.58-1.56-1.38-2.88-2.41-3.96s-2.23-1.91-3.6-2.48c-1.37-.58-2.84-.86-4.43-.86s-3.06.29-4.43.86c-1.37.58-2.57,1.4-3.6,2.48-1.03,1.08-1.84,2.4-2.41,3.96-.58,1.56-.86,3.32-.86,5.29s.29,3.73.86,5.29c.58,1.56,1.38,2.88,2.41,3.96,1.03,1.08,2.23,1.91,3.6,2.48,1.37.58,2.84.86,4.43.86ZM1548.14,432.84c-2.35,0-4.54-.23-6.55-.68-2.02-.46-3.97-1.21-5.87-2.27-1.9-1.06-3.88-2.51-5.94-4.36-2.06-1.85-4.37-4.14-6.91-6.88l17.57-4.32c1.15,1.78,2.14,3.14,2.95,4.1.82.96,1.62,1.63,2.41,2.02.79.38,1.69.58,2.7.58,2.5,0,4.82-1.08,6.98-3.24l7.34,8.64c-3.6,4.27-8.5,6.41-14.69,6.41Z"/>
      <path class="cls-1" d="M1590.41,421.25c-7.73,0-13.75-2.09-18.07-6.26-4.32-4.18-6.48-10.03-6.48-17.57v-27.72h16.99v27.22c0,3.84.7,6.56,2.09,8.17,1.39,1.61,3.26,2.41,5.62,2.41s4.28-.8,5.65-2.41c1.37-1.61,2.05-4.33,2.05-8.17v-27.22h16.7v27.72c0,7.54-2.16,13.39-6.48,17.57-4.32,4.18-10.34,6.26-18.07,6.26Z"/>
      <path class="cls-1" d="M1617.26,420.09l22.03-50.4h16.7l22.03,50.4h-17.57l-16.27-42.34h6.62l-16.27,42.34h-17.28ZM1630.37,411.31l4.32-12.24h23.18l4.32,12.24h-31.82Z"/>
      <path class="cls-1" d="M1680.76,420.09v-50.4h16.99v37.22h22.75v13.18h-39.74Z"/>
      <path class="cls-1" d="M1725.19,420.09v-50.4h16.99v50.4h-16.99Z"/>
      <path class="cls-1" d="M1767.38,420.09h-16.99v-50.4h40.97v12.82h-23.98v37.58ZM1766.23,391.15h22.18v12.82h-22.18v-12.82Z"/>
      <path class="cls-1" d="M1796.75,420.09v-50.4h16.99v50.4h-16.99Z"/>
      <path class="cls-1" d="M1838.66,407.28h25.2v12.82h-41.9v-50.4h40.97v12.82h-24.26v24.77ZM1837.51,388.41h22.46v12.24h-22.46v-12.24Z"/>
      <path class="cls-1" d="M1870.41,420.09v-50.4h24.26c4.7,0,8.77.77,12.2,2.3,3.43,1.54,6.08,3.73,7.96,6.59,1.87,2.86,2.81,6.23,2.81,10.12s-.94,7.24-2.81,10.04c-1.87,2.81-4.53,4.96-7.96,6.44-3.43,1.49-7.5,2.23-12.2,2.23h-14.83l7.56-6.98v19.66h-16.99ZM1887.4,402.31l-7.56-7.7h13.75c2.35,0,4.09-.53,5.22-1.58,1.13-1.05,1.69-2.5,1.69-4.32s-.57-3.26-1.69-4.32c-1.13-1.06-2.87-1.58-5.22-1.58h-13.75l7.56-7.7v27.22ZM1900.58,420.09l-12.38-18.36h18l12.53,18.36h-18.14Z"/>
    </g>
  </g>
  <g>
    <rect class="cls-2" x="-1" y="455.3" width="1297" height="45.7"/>
    <path class="cls-1" d="M1.74,490.91v-33.6h9.31l17.09,20.45h-4.32v-20.45h11.04v33.6h-9.31l-17.09-20.45h4.32v20.45H1.74Z"/>
    <path class="cls-1" d="M53.86,491.39c-2.98,0-5.61-.58-7.9-1.75-2.29-1.17-4.09-2.78-5.4-4.82-1.31-2.05-1.97-4.4-1.97-7.06s.66-5.01,1.97-7.06c1.31-2.05,3.11-3.65,5.4-4.8,2.29-1.15,4.92-1.73,7.9-1.73s5.62.58,7.92,1.73c2.3,1.15,4.1,2.75,5.4,4.8,1.3,2.05,1.94,4.4,1.94,7.06s-.65,5.01-1.94,7.06c-1.3,2.05-3.1,3.66-5.4,4.82-2.3,1.17-4.94,1.75-7.92,1.75ZM53.86,482.94c.8,0,1.52-.19,2.16-.58.64-.38,1.15-.97,1.54-1.75.38-.78.58-1.74.58-2.86s-.19-2.1-.58-2.86c-.38-.75-.9-1.32-1.54-1.7-.64-.38-1.36-.58-2.16-.58s-1.52.19-2.16.58c-.64.38-1.15.95-1.54,1.7-.38.75-.58,1.7-.58,2.86s.19,2.07.58,2.86c.38.78.9,1.37,1.54,1.75.64.38,1.36.58,2.16.58Z"/>
    <path class="cls-1" d="M79.97,490.91l-10.56-26.26h11.14l8.02,21.31h-5.62l8.54-21.31h10.27l-10.56,26.26h-11.23Z"/>
    <path class="cls-1" d="M117.94,491.39c-3.2,0-5.99-.59-8.38-1.78-2.38-1.18-4.23-2.81-5.54-4.87-1.31-2.06-1.97-4.39-1.97-6.98s.65-5.01,1.94-7.06c1.3-2.05,3.07-3.65,5.33-4.8,2.26-1.15,4.79-1.73,7.61-1.73,2.59,0,4.98.51,7.18,1.54,2.19,1.02,3.95,2.54,5.28,4.56,1.33,2.02,1.99,4.51,1.99,7.49,0,.38-.02.81-.05,1.27-.03.46-.06.89-.1,1.27h-20.21v-5.23h14.45l-4.08,1.39c0-1.02-.18-1.9-.55-2.62-.37-.72-.87-1.28-1.51-1.68-.64-.4-1.41-.6-2.3-.6s-1.67.2-2.33.6c-.66.4-1.16.96-1.51,1.68-.35.72-.53,1.59-.53,2.62v1.63c0,1.12.22,2.08.67,2.88.45.8,1.09,1.4,1.92,1.8.83.4,1.84.6,3.02.6s2.22-.16,3-.48c.78-.32,1.61-.8,2.47-1.44l5.66,5.71c-1.28,1.38-2.86,2.42-4.73,3.14-1.87.72-4.12,1.08-6.74,1.08Z"/>
    <path class="cls-1" d="M169.54,464.18c1.98,0,3.77.41,5.35,1.22,1.58.82,2.83,2.09,3.74,3.82.91,1.73,1.37,3.97,1.37,6.72v14.98h-10.85v-13.1c0-1.63-.27-2.79-.82-3.48-.54-.69-1.25-1.03-2.11-1.03-.64,0-1.22.16-1.73.48-.51.32-.92.83-1.22,1.51-.3.69-.46,1.62-.46,2.81v12.82h-10.85v-13.1c0-1.63-.26-2.79-.77-3.48-.51-.69-1.23-1.03-2.16-1.03-.64,0-1.22.16-1.73.48-.51.32-.92.83-1.22,1.51-.3.69-.46,1.62-.46,2.81v12.82h-10.85v-26.26h10.32v7.54l-2.11-2.11c.99-1.98,2.32-3.46,3.98-4.44,1.66-.98,3.52-1.46,5.57-1.46,2.3,0,4.34.6,6.12,1.8,1.78,1.2,2.97,3.1,3.58,5.69l-3.31-.53c.96-2.18,2.36-3.88,4.2-5.11,1.84-1.23,3.98-1.85,6.41-1.85Z"/>
    <path class="cls-1" d="M184.71,490.91v-35.62h10.85v12.86l-.48,9.6-.05,9.6v3.55h-10.32ZM202.23,491.39c-2.4,0-4.34-.48-5.81-1.44-1.47-.96-2.54-2.45-3.19-4.46-.66-2.02-.98-4.59-.98-7.73s.35-5.66,1.06-7.66c.7-2,1.8-3.49,3.29-4.46,1.49-.98,3.37-1.46,5.64-1.46s4.42.54,6.34,1.63c1.92,1.09,3.46,2.65,4.61,4.68,1.15,2.03,1.73,4.46,1.73,7.27s-.58,5.24-1.73,7.27c-1.15,2.03-2.69,3.6-4.61,4.7-1.92,1.1-4.03,1.66-6.34,1.66ZM199.64,482.94c.8,0,1.52-.19,2.16-.58.64-.38,1.15-.97,1.54-1.75.38-.78.58-1.74.58-2.86s-.19-2.1-.58-2.86c-.38-.75-.9-1.32-1.54-1.7-.64-.38-1.36-.58-2.16-.58s-1.52.19-2.16.58c-.64.38-1.15.95-1.54,1.7s-.58,1.7-.58,2.86.19,2.07.58,2.86.9,1.37,1.54,1.75c.64.38,1.36.58,2.16.58Z"/>
    <path class="cls-1" d="M232.81,491.39c-3.2,0-5.99-.59-8.38-1.78s-4.23-2.81-5.54-4.87c-1.31-2.06-1.97-4.39-1.97-6.98s.65-5.01,1.94-7.06,3.07-3.65,5.33-4.8c2.26-1.15,4.79-1.73,7.61-1.73,2.59,0,4.98.51,7.18,1.54,2.19,1.02,3.95,2.54,5.28,4.56,1.33,2.02,1.99,4.51,1.99,7.49,0,.38-.02.81-.05,1.27-.03.46-.06.89-.1,1.27h-20.21v-5.23h14.45l-4.08,1.39c0-1.02-.18-1.9-.55-2.62s-.87-1.28-1.51-1.68c-.64-.4-1.41-.6-2.3-.6s-1.67.2-2.33.6c-.66.4-1.16.96-1.51,1.68s-.53,1.59-.53,2.62v1.63c0,1.12.22,2.08.67,2.88.45.8,1.09,1.4,1.92,1.8.83.4,1.84.6,3.02.6s2.21-.16,3-.48c.78-.32,1.61-.8,2.47-1.44l5.66,5.71c-1.28,1.38-2.86,2.42-4.73,3.14-1.87.72-4.12,1.08-6.74,1.08Z"/>
    <path class="cls-1" d="M249.65,490.91v-26.26h10.32v7.92l-1.68-2.26c.8-2.05,2.08-3.58,3.84-4.61,1.76-1.02,3.87-1.54,6.34-1.54v9.6c-.48-.06-.9-.11-1.27-.14-.37-.03-.74-.05-1.13-.05-1.63,0-2.97.42-4.01,1.27-1.04.85-1.56,2.31-1.56,4.39v11.66h-10.85Z"/>
    <path class="cls-1" d="M297.75,456.54c3.2,0,6.01.62,8.42,1.85,2.42,1.23,4.3,3.06,5.66,5.5,1.36,2.43,2.04,5.49,2.04,9.17,0,3.94-.78,7.29-2.35,10.06-1.57,2.77-3.74,4.89-6.53,6.36s-6.03,2.21-9.74,2.21c-1.98,0-3.9-.23-5.74-.7-1.84-.46-3.4-1.11-4.68-1.94l4.08-7.92c.99.7,1.99,1.18,3,1.42,1.01.24,2.04.36,3.1.36,2.27,0,4.09-.68,5.45-2.04,1.36-1.36,2.04-3.34,2.04-5.93v-2.83l2.59,1.87c-.61,1.09-1.35,2.01-2.23,2.76-.88.75-1.91,1.33-3.1,1.73s-2.56.6-4.13.6c-2.05,0-3.94-.44-5.69-1.32-1.75-.88-3.15-2.13-4.22-3.74s-1.61-3.51-1.61-5.69c0-2.4.61-4.48,1.82-6.24,1.22-1.76,2.86-3.12,4.92-4.08,2.06-.96,4.36-1.44,6.89-1.44ZM298.52,464.37c-.67,0-1.26.14-1.78.41-.51.27-.92.67-1.22,1.18s-.46,1.12-.46,1.82c0,1.06.33,1.9.98,2.52.66.62,1.48.94,2.47.94.67,0,1.27-.14,1.8-.43.53-.29.94-.69,1.22-1.2.29-.51.43-1.12.43-1.82s-.14-1.31-.43-1.82-.7-.9-1.22-1.18c-.53-.27-1.13-.41-1.8-.41Z"/>
    <path class="cls-1" d="M316.95,498.59l4.03-13.49,1.58,6.05c-1.86,0-3.38-.54-4.56-1.61-1.18-1.07-1.78-2.54-1.78-4.39s.6-3.38,1.8-4.49c1.2-1.1,2.71-1.66,4.54-1.66s3.34.55,4.54,1.66c1.2,1.1,1.8,2.6,1.8,4.49,0,.51-.04,1.02-.12,1.54-.08.51-.25,1.13-.5,1.85-.26.72-.67,1.69-1.25,2.9l-3.36,7.15h-6.72Z"/>
    <path class="cls-1" d="M345.6,490.91v-6.96l12.14-11.23c.77-.74,1.34-1.38,1.7-1.92.37-.54.62-1.03.74-1.46s.19-.84.19-1.22c0-.83-.27-1.48-.82-1.94s-1.36-.7-2.45-.7c-.99,0-1.94.26-2.83.79-.9.53-1.6,1.3-2.11,2.33l-8.54-4.27c1.22-2.3,3.04-4.18,5.47-5.62,2.43-1.44,5.46-2.16,9.07-2.16,2.66,0,5.01.43,7.06,1.3s3.65,2.08,4.8,3.65c1.15,1.57,1.73,3.42,1.73,5.57,0,1.09-.14,2.18-.41,3.26s-.82,2.23-1.66,3.43c-.83,1.2-2.06,2.54-3.7,4.01l-9.12,8.3-1.78-3.94h17.42v8.78h-26.93Z"/>
    <path class="cls-1" d="M390.05,491.68c-2.98,0-5.61-.69-7.9-2.06-2.29-1.38-4.08-3.38-5.38-6s-1.94-5.79-1.94-9.5.65-6.88,1.94-9.5c1.3-2.62,3.09-4.62,5.38-6,2.29-1.38,4.92-2.06,7.9-2.06s5.61.69,7.9,2.06c2.29,1.38,4.08,3.38,5.38,6,1.3,2.62,1.94,5.79,1.94,9.5s-.65,6.88-1.94,9.5-3.09,4.62-5.38,6c-2.29,1.38-4.92,2.06-7.9,2.06ZM390.05,482.61c.74,0,1.39-.25,1.97-.77.58-.51,1.03-1.39,1.37-2.64s.5-2.94.5-5.09-.17-3.88-.5-5.11c-.34-1.23-.79-2.1-1.37-2.62-.58-.51-1.23-.77-1.97-.77s-1.39.26-1.97.77c-.58.51-1.03,1.38-1.37,2.62-.34,1.23-.5,2.94-.5,5.11s.17,3.84.5,5.09c.34,1.25.79,2.13,1.37,2.64.58.51,1.23.77,1.97.77Z"/>
    <path class="cls-1" d="M408,490.91v-6.96l12.14-11.23c.77-.74,1.34-1.38,1.7-1.92.37-.54.62-1.03.74-1.46s.19-.84.19-1.22c0-.83-.27-1.48-.82-1.94s-1.36-.7-2.45-.7c-.99,0-1.94.26-2.83.79-.9.53-1.6,1.3-2.11,2.33l-8.54-4.27c1.22-2.3,3.04-4.18,5.47-5.62,2.43-1.44,5.46-2.16,9.07-2.16,2.66,0,5.01.43,7.06,1.3s3.65,2.08,4.8,3.65c1.15,1.57,1.73,3.42,1.73,5.57,0,1.09-.14,2.18-.41,3.26s-.82,2.23-1.66,3.43c-.83,1.2-2.06,2.54-3.7,4.01l-9.12,8.3-1.78-3.94h17.42v8.78h-26.93Z"/>
    <path class="cls-1" d="M436.95,485.15v-7.2l14.26-20.64h11.62l-13.73,20.64-5.28-1.58h26.02v8.78h-32.88ZM454.37,490.91v-5.76l.34-8.78v-5.14h10.66v19.68h-10.99Z"/>
    <path class="cls-4" d="M487.15,490.91v-33.6h16.18c3.14,0,5.85.51,8.14,1.54,2.29,1.02,4.06,2.49,5.3,4.39s1.87,4.15,1.87,6.74-.62,4.82-1.87,6.7-3.02,3.3-5.3,4.3c-2.29.99-5,1.49-8.14,1.49h-9.89l5.04-4.66v13.1h-11.33ZM498.48,479.06l-5.04-5.14h9.17c1.57,0,2.73-.35,3.48-1.06s1.13-1.66,1.13-2.88-.38-2.17-1.13-2.88c-.75-.7-1.91-1.06-3.48-1.06h-9.17l5.04-5.14v18.14ZM507.26,490.91l-8.26-12.24h12l8.35,12.24h-12.1Z"/>
    <path class="cls-4" d="M536.45,491.39c-2.98,0-5.61-.58-7.9-1.75-2.29-1.17-4.09-2.78-5.4-4.82-1.31-2.05-1.97-4.4-1.97-7.06s.66-5.01,1.97-7.06,3.11-3.65,5.4-4.8c2.29-1.15,4.92-1.73,7.9-1.73s5.62.58,7.92,1.73c2.3,1.15,4.1,2.75,5.4,4.8s1.94,4.4,1.94,7.06-.65,5.01-1.94,7.06c-1.3,2.05-3.1,3.66-5.4,4.82-2.3,1.17-4.94,1.75-7.92,1.75ZM536.45,482.94c.8,0,1.52-.19,2.16-.58.64-.38,1.15-.97,1.54-1.75s.58-1.74.58-2.86-.19-2.1-.58-2.86-.9-1.32-1.54-1.7c-.64-.38-1.36-.58-2.16-.58s-1.52.19-2.16.58c-.64.38-1.15.95-1.54,1.7s-.58,1.7-.58,2.86.19,2.07.58,2.86.9,1.37,1.54,1.75c.64.38,1.36.58,2.16.58Z"/>
    <path class="cls-4" d="M563.42,492.11l-11.42-27.46h11.14l7.87,20.45-7.58,7.01ZM560.88,500.7c-1.44,0-2.9-.22-4.39-.65-1.49-.43-2.68-1-3.58-1.7l3.6-7.44c.54.42,1.16.75,1.85,1.01.69.26,1.35.38,1.99.38.96,0,1.7-.2,2.21-.6.51-.4.93-1,1.25-1.8l1.1-2.78.77-1.06,8.4-21.41h10.27l-10.8,26.78c-.96,2.4-2.07,4.27-3.34,5.62-1.26,1.34-2.67,2.29-4.22,2.83-1.55.54-3.26.82-5.11.82Z"/>
    <path class="cls-4" d="M594.48,491.39c-2.14,0-3.94-.37-5.38-1.1-1.44-.74-2.53-1.72-3.26-2.95-.74-1.23-1.1-2.6-1.1-4.1,0-1.7.43-3.14,1.3-4.32.86-1.18,2.18-2.08,3.96-2.69,1.78-.61,4.02-.91,6.74-.91h5.47v5.23h-3.74c-1.15,0-1.99.18-2.52.55-.53.37-.79.92-.79,1.66,0,.61.23,1.11.7,1.51.46.4,1.1.6,1.9.6.74,0,1.42-.2,2.04-.6.62-.4,1.08-1.03,1.37-1.9l1.39,3.22c-.42,1.95-1.3,3.41-2.64,4.37-1.34.96-3.15,1.44-5.42,1.44ZM601.92,490.91v-4.66l-.77-1.25v-8.83c0-1.28-.39-2.26-1.18-2.93s-2.06-1.01-3.82-1.01c-1.18,0-2.38.18-3.6.55-1.22.37-2.26.87-3.12,1.51l-3.46-7.15c1.54-.96,3.38-1.7,5.52-2.21,2.14-.51,4.24-.77,6.29-.77,4.51,0,8.01,1.01,10.49,3.02,2.48,2.02,3.72,5.22,3.72,9.6v14.11h-10.08Z"/>
    <path class="cls-4" d="M616.71,490.91v-35.62h10.85v35.62h-10.85Z"/>
    <path class="cls-4" d="M664.7,491.68c-2.72,0-5.24-.43-7.56-1.3-2.32-.86-4.33-2.09-6.02-3.67s-3.02-3.45-3.96-5.59-1.42-4.48-1.42-7.01.47-4.9,1.42-7.03,2.26-3.98,3.96-5.57,3.7-2.81,6.02-3.67c2.32-.86,4.84-1.3,7.56-1.3s5.28.43,7.58,1.3c2.3.86,4.3,2.09,6,3.67s3.02,3.44,3.96,5.57c.94,2.13,1.42,4.47,1.42,7.03s-.47,4.86-1.42,7.01c-.94,2.14-2.26,4.01-3.96,5.59s-3.7,2.81-6,3.67c-2.3.86-4.83,1.3-7.58,1.3ZM664.7,482.51c1.06,0,2.04-.19,2.95-.58.91-.38,1.71-.94,2.4-1.66.69-.72,1.22-1.6,1.61-2.64.38-1.04.58-2.21.58-3.53s-.19-2.49-.58-3.53c-.38-1.04-.92-1.92-1.61-2.64-.69-.72-1.49-1.27-2.4-1.66s-1.9-.58-2.95-.58-2.04.19-2.95.58c-.91.38-1.71.94-2.4,1.66-.69.72-1.22,1.6-1.61,2.64-.38,1.04-.58,2.22-.58,3.53s.19,2.49.58,3.53c.38,1.04.92,1.92,1.61,2.64.69.72,1.49,1.27,2.4,1.66.91.38,1.9.58,2.95.58Z"/>
    <path class="cls-4" d="M695.9,491.39c-2.14,0-3.94-.37-5.38-1.1-1.44-.74-2.53-1.72-3.26-2.95-.74-1.23-1.1-2.6-1.1-4.1,0-1.7.43-3.14,1.3-4.32.86-1.18,2.18-2.08,3.96-2.69,1.78-.61,4.02-.91,6.74-.91h5.47v5.23h-3.74c-1.15,0-1.99.18-2.52.55-.53.37-.79.92-.79,1.66,0,.61.23,1.11.7,1.51.46.4,1.1.6,1.9.6.74,0,1.42-.2,2.04-.6.62-.4,1.08-1.03,1.37-1.9l1.39,3.22c-.42,1.95-1.3,3.41-2.64,4.37-1.34.96-3.15,1.44-5.42,1.44ZM703.34,490.91v-4.66l-.77-1.25v-8.83c0-1.28-.39-2.26-1.18-2.93s-2.06-1.01-3.82-1.01c-1.18,0-2.38.18-3.6.55-1.22.37-2.26.87-3.12,1.51l-3.46-7.15c1.54-.96,3.38-1.7,5.52-2.21,2.14-.51,4.24-.77,6.29-.77,4.51,0,8.01,1.01,10.49,3.02,2.48,2.02,3.72,5.22,3.72,9.6v14.11h-10.08Z"/>
    <path class="cls-4" d="M718.13,490.91v-35.62h10.85v35.62h-10.85ZM727.2,486.59l.24-12.77,9.07-9.17h12.82l-12,12.58-5.42,4.37-4.7,4.99ZM737.09,490.91l-7.2-9.12,6.67-8.21,13.63,17.33h-13.1Z"/>
    <path class="cls-4" d="M767.09,490.91v-33.6h9.31l13.44,21.94h-4.9l13.06-21.94h9.31l.1,33.6h-10.32l-.1-18.05h1.63l-8.93,15.02h-4.99l-9.31-15.02h2.02v18.05h-10.32Z"/>
    <path class="cls-4" d="M817.97,462.54c-1.98,0-3.57-.53-4.75-1.58-1.18-1.06-1.78-2.37-1.78-3.94s.59-2.88,1.78-3.94c1.18-1.06,2.77-1.58,4.75-1.58s3.57.5,4.75,1.49c1.18.99,1.78,2.27,1.78,3.84,0,1.66-.59,3.03-1.78,4.1-1.18,1.07-2.77,1.61-4.75,1.61ZM812.54,490.91v-26.26h10.85v26.26h-10.85Z"/>
    <path class="cls-4" d="M839.71,491.39c-2.27,0-4.38-.55-6.31-1.66-1.94-1.1-3.48-2.67-4.63-4.7-1.15-2.03-1.73-4.46-1.73-7.27s.58-5.24,1.73-7.27c1.15-2.03,2.7-3.59,4.63-4.68,1.94-1.09,4.04-1.63,6.31-1.63s4.19.49,5.66,1.46c1.47.98,2.56,2.46,3.26,4.46.7,2,1.06,4.55,1.06,7.66s-.33,5.71-.98,7.73c-.66,2.02-1.71,3.5-3.17,4.46s-3.4,1.44-5.83,1.44ZM842.3,482.94c.8,0,1.52-.19,2.16-.58.64-.38,1.15-.97,1.54-1.75s.58-1.74.58-2.86-.19-2.1-.58-2.86-.9-1.32-1.54-1.7c-.64-.38-1.36-.58-2.16-.58s-1.52.19-2.16.58c-.64.38-1.15.95-1.54,1.7-.38.75-.58,1.7-.58,2.86s.19,2.07.58,2.86c.38.78.9,1.37,1.54,1.75.64.38,1.36.58,2.16.58ZM846.91,490.91v-3.55l-.05-9.6-.48-9.6v-12.86h10.85v35.62h-10.32Z"/>
    <path class="cls-4" d="M873.55,491.39c-2.27,0-4.38-.55-6.31-1.66-1.94-1.1-3.48-2.67-4.63-4.7-1.15-2.03-1.73-4.46-1.73-7.27s.58-5.24,1.73-7.27c1.15-2.03,2.7-3.59,4.63-4.68,1.94-1.09,4.04-1.63,6.31-1.63s4.19.49,5.66,1.46c1.47.98,2.56,2.46,3.26,4.46.7,2,1.06,4.55,1.06,7.66s-.33,5.71-.98,7.73c-.66,2.02-1.71,3.5-3.17,4.46s-3.4,1.44-5.83,1.44ZM876.14,482.94c.8,0,1.52-.19,2.16-.58.64-.38,1.15-.97,1.54-1.75s.58-1.74.58-2.86-.19-2.1-.58-2.86-.9-1.32-1.54-1.7c-.64-.38-1.36-.58-2.16-.58s-1.52.19-2.16.58c-.64.38-1.15.95-1.54,1.7-.38.75-.58,1.7-.58,2.86s.19,2.07.58,2.86c.38.78.9,1.37,1.54,1.75.64.38,1.36.58,2.16.58ZM880.75,490.91v-3.55l-.05-9.6-.48-9.6v-12.86h10.85v35.62h-10.32Z"/>
    <path class="cls-4" d="M895.87,490.91v-35.62h10.85v35.62h-10.85Z"/>
    <path class="cls-4" d="M926.01,491.39c-3.2,0-5.99-.59-8.38-1.78s-4.23-2.81-5.54-4.87c-1.31-2.06-1.97-4.39-1.97-6.98s.65-5.01,1.94-7.06,3.07-3.65,5.33-4.8c2.26-1.15,4.79-1.73,7.61-1.73,2.59,0,4.98.51,7.18,1.54,2.19,1.02,3.95,2.54,5.28,4.56,1.33,2.02,1.99,4.51,1.99,7.49,0,.38-.02.81-.05,1.27-.03.46-.06.89-.1,1.27h-20.21v-5.23h14.45l-4.08,1.39c0-1.02-.18-1.9-.55-2.62s-.87-1.28-1.51-1.68c-.64-.4-1.41-.6-2.3-.6s-1.67.2-2.33.6c-.66.4-1.16.96-1.51,1.68s-.53,1.59-.53,2.62v1.63c0,1.12.22,2.08.67,2.88.45.8,1.09,1.4,1.92,1.8.83.4,1.84.6,3.02.6s2.21-.16,3-.48c.78-.32,1.61-.8,2.47-1.44l5.66,5.71c-1.28,1.38-2.86,2.42-4.73,3.14-1.87.72-4.12,1.08-6.74,1.08Z"/>
    <path class="cls-4" d="M970.12,491.68c-2.82,0-5.54-.32-8.16-.96s-4.78-1.47-6.48-2.5l3.65-8.26c1.6.93,3.38,1.67,5.35,2.23s3.88.84,5.74.84c1.09,0,1.94-.07,2.57-.22.62-.14,1.08-.35,1.37-.62s.43-.6.43-.98c0-.61-.34-1.09-1.01-1.44-.67-.35-1.56-.65-2.66-.89-1.1-.24-2.31-.5-3.62-.77-1.31-.27-2.63-.63-3.96-1.08s-2.54-1.04-3.65-1.78c-1.1-.74-1.99-1.7-2.66-2.9-.67-1.2-1.01-2.7-1.01-4.49,0-2.08.58-3.98,1.75-5.69,1.17-1.71,2.91-3.08,5.23-4.1s5.21-1.54,8.66-1.54c2.27,0,4.51.24,6.72.72,2.21.48,4.19,1.22,5.95,2.21l-3.41,8.21c-1.67-.83-3.27-1.46-4.82-1.87-1.55-.42-3.06-.62-4.54-.62-1.09,0-1.95.1-2.59.29-.64.19-1.1.45-1.37.77-.27.32-.41.67-.41,1.06,0,.58.34,1.03,1.01,1.37s1.56.62,2.66.84c1.1.22,2.32.46,3.65.72,1.33.26,2.65.61,3.96,1.06,1.31.45,2.52,1.04,3.62,1.78,1.1.74,1.99,1.7,2.66,2.88.67,1.18,1.01,2.66,1.01,4.42,0,2.05-.58,3.93-1.75,5.64-1.17,1.71-2.9,3.09-5.21,4.13-2.3,1.04-5.2,1.56-8.69,1.56Z"/>
    <path class="cls-4" d="M1002.91,491.39c-3.01,0-5.68-.58-8.02-1.73-2.34-1.15-4.17-2.76-5.5-4.82-1.33-2.06-1.99-4.42-1.99-7.08s.66-5.01,1.99-7.06c1.33-2.05,3.16-3.65,5.5-4.8,2.33-1.15,5.01-1.73,8.02-1.73,3.2,0,5.94.69,8.21,2.06s3.84,3.28,4.7,5.71l-8.4,4.13c-.54-1.22-1.21-2.1-1.99-2.64-.79-.54-1.64-.82-2.57-.82-.8,0-1.54.19-2.23.58-.69.38-1.23.95-1.63,1.7s-.6,1.7-.6,2.86.2,2.11.6,2.88c.4.77.94,1.34,1.63,1.73.69.38,1.43.58,2.23.58.93,0,1.78-.27,2.57-.82.78-.54,1.45-1.42,1.99-2.64l8.4,4.13c-.86,2.43-2.43,4.34-4.7,5.71s-5.01,2.06-8.21,2.06Z"/>
    <path class="cls-4" d="M1036.55,464.18c2.02,0,3.84.41,5.47,1.22,1.63.82,2.92,2.09,3.86,3.82.94,1.73,1.42,3.97,1.42,6.72v14.98h-10.85v-13.1c0-1.63-.29-2.79-.86-3.48s-1.36-1.03-2.35-1.03c-.74,0-1.42.17-2.04.5s-1.12.89-1.49,1.66c-.37.77-.55,1.81-.55,3.12v12.34h-10.85v-35.62h10.85v17.04l-2.59-2.21c1.02-1.98,2.41-3.47,4.15-4.46,1.74-.99,3.69-1.49,5.83-1.49Z"/>
    <path class="cls-4" d="M1065.88,491.39c-2.98,0-5.61-.58-7.9-1.75-2.29-1.17-4.09-2.78-5.4-4.82-1.31-2.05-1.97-4.4-1.97-7.06s.66-5.01,1.97-7.06,3.11-3.65,5.4-4.8c2.29-1.15,4.92-1.73,7.9-1.73s5.62.58,7.92,1.73c2.3,1.15,4.1,2.75,5.4,4.8s1.94,4.4,1.94,7.06-.65,5.01-1.94,7.06c-1.3,2.05-3.1,3.66-5.4,4.82-2.3,1.17-4.94,1.75-7.92,1.75ZM1065.88,482.94c.8,0,1.52-.19,2.16-.58.64-.38,1.15-.97,1.54-1.75s.58-1.74.58-2.86-.19-2.1-.58-2.86-.9-1.32-1.54-1.7c-.64-.38-1.36-.58-2.16-.58s-1.52.19-2.16.58c-.64.38-1.15.95-1.54,1.7s-.58,1.7-.58,2.86.19,2.07.58,2.86.9,1.37,1.54,1.75c.64.38,1.36.58,2.16.58Z"/>
    <path class="cls-4" d="M1098.43,491.39c-2.98,0-5.61-.58-7.9-1.75-2.29-1.17-4.09-2.78-5.4-4.82-1.31-2.05-1.97-4.4-1.97-7.06s.66-5.01,1.97-7.06,3.11-3.65,5.4-4.8c2.29-1.15,4.92-1.73,7.9-1.73s5.62.58,7.92,1.73c2.3,1.15,4.1,2.75,5.4,4.8s1.94,4.4,1.94,7.06-.65,5.01-1.94,7.06c-1.3,2.05-3.1,3.66-5.4,4.82-2.3,1.17-4.94,1.75-7.92,1.75ZM1098.43,482.94c.8,0,1.52-.19,2.16-.58.64-.38,1.15-.97,1.54-1.75s.58-1.74.58-2.86-.19-2.1-.58-2.86-.9-1.32-1.54-1.7c-.64-.38-1.36-.58-2.16-.58s-1.52.19-2.16.58c-.64.38-1.15.95-1.54,1.7s-.58,1.7-.58,2.86.19,2.07.58,2.86.9,1.37,1.54,1.75c.64.38,1.36.58,2.16.58Z"/>
    <path class="cls-4" d="M1117.1,490.91v-35.62h10.85v35.62h-10.85Z"/>
  </g>
  <g>
    <path class="cls-4" d="M424.57,61.11l-16.13-50.33h17.5l13.03,42.49h-8.78l13.82-42.49h15.62l12.89,42.49h-8.42l13.61-42.49h16.13l-16.13,50.33h-18.22l-10.51-34.8h4.9l-11.09,34.8h-18.22Z"/>
    <path class="cls-4" d="M493.19,61.11l22.03-50.33h16.7l22.03,50.33h-17.57l-16.27-42.27h6.62l-16.27,42.27h-17.28ZM506.29,52.34l4.32-12.22h23.18l4.32,12.22h-31.82Z"/>
    <path class="cls-4" d="M567.64,61.11V23.94h-14.76v-13.16h46.51v13.16h-14.76v37.17h-16.99Z"/>
    <path class="cls-4" d="M629.85,62.26c-4.03,0-7.76-.64-11.2-1.91-3.43-1.27-6.41-3.08-8.93-5.43-2.52-2.35-4.48-5.13-5.87-8.34-1.39-3.21-2.09-6.76-2.09-10.64s.7-7.43,2.09-10.64c1.39-3.21,3.35-5.99,5.87-8.34,2.52-2.35,5.5-4.16,8.93-5.43,3.43-1.27,7.16-1.91,11.2-1.91,4.94,0,9.32.86,13.14,2.59,3.82,1.73,6.97,4.22,9.47,7.48l-10.73,9.56c-1.49-1.87-3.13-3.32-4.93-4.35-1.8-1.03-3.83-1.55-6.08-1.55-1.78,0-3.38.29-4.82.86-1.44.57-2.68,1.41-3.71,2.52-1.03,1.1-1.84,2.43-2.41,3.99-.58,1.56-.86,3.3-.86,5.21s.29,3.66.86,5.21c.58,1.56,1.38,2.89,2.41,3.99,1.03,1.1,2.27,1.94,3.71,2.52s3.05.86,4.82.86c2.26,0,4.28-.51,6.08-1.55,1.8-1.03,3.44-2.48,4.93-4.35l10.73,9.56c-2.5,3.21-5.65,5.69-9.47,7.44s-8.2,2.62-13.14,2.62Z"/>
    <path class="cls-4" d="M674.34,61.11h-16.99V10.78h16.99v50.33ZM691.19,42.56h-18v-13.95h18v13.95ZM690.04,10.78h16.99v50.33h-16.99V10.78Z"/>
    <path class="cls-4" d="M763.26,62.26c-4.08,0-7.86-.65-11.34-1.94-3.48-1.29-6.49-3.13-9.04-5.5-2.54-2.37-4.52-5.16-5.94-8.38-1.42-3.21-2.12-6.71-2.12-10.5s.71-7.34,2.12-10.53c1.42-3.19,3.4-5.97,5.94-8.34,2.54-2.37,5.56-4.21,9.04-5.5,3.48-1.29,7.26-1.94,11.34-1.94s7.92.65,11.38,1.94c3.46,1.29,6.46,3.13,9,5.5,2.54,2.37,4.52,5.15,5.94,8.34,1.42,3.19,2.12,6.7,2.12,10.53s-.71,7.29-2.12,10.5c-1.42,3.21-3.4,6-5.94,8.38-2.54,2.37-5.54,4.21-9,5.5s-7.25,1.94-11.38,1.94ZM763.26,48.53c1.58,0,3.06-.29,4.43-.86s2.57-1.4,3.6-2.48c1.03-1.08,1.84-2.4,2.41-3.95.58-1.56.86-3.32.86-5.28s-.29-3.73-.86-5.28c-.58-1.56-1.38-2.88-2.41-3.95-1.03-1.08-2.23-1.91-3.6-2.48-1.37-.58-2.84-.86-4.43-.86s-3.06.29-4.43.86c-1.37.57-2.57,1.4-3.6,2.48-1.03,1.08-1.84,2.4-2.41,3.95-.58,1.56-.86,3.32-.86,5.28s.29,3.73.86,5.28c.58,1.56,1.38,2.88,2.41,3.95,1.03,1.08,2.23,1.91,3.6,2.48s2.84.86,4.43.86Z"/>
    <path class="cls-4" d="M797.89,61.11V10.78h13.97l25.63,30.63h-6.48V10.78h16.56v50.33h-13.97l-25.63-30.63h6.48v30.63h-16.56Z"/>
    <path class="cls-4" d="M892.28,61.83c-3.36,0-6.67-.36-9.94-1.08-3.27-.72-5.9-1.65-7.92-2.8l4.46-10.71c1.87,1.1,4.04,1.97,6.52,2.59,2.47.62,4.88.93,7.24.93,1.97,0,3.3-.17,4-.5.7-.33,1.04-.79,1.04-1.37s-.41-.99-1.22-1.26c-.82-.26-1.9-.47-3.24-.61-1.34-.14-2.82-.32-4.43-.54-1.61-.21-3.23-.54-4.86-.97-1.63-.43-3.12-1.08-4.46-1.94-1.34-.86-2.42-2.02-3.24-3.49-.82-1.46-1.22-3.32-1.22-5.57,0-2.49.76-4.75,2.27-6.76,1.51-2.01,3.77-3.63,6.77-4.85,3-1.22,6.71-1.83,11.12-1.83,2.88,0,5.76.26,8.64.79,2.88.53,5.35,1.34,7.42,2.44l-4.46,10.71c-2.02-1.1-4-1.86-5.94-2.26-1.94-.41-3.76-.61-5.44-.61-2.06,0-3.47.19-4.21.58-.74.38-1.12.82-1.12,1.29,0,.58.41,1.01,1.22,1.29.82.29,1.9.5,3.24.65,1.34.14,2.82.32,4.43.54,1.61.22,3.22.55,4.82,1.01,1.61.46,3.08,1.11,4.43,1.98,1.34.86,2.42,2.03,3.24,3.49.82,1.46,1.22,3.32,1.22,5.57s-.74,4.54-2.23,6.58c-1.49,2.04-3.74,3.67-6.77,4.89-3.02,1.22-6.82,1.83-11.38,1.83Z"/>
    <path class="cls-4" d="M944.91,21.06c3.02,0,5.76.61,8.21,1.83,2.45,1.22,4.38,3.13,5.8,5.72,1.42,2.59,2.12,5.94,2.12,10.07v22.43h-16.27v-19.63c0-2.44-.43-4.18-1.3-5.21-.86-1.03-2.04-1.55-3.53-1.55-1.1,0-2.12.25-3.06.75-.94.5-1.68,1.33-2.23,2.48-.55,1.15-.83,2.71-.83,4.67v18.48h-16.27V7.76h16.27v25.52l-3.89-3.31c1.54-2.97,3.61-5.2,6.23-6.69,2.62-1.48,5.53-2.23,8.75-2.23Z"/>
    <path class="cls-4" d="M989.84,61.83c-4.8,0-8.99-.89-12.56-2.66-3.58-1.77-6.35-4.21-8.32-7.3-1.97-3.09-2.95-6.58-2.95-10.46s.97-7.5,2.92-10.57c1.94-3.07,4.61-5.46,7.99-7.19,3.38-1.73,7.19-2.59,11.41-2.59,3.89,0,7.48.77,10.76,2.3,3.29,1.53,5.93,3.81,7.92,6.83,1.99,3.02,2.99,6.76,2.99,11.22,0,.58-.02,1.21-.07,1.91-.05.7-.1,1.33-.14,1.91h-30.31v-7.84h21.67l-6.12,2.08c0-1.53-.28-2.84-.83-3.92-.55-1.08-1.31-1.92-2.27-2.52-.96-.6-2.11-.9-3.46-.9s-2.51.3-3.49.9c-.98.6-1.74,1.44-2.27,2.52-.53,1.08-.79,2.38-.79,3.92v2.44c0,1.68.34,3.12,1.01,4.31.67,1.2,1.63,2.1,2.88,2.7,1.25.6,2.76.9,4.54.9s3.32-.24,4.5-.72c1.18-.48,2.41-1.2,3.71-2.16l8.5,8.56c-1.92,2.06-4.28,3.63-7.09,4.71-2.81,1.08-6.18,1.62-10.12,1.62Z"/>
    <path class="cls-4" d="M1015.11,61.11V7.76h16.27v53.35h-16.27Z"/>
    <path class="cls-4" d="M1038.58,61.11V7.76h16.27v19.27l-.72,14.38-.07,14.38v5.32h-15.48ZM1064.86,61.83c-3.6,0-6.5-.72-8.71-2.16-2.21-1.44-3.8-3.67-4.79-6.69-.98-3.02-1.48-6.88-1.48-11.58s.53-8.47,1.58-11.47c1.05-2.99,2.7-5.22,4.93-6.69,2.23-1.46,5.05-2.19,8.46-2.19s6.62.82,9.5,2.44c2.88,1.63,5.18,3.97,6.91,7.01,1.73,3.04,2.59,6.67,2.59,10.89s-.86,7.85-2.59,10.89c-1.73,3.04-4.03,5.39-6.91,7.04-2.88,1.65-6.05,2.48-9.5,2.48ZM1060.98,49.17c1.2,0,2.28-.29,3.24-.86.96-.58,1.73-1.45,2.3-2.62.58-1.17.86-2.6.86-4.28s-.29-3.15-.86-4.28c-.58-1.13-1.34-1.98-2.3-2.55-.96-.58-2.04-.86-3.24-.86s-2.28.29-3.24.86c-.96.58-1.73,1.43-2.3,2.55-.58,1.13-.86,2.55-.86,4.28s.29,3.1.86,4.28c.58,1.17,1.34,2.05,2.3,2.62.96.58,2.04.86,3.24.86Z"/>
    <path class="cls-4" d="M1101.44,62.91l-17.14-41.12h16.7l11.81,30.63-11.38,10.5ZM1097.62,75.78c-2.16,0-4.36-.32-6.59-.97-2.23-.65-4.02-1.5-5.36-2.55l5.4-11.14c.82.62,1.74,1.13,2.77,1.51,1.03.38,2.03.58,2.99.58,1.44,0,2.54-.3,3.31-.9.77-.6,1.39-1.5,1.87-2.7l1.66-4.17,1.15-1.58,12.6-32.06h15.41l-16.2,40.12c-1.44,3.59-3.11,6.4-5,8.41-1.9,2.01-4.01,3.43-6.34,4.24-2.33.81-4.88,1.22-7.67,1.22Z"/>
    <path class="cls-4" d="M1135.35,61.11V21.78h15.48v11.86l-2.52-3.38c1.2-3.07,3.12-5.37,5.76-6.9,2.64-1.53,5.81-2.3,9.5-2.3v14.38c-.72-.1-1.36-.17-1.91-.22-.55-.05-1.12-.07-1.69-.07-2.45,0-4.45.64-6.01,1.91-1.56,1.27-2.34,3.46-2.34,6.58v17.47h-16.27Z"/>
    <path class="cls-4" d="M1188.99,61.83c-4.46,0-8.41-.87-11.84-2.62-3.43-1.75-6.13-4.16-8.1-7.23-1.97-3.07-2.95-6.59-2.95-10.57s.98-7.5,2.95-10.57c1.97-3.07,4.67-5.46,8.1-7.19,3.43-1.73,7.38-2.59,11.84-2.59s8.42.86,11.88,2.59c3.46,1.73,6.16,4.12,8.1,7.19,1.94,3.07,2.92,6.59,2.92,10.57s-.97,7.5-2.92,10.57c-1.94,3.07-4.64,5.48-8.1,7.23-3.46,1.75-7.42,2.62-11.88,2.62ZM1188.99,49.17c1.2,0,2.28-.29,3.24-.86.96-.58,1.73-1.45,2.3-2.62.58-1.17.86-2.6.86-4.28s-.29-3.15-.86-4.28c-.58-1.13-1.34-1.98-2.3-2.55-.96-.58-2.04-.86-3.24-.86s-2.28.29-3.24.86c-.96.58-1.73,1.43-2.3,2.55-.58,1.13-.86,2.55-.86,4.28s.29,3.1.86,4.28c.58,1.17,1.34,2.05,2.3,2.62.96.58,2.04.86,3.24.86Z"/>
    <path class="cls-4" d="M1217,61.11V7.76h16.27v19.27l-.72,14.38-.07,14.38v5.32h-15.48ZM1243.28,61.83c-3.6,0-6.5-.72-8.71-2.16-2.21-1.44-3.8-3.67-4.79-6.69-.98-3.02-1.48-6.88-1.48-11.58s.53-8.47,1.58-11.47c1.05-2.99,2.7-5.22,4.93-6.69,2.23-1.46,5.05-2.19,8.46-2.19s6.62.82,9.5,2.44c2.88,1.63,5.18,3.97,6.91,7.01,1.73,3.04,2.59,6.67,2.59,10.89s-.86,7.85-2.59,10.89c-1.73,3.04-4.03,5.39-6.91,7.04-2.88,1.65-6.05,2.48-9.5,2.48ZM1239.39,49.17c1.2,0,2.28-.29,3.24-.86.96-.58,1.73-1.45,2.3-2.62.58-1.17.86-2.6.86-4.28s-.29-3.15-.86-4.28c-.58-1.13-1.34-1.98-2.3-2.55-.96-.58-2.04-.86-3.24-.86s-2.28.29-3.24.86c-.96.58-1.73,1.43-2.3,2.55-.58,1.13-.86,2.55-.86,4.28s.29,3.1.86,4.28c.58,1.17,1.34,2.05,2.3,2.62.96.58,2.04.86,3.24.86Z"/>
    <path class="cls-4" d="M1288.21,61.83c-4.46,0-8.41-.87-11.84-2.62-3.43-1.75-6.13-4.16-8.1-7.23-1.97-3.07-2.95-6.59-2.95-10.57s.98-7.5,2.95-10.57c1.97-3.07,4.67-5.46,8.1-7.19,3.43-1.73,7.38-2.59,11.84-2.59s8.42.86,11.88,2.59c3.46,1.73,6.16,4.12,8.1,7.19,1.94,3.07,2.92,6.59,2.92,10.57s-.97,7.5-2.92,10.57c-1.94,3.07-4.64,5.48-8.1,7.23-3.46,1.75-7.42,2.62-11.88,2.62ZM1288.21,49.17c1.2,0,2.28-.29,3.24-.86.96-.58,1.73-1.45,2.3-2.62.58-1.17.86-2.6.86-4.28s-.29-3.15-.86-4.28c-.58-1.13-1.34-1.98-2.3-2.55-.96-.58-2.04-.86-3.24-.86s-2.28.29-3.24.86c-.96.58-1.73,1.43-2.3,2.55-.58,1.13-.86,2.55-.86,4.28s.29,3.1.86,4.28c.58,1.17,1.34,2.05,2.3,2.62.96.58,2.04.86,3.24.86Z"/>
    <path class="cls-4" d="M1312.61,35.8v-11.86h29.74v11.86h-29.74ZM1335.22,61.83c-5.42,0-9.65-1.3-12.67-3.92-3.02-2.61-4.54-6.63-4.54-12.04V12.94h16.27v32.78c0,1.2.32,2.13.97,2.8.65.67,1.45,1.01,2.41,1.01,1.39,0,2.62-.36,3.67-1.08l3.89,11.29c-1.25.72-2.75,1.25-4.5,1.58-1.75.33-3.59.5-5.51.5Z"/>
    <path class="cls-4" d="M1357.47,18.62c-2.98,0-5.35-.79-7.13-2.37-1.78-1.58-2.66-3.55-2.66-5.9s.89-4.31,2.66-5.9c1.77-1.58,4.15-2.37,7.13-2.37s5.35.74,7.13,2.23c1.78,1.49,2.66,3.4,2.66,5.75,0,2.49-.89,4.54-2.66,6.15-1.78,1.61-4.15,2.41-7.13,2.41ZM1349.33,61.11V21.78h16.27v39.33h-16.27Z"/>
    <path class="cls-4" d="M1393.97,61.83c-4.51,0-8.52-.86-12.02-2.59-3.5-1.73-6.25-4.13-8.24-7.23-1.99-3.09-2.99-6.62-2.99-10.6s1-7.5,2.99-10.57c1.99-3.07,4.74-5.46,8.24-7.19,3.5-1.73,7.51-2.59,12.02-2.59,4.8,0,8.9,1.03,12.31,3.09,3.41,2.06,5.76,4.91,7.06,8.56l-12.6,6.18c-.82-1.82-1.81-3.14-2.99-3.95-1.18-.81-2.46-1.22-3.85-1.22-1.2,0-2.32.29-3.35.86s-1.85,1.43-2.45,2.55c-.6,1.13-.9,2.55-.9,4.28s.3,3.16.9,4.31c.6,1.15,1.42,2.01,2.45,2.59s2.15.86,3.35.86c1.39,0,2.67-.41,3.85-1.22,1.18-.81,2.17-2.13,2.99-3.95l12.6,6.18c-1.3,3.64-3.65,6.5-7.06,8.56-3.41,2.06-7.51,3.09-12.31,3.09Z"/>
    <path class="cls-4" d="M1432.49,61.83c-3.36,0-6.67-.36-9.94-1.08-3.26-.72-5.9-1.65-7.92-2.8l4.46-10.71c1.87,1.1,4.04,1.97,6.52,2.59,2.47.62,4.88.93,7.24.93,1.97,0,3.3-.17,4-.5.7-.33,1.04-.79,1.04-1.37s-.41-.99-1.22-1.26c-.82-.26-1.9-.47-3.24-.61-1.34-.14-2.82-.32-4.43-.54-1.61-.21-3.23-.54-4.86-.97-1.63-.43-3.12-1.08-4.46-1.94-1.34-.86-2.42-2.02-3.24-3.49-.82-1.46-1.22-3.32-1.22-5.57,0-2.49.76-4.75,2.27-6.76,1.51-2.01,3.77-3.63,6.77-4.85s6.71-1.83,11.12-1.83c2.88,0,5.76.26,8.64.79,2.88.53,5.35,1.34,7.42,2.44l-4.46,10.71c-2.02-1.1-4-1.86-5.94-2.26-1.94-.41-3.76-.61-5.44-.61-2.06,0-3.47.19-4.21.58-.74.38-1.12.82-1.12,1.29,0,.58.41,1.01,1.22,1.29.82.29,1.9.5,3.24.65,1.34.14,2.82.32,4.43.54,1.61.22,3.22.55,4.82,1.01,1.61.46,3.08,1.11,4.43,1.98s2.42,2.03,3.24,3.49c.82,1.46,1.22,3.32,1.22,5.57s-.74,4.54-2.23,6.58c-1.49,2.04-3.74,3.67-6.77,4.89-3.02,1.22-6.82,1.83-11.38,1.83Z"/>
    <path class="cls-4" d="M1465.11,61.83c-2.69,0-4.94-.87-6.77-2.62-1.82-1.75-2.74-3.99-2.74-6.72s.91-5.01,2.74-6.69c1.82-1.68,4.08-2.52,6.77-2.52s4.94.84,6.77,2.52c1.82,1.68,2.74,3.91,2.74,6.69s-.91,4.97-2.74,6.72c-1.82,1.75-4.08,2.62-6.77,2.62Z"/>
    <path class="cls-4" d="M1500.82,61.83c-4.51,0-8.52-.86-12.02-2.59-3.5-1.73-6.25-4.13-8.24-7.23-1.99-3.09-2.99-6.62-2.99-10.6s1-7.5,2.99-10.57c1.99-3.07,4.74-5.46,8.24-7.19,3.5-1.73,7.51-2.59,12.02-2.59,4.8,0,8.9,1.03,12.31,3.09,3.41,2.06,5.76,4.91,7.06,8.56l-12.6,6.18c-.82-1.82-1.81-3.14-2.99-3.95-1.18-.81-2.46-1.22-3.85-1.22-1.2,0-2.32.29-3.35.86s-1.85,1.43-2.45,2.55c-.6,1.13-.9,2.55-.9,4.28s.3,3.16.9,4.31c.6,1.15,1.42,2.01,2.45,2.59s2.15.86,3.35.86c1.39,0,2.67-.41,3.85-1.22,1.18-.81,2.17-2.13,2.99-3.95l12.6,6.18c-1.3,3.64-3.65,6.5-7.06,8.56-3.41,2.06-7.51,3.09-12.31,3.09Z"/>
    <path class="cls-4" d="M1544.74,61.83c-4.46,0-8.41-.87-11.84-2.62-3.43-1.75-6.13-4.16-8.1-7.23-1.97-3.07-2.95-6.59-2.95-10.57s.98-7.5,2.95-10.57c1.97-3.07,4.67-5.46,8.1-7.19,3.43-1.73,7.38-2.59,11.84-2.59s8.42.86,11.88,2.59c3.46,1.73,6.16,4.12,8.1,7.19,1.94,3.07,2.92,6.59,2.92,10.57s-.97,7.5-2.92,10.57c-1.94,3.07-4.64,5.48-8.1,7.23-3.46,1.75-7.42,2.62-11.88,2.62ZM1544.74,49.17c1.2,0,2.28-.29,3.24-.86.96-.58,1.73-1.45,2.3-2.62.58-1.17.86-2.6.86-4.28s-.29-3.15-.86-4.28c-.58-1.13-1.34-1.98-2.3-2.55-.96-.58-2.04-.86-3.24-.86s-2.28.29-3.24.86c-.96.58-1.73,1.43-2.3,2.55-.58,1.13-.86,2.55-.86,4.28s.29,3.1.86,4.28c.58,1.17,1.34,2.05,2.3,2.62.96.58,2.04.86,3.24.86Z"/>
    <path class="cls-4" d="M1624.88,21.06c2.98,0,5.65.61,8.03,1.83s4.25,3.13,5.62,5.72c1.37,2.59,2.05,5.94,2.05,10.07v22.43h-16.27v-19.63c0-2.44-.41-4.18-1.22-5.21-.82-1.03-1.87-1.55-3.17-1.55-.96,0-1.82.24-2.59.72-.77.48-1.38,1.23-1.84,2.26-.46,1.03-.68,2.43-.68,4.21v19.2h-16.27v-19.63c0-2.44-.38-4.18-1.15-5.21-.77-1.03-1.85-1.55-3.24-1.55-.96,0-1.83.24-2.59.72-.77.48-1.38,1.23-1.84,2.26-.46,1.03-.68,2.43-.68,4.21v19.2h-16.27V21.78h15.48v11.29l-3.17-3.16c1.49-2.97,3.48-5.19,5.98-6.65,2.5-1.46,5.28-2.19,8.35-2.19,3.46,0,6.52.9,9.18,2.7,2.66,1.8,4.45,4.64,5.36,8.52l-4.97-.79c1.44-3.26,3.54-5.81,6.3-7.66,2.76-1.84,5.96-2.77,9.61-2.77Z"/>
    <path class="cls-4" d="M1641.15,68.3L1664.91.57h14.4l-23.76,67.72h-14.4Z"/>
    <path class="cls-4" d="M1688.95,61.11l-13.68-39.33h15.41l10.37,31.92h-7.42l10.87-31.92h13.82l10.37,31.92h-7.2l10.73-31.92h14.26l-13.68,39.33h-15.84l-8.28-25.31h4.75l-8.64,25.31h-15.84Z"/>
    <path class="cls-4" d="M1762.32,61.83c-3.22,0-5.9-.55-8.06-1.65s-3.79-2.58-4.9-4.42c-1.11-1.84-1.66-3.89-1.66-6.15,0-2.54.65-4.7,1.94-6.47,1.3-1.77,3.28-3.11,5.94-4.03,2.66-.91,6.04-1.37,10.12-1.37h8.21v7.84h-5.62c-1.73,0-2.99.28-3.78.83-.79.55-1.19,1.38-1.19,2.48,0,.91.35,1.67,1.04,2.26.7.6,1.64.9,2.84.9,1.1,0,2.12-.3,3.06-.9.94-.6,1.62-1.55,2.05-2.84l2.09,4.82c-.62,2.92-1.94,5.1-3.96,6.54-2.02,1.44-4.73,2.16-8.14,2.16ZM1773.48,61.11v-6.97l-1.15-1.87v-13.23c0-1.92-.59-3.38-1.76-4.39-1.18-1.01-3.08-1.51-5.72-1.51-1.78,0-3.58.28-5.4.83-1.82.55-3.38,1.31-4.68,2.26l-5.18-10.71c2.3-1.44,5.06-2.54,8.28-3.31,3.22-.77,6.36-1.15,9.43-1.15,6.77,0,12.01,1.51,15.73,4.53s5.58,7.81,5.58,14.38v21.14h-15.12Z"/>
    <path class="cls-4" d="M1792.06,35.8v-11.86h29.74v11.86h-29.74ZM1814.67,61.83c-5.42,0-9.65-1.3-12.67-3.92-3.02-2.61-4.54-6.63-4.54-12.04V12.94h16.27v32.78c0,1.2.32,2.13.97,2.8.65.67,1.45,1.01,2.41,1.01,1.39,0,2.62-.36,3.67-1.08l3.89,11.29c-1.25.72-2.75,1.25-4.5,1.58-1.75.33-3.59.5-5.51.5Z"/>
    <path class="cls-4" d="M1849.94,61.83c-4.51,0-8.52-.86-12.02-2.59-3.5-1.73-6.25-4.13-8.24-7.23-1.99-3.09-2.99-6.62-2.99-10.6s1-7.5,2.99-10.57c1.99-3.07,4.74-5.46,8.24-7.19,3.5-1.73,7.51-2.59,12.02-2.59,4.8,0,8.9,1.03,12.31,3.09,3.41,2.06,5.76,4.91,7.06,8.56l-12.6,6.18c-.82-1.82-1.81-3.14-2.99-3.95-1.18-.81-2.46-1.22-3.85-1.22-1.2,0-2.32.29-3.35.86s-1.85,1.43-2.45,2.55c-.6,1.13-.9,2.55-.9,4.28s.3,3.16.9,4.31c.6,1.15,1.42,2.01,2.45,2.59s2.15.86,3.35.86c1.39,0,2.67-.41,3.85-1.22,1.18-.81,2.17-2.13,2.99-3.95l12.6,6.18c-1.3,3.64-3.65,6.5-7.06,8.56-3.41,2.06-7.51,3.09-12.31,3.09Z"/>
    <path class="cls-4" d="M1900.42,21.06c3.02,0,5.76.61,8.21,1.83s4.38,3.13,5.8,5.72c1.42,2.59,2.12,5.94,2.12,10.07v22.43h-16.27v-19.63c0-2.44-.43-4.18-1.3-5.21-.86-1.03-2.04-1.55-3.53-1.55-1.1,0-2.12.25-3.06.75-.94.5-1.68,1.33-2.23,2.48-.55,1.15-.83,2.71-.83,4.67v18.48h-16.27V7.76h16.27v25.52l-3.89-3.31c1.54-2.97,3.61-5.2,6.23-6.69,2.62-1.48,5.53-2.23,8.75-2.23Z"/>
  </g>
</svg>