<?xml version="1.0" encoding="UTF-8"?>
<svg id="Layer_1" data-name="Layer 1" xmlns="http://www.w3.org/2000/svg" viewBox="0 0 1872.22 420.67">
  <defs>
    <style>
      .cls-1, .cls-2 {
        fill: #292d45;
      }

      .cls-3 {
        fill: #fff;
      }

      .cls-2 {
        stroke: #292d45;
        stroke-linecap: round;
        stroke-linejoin: round;
        stroke-width: 25px;
      }

      .cls-4 {
        fill: none;
      }

      .cls-5, .cls-6 {
        fill: #231f20;
      }

      .cls-7 {
        fill: #fbf4a2;
        stroke: #659ad2;
      }

      .cls-7, .cls-8, .cls-6 {
        stroke-miterlimit: 10;
        stroke-width: 7px;
      }

      .cls-8 {
        fill: #262767;
        stroke: #121230;
      }

      .cls-6 {
        stroke: #ffc517;
      }
    </style>
  </defs>
  <g>
    <circle class="cls-1" cx="227.17" cy="201.39" r="80.96"/>
    <path class="cls-5" d="M344.28,230.62v-58.6h-18.9c-2.03-6.82-4.74-13.34-8.07-19.49l13.37-13.37-41.44-41.44h0l-13.36,13.35c-6.14-3.33-12.66-6.04-19.48-8.07v-18.88h-58.6v18.89c-6.82,2.03-13.34,4.75-19.49,8.07l-13.36-13.37h0l-41.44,41.44,13.37,13.37c-3.33,6.15-6.04,12.67-8.07,19.49h-18.9v58.6h18.9c2.03,6.82,4.74,13.34,8.07,19.49l-13.37,13.37,41.44,41.44h0l13.36-13.35c6.14,3.33,12.66,6.04,19.48,8.07v18.88h58.6v-18.89c6.82-2.03,13.34-4.75,19.49-8.07l13.36,13.37h0l41.44-41.44-13.37-13.37c3.33-6.15,6.04-12.67,8.07-19.49h18.9ZM227.17,282.35c-44.71,0-80.96-36.25-80.96-80.96s36.25-80.96,80.96-80.96,80.96,36.25,80.96,80.96-36.25,80.96-80.96,80.96Z"/>
    <path class="cls-3" d="M226.34,239.26c-6.04,0-11.81-.75-17.32-2.24-5.51-1.49-9.97-3.38-13.37-5.67l6.76-15.3c3.26,2.08,7.02,3.8,11.29,5.15,4.27,1.35,8.52,2.03,12.75,2.03,2.91,0,5.22-.24,6.92-.73,1.7-.49,2.95-1.18,3.75-2.08.8-.9,1.2-1.98,1.2-3.23,0-1.59-.76-2.86-2.29-3.8-1.53-.94-3.52-1.73-5.98-2.39-2.46-.66-5.14-1.28-8.01-1.87-2.88-.59-5.81-1.37-8.79-2.34-2.98-.97-5.69-2.25-8.12-3.85-2.43-1.59-4.39-3.68-5.88-6.24-1.49-2.57-2.24-5.79-2.24-9.68,0-4.3,1.18-8.22,3.54-11.76,2.36-3.54,5.93-6.38,10.72-8.53,4.79-2.15,10.75-3.23,17.9-3.23,4.79,0,9.49.54,14.1,1.61,4.61,1.08,8.69,2.69,12.23,4.84l-6.24,15.19c-3.47-1.94-6.9-3.36-10.3-4.27-3.4-.9-6.69-1.35-9.88-1.35-2.85,0-5.14.31-6.87.94-1.73.62-2.98,1.42-3.75,2.39-.76.97-1.14,2.01-1.14,3.12,0,1.66.76,2.96,2.29,3.9,1.53.94,3.5,1.7,5.93,2.29,2.43.59,5.11,1.2,8.06,1.82,2.95.62,5.88,1.4,8.79,2.34,2.91.94,5.6,2.18,8.06,3.75s4.46,3.61,5.98,6.14c1.53,2.53,2.29,5.71,2.29,9.52,0,4.23-1.2,8.13-3.59,11.7-2.39,3.57-5.98,6.43-10.77,8.58-4.79,2.15-10.79,3.23-18,3.23h0Z"/>
    <g id="_Radial_Repeat_" data-name="&amp;lt;Radial Repeat&amp;gt;">
      <path class="cls-6" d="M60.82,165.93l-54.68,30.65c-3.47,1.95-3.53,6.91-.11,8.95l53.88,32.04c3.42,2.03,7.75-.4,7.8-4.37l.8-62.68c.05-3.98-4.22-6.52-7.69-4.57h0ZM57.87,183.74l-.46,35.74c-.02,1.73-1.91,2.79-3.41,1.91l-30.73-18.27c-1.49-.89-1.46-3.05.05-3.9l31.18-17.48c1.51-.85,3.38.26,3.35,1.99h0Z"/>
    </g>
    <path class="cls-8" d="M338.32,47.57c-1.8,9.22-4.15,16.92-27.84,33.81-23.69-16.89-26.05-24.6-27.84-33.81-1.8-9.22,5.7-18.12,5.38-22.98s-4.83-10.51-4.83-10.51c6.05-1.55,5.9-6.15,5.9-6.15,14.2,6.77,21.39-2.29,21.39-2.29,0,0,7.19,9.06,21.39,2.29,0,0-.15,4.6,5.9,6.15,0,0-4.51,5.65-4.83,10.51-.32,4.87,7.18,13.77,5.38,22.98h0Z"/>
    <g>
      <g id="_Radial_Repeat_-2" data-name="&amp;lt;Radial Repeat&amp;gt;-2">
        <path class="cls-5" d="M338.08,92.48l58.14-37.04s38.64,179.18-42.09,260.7c0,0,32.65-115.53-16.05-223.66h0Z"/>
      </g>
      <g id="_Radial_Repeat_-3" data-name="&amp;lt;Radial Repeat&amp;gt;-3">
        <path class="cls-5" d="M266.04,351.79l3,68.87s-174.49-56.12-204.73-166.8c0,0,83.73,86.04,201.72,97.93h0Z"/>
      </g>
      <g id="_Radial_Repeat_-4" data-name="&amp;lt;Radial Repeat&amp;gt;-4">
        <path class="cls-5" d="M77.4,159.8l-61.15-31.84S152.11,4.91,263.07,34.07c0,0-116.37,29.49-185.67,125.73h0Z"/>
      </g>
    </g>
    <path class="cls-7" d="M299.93,330.93l.05-.03c.98-.57,2.22-.44,3.07.31,5.07,4.45,6.34,4.44,8.88-1.14.93-2.04,3.1-3.29,5.31-2.93,1.68.27,2.85,1.41,2.83,4.77-.01,2.29,4.62,3.19,6.44,1.27,1.76-1.86,2.84-3.92,6.09-1.97,2.95,1.77,1.97,3.56,1.31,5.86-.81,2.84,1.85,5.52,4.76,5.08,3.44-.53,5.65.47,6.62,3-1.35,3.38-3.3,5.96-3,8.25.22,1.61,3.5,2.81,6.31,4.83v3.71c-2.64,2.01-5.81,3.23-6.36,5.18-.54,1.92,1.6,4.58,3.08,8.18-.73,1.67-1.19,5.56-6.44,2.95-.95-.47-3.23.45-4.1,1.44-.8.91-.46,2.79-.75,4.21-.34,1.63-.37,3.65-1.36,4.75-1.7,1.89-3.58,1.58-5.41-.64-.91-1.11-3.26-2.1-4.41-1.67-1.34.5-1.95,2.73-3.12,4-1.07,1.16-2.41,2.78-3.71,2.84-1.28.07-3.36-1.27-3.85-2.49-2.29-5.68-3.89-5.97-8.58-2.34-.36.28-.83.43-1.36.49-2.89.33-5.28-2.25-4.88-5.13.58-4.18-.52-5.61-4.04-5.33-3.07.25-6.02-1.2-7.61-3.83l-.09-.15c6.36-7.87,6.01-9.38-2.66-11.16-.48-3.28-2.29-7,3.83-7.13.93-.02,2.33-1.63,2.59-2.72.3-1.29.06-3.22-.76-4.15-1.53-1.73-3.59-2.7-1.93-5.7,1.55-2.8,3.18-2.49,5.75-1.7,1.29.4,3.42-.61,4.6-1.64.72-.63.51-2.51.42-3.82,0-.07-.01-.15-.02-.22l1.61-4.68.88-.54ZM315.92,345.48c-8.58.05-14.99,6.41-14.87,14.77.12,8.19,6.94,14.68,15.3,14.55,8.26-.12,14.38-6.38,14.41-14.72.03-8.6-6.12-14.65-14.84-14.6h0Z"/>
  </g>
  <g>
    <rect class="cls-4" x="411.22" y="148.54" width="1461" height="109.21"/>
    <path d="M459.03,257.69c-8.45,0-16.61-.96-24.48-2.88-7.87-1.92-14.35-4.42-19.44-7.49l10.94-24.77c4.8,2.79,10.15,5.02,16.06,6.7,5.9,1.68,11.64,2.52,17.21,2.52,3.26,0,5.83-.22,7.7-.65,1.87-.43,3.24-1.05,4.1-1.87.86-.81,1.3-1.8,1.3-2.95,0-1.82-1.01-3.26-3.02-4.32-2.02-1.06-4.68-1.94-7.99-2.66s-6.94-1.49-10.87-2.3c-3.94-.81-7.9-1.89-11.88-3.24-3.98-1.34-7.63-3.12-10.94-5.33-3.31-2.21-5.98-5.11-7.99-8.71-2.02-3.6-3.02-8.09-3.02-13.46,0-6.24,1.75-11.93,5.26-17.06,3.5-5.13,8.73-9.24,15.7-12.31,6.96-3.07,15.62-4.61,25.99-4.61,6.82,0,13.54.72,20.16,2.16s12.58,3.65,17.86,6.62l-10.22,24.62c-4.99-2.5-9.82-4.37-14.47-5.62-4.66-1.25-9.19-1.87-13.61-1.87-3.26,0-5.86.29-7.78.86-1.92.58-3.29,1.35-4.1,2.3-.82.96-1.22,2.02-1.22,3.17,0,1.73,1.01,3.1,3.02,4.1,2.02,1.01,4.68,1.85,7.99,2.52,3.31.67,6.96,1.39,10.94,2.16,3.98.77,7.94,1.82,11.88,3.17,3.94,1.35,7.56,3.12,10.87,5.33,3.31,2.21,5.98,5.09,7.99,8.64,2.02,3.55,3.02,7.97,3.02,13.25,0,6.15-1.75,11.79-5.26,16.92-3.51,5.14-8.71,9.26-15.62,12.38-6.91,3.12-15.6,4.68-26.06,4.68Z"/>
    <path d="M550.03,255.39h-33.98v-100.8h33.98v100.8ZM583.73,218.24h-36v-27.94h36v27.94ZM581.43,154.59h33.98v100.8h-33.98v-100.8Z"/>
    <path d="M665.23,229.76h50.4v25.63h-83.81v-100.8h81.94v25.63h-48.53v49.54ZM662.93,192.03h44.93v24.48h-44.93v-24.48Z"/>
    <path d="M728.74,255.39v-100.8h33.98v74.45h45.5v26.35h-79.49Z"/>
    <path d="M817.58,255.39v-100.8h53.86c13.92,0,24.19,2.47,30.82,7.42,6.62,4.95,9.94,11.26,9.94,18.94,0,5.09-1.42,9.63-4.25,13.61-2.83,3.98-6.94,7.13-12.31,9.43-5.38,2.3-12,3.46-19.87,3.46l2.88-7.78c7.87,0,14.66,1.1,20.38,3.31,5.71,2.21,10.13,5.4,13.25,9.58,3.12,4.18,4.68,9.19,4.68,15.05,0,8.74-3.62,15.55-10.87,20.45-7.25,4.9-17.83,7.34-31.75,7.34h-56.74ZM850.99,231.63h20.45c3.74,0,6.55-.67,8.42-2.02,1.87-1.34,2.81-3.31,2.81-5.9s-.94-4.56-2.81-5.9c-1.87-1.34-4.68-2.02-8.42-2.02h-22.75v-22.46h18.14c3.84,0,6.65-.65,8.42-1.94,1.78-1.3,2.66-3.14,2.66-5.54s-.89-4.37-2.66-5.62c-1.78-1.25-4.59-1.87-8.42-1.87h-15.84v53.28Z"/>
    <path d="M952.65,255.39v-44.21l7.78,20.3-45.79-76.9h35.86l30.96,52.56h-20.88l31.25-52.56h32.83l-45.5,76.9,7.49-20.3v44.21h-33.98Z"/>
    <path d="M1072.17,255.39v-100.8h48.53c9.41,0,17.54,1.54,24.41,4.61,6.86,3.07,12.17,7.47,15.91,13.18,3.74,5.71,5.62,12.46,5.62,20.23s-1.87,14.47-5.62,20.09c-3.74,5.62-9.05,9.91-15.91,12.89-6.86,2.98-15,4.46-24.41,4.46h-29.66l15.12-13.97v39.31h-33.98ZM1106.16,219.82l-15.12-15.41h27.5c4.7,0,8.18-1.06,10.44-3.17,2.25-2.11,3.38-4.99,3.38-8.64s-1.13-6.53-3.38-8.64c-2.26-2.11-5.74-3.17-10.44-3.17h-27.5l15.12-15.41v54.43ZM1132.51,255.39l-24.77-36.72h36l25.06,36.72h-36.29Z"/>
    <path d="M1232.44,257.69c-8.26,0-15.87-1.3-22.82-3.89-6.96-2.59-12.98-6.26-18.07-11.02-5.09-4.75-9.05-10.34-11.88-16.78-2.83-6.43-4.25-13.44-4.25-21.02s1.42-14.71,4.25-21.1c2.83-6.38,6.79-11.95,11.88-16.7,5.09-4.75,11.11-8.42,18.07-11.02,6.96-2.59,14.52-3.89,22.68-3.89s15.84,1.3,22.75,3.89c6.91,2.59,12.91,6.26,18,11.02,5.09,4.75,9.05,10.32,11.88,16.7,2.83,6.39,4.25,13.42,4.25,21.1s-1.42,14.59-4.25,21.02c-2.83,6.43-6.79,12.02-11.88,16.78-5.09,4.75-11.09,8.42-18,11.02-6.91,2.59-14.45,3.89-22.61,3.89ZM1232.3,230.19c3.17,0,6.12-.58,8.86-1.73,2.74-1.15,5.13-2.81,7.2-4.97,2.06-2.16,3.67-4.8,4.82-7.92,1.15-3.12,1.73-6.65,1.73-10.58s-.58-7.46-1.73-10.58c-1.15-3.12-2.76-5.76-4.82-7.92-2.07-2.16-4.46-3.82-7.2-4.97s-5.69-1.73-8.86-1.73-6.12.58-8.86,1.73c-2.74,1.15-5.14,2.81-7.2,4.97-2.07,2.16-3.67,4.8-4.82,7.92-1.15,3.12-1.73,6.65-1.73,10.58s.58,7.47,1.73,10.58c1.15,3.12,2.76,5.76,4.82,7.92,2.06,2.16,4.46,3.82,7.2,4.97,2.74,1.15,5.69,1.73,8.86,1.73Z"/>
    <path d="M1301.56,255.39v-100.8h53.86c13.92,0,24.19,2.47,30.82,7.42,6.62,4.95,9.94,11.26,9.94,18.94,0,5.09-1.42,9.63-4.25,13.61-2.83,3.98-6.94,7.13-12.31,9.43-5.38,2.3-12,3.46-19.87,3.46l2.88-7.78c7.87,0,14.66,1.1,20.38,3.31,5.71,2.21,10.13,5.4,13.25,9.58,3.12,4.18,4.68,9.19,4.68,15.05,0,8.74-3.62,15.55-10.87,20.45-7.25,4.9-17.83,7.34-31.75,7.34h-56.74ZM1334.97,231.63h20.45c3.74,0,6.55-.67,8.42-2.02,1.87-1.34,2.81-3.31,2.81-5.9s-.94-4.56-2.81-5.9c-1.87-1.34-4.68-2.02-8.42-2.02h-22.75v-22.46h18.14c3.84,0,6.65-.65,8.42-1.94,1.78-1.3,2.66-3.14,2.66-5.54s-.89-4.37-2.66-5.62c-1.78-1.25-4.58-1.87-8.42-1.87h-15.84v53.28Z"/>
    <path d="M1465.86,257.69c-8.26,0-15.87-1.3-22.82-3.89-6.96-2.59-12.98-6.26-18.07-11.02-5.09-4.75-9.05-10.34-11.88-16.78-2.83-6.43-4.25-13.44-4.25-21.02s1.42-14.71,4.25-21.1c2.83-6.38,6.79-11.95,11.88-16.7,5.09-4.75,11.11-8.42,18.07-11.02,6.96-2.59,14.52-3.89,22.68-3.89s15.84,1.3,22.75,3.89c6.91,2.59,12.91,6.26,18,11.02,5.09,4.75,9.05,10.32,11.88,16.7,2.83,6.39,4.25,13.42,4.25,21.1s-1.42,14.59-4.25,21.02c-2.83,6.43-6.79,12.02-11.88,16.78-5.09,4.75-11.09,8.42-18,11.02-6.91,2.59-14.45,3.89-22.61,3.89ZM1465.72,230.19c3.17,0,6.12-.58,8.86-1.73,2.74-1.15,5.13-2.81,7.2-4.97,2.06-2.16,3.67-4.8,4.82-7.92,1.15-3.12,1.73-6.65,1.73-10.58s-.58-7.46-1.73-10.58c-1.15-3.12-2.76-5.76-4.82-7.92-2.07-2.16-4.46-3.82-7.2-4.97s-5.69-1.73-8.86-1.73-6.12.58-8.86,1.73c-2.74,1.15-5.14,2.81-7.2,4.97-2.07,2.16-3.67,4.8-4.82,7.92-1.15,3.12-1.73,6.65-1.73,10.58s.58,7.47,1.73,10.58c1.15,3.12,2.76,5.76,4.82,7.92,2.06,2.16,4.46,3.82,7.2,4.97,2.74,1.15,5.69,1.73,8.86,1.73Z"/>
    <path d="M1555.43,255.39v-74.45h-29.52v-26.35h93.02v26.35h-29.52v74.45h-33.98Z"/>
    <path d="M1627.72,255.39v-100.8h33.98v100.8h-33.98Z"/>
    <path d="M1730.25,257.69c-8.06,0-15.53-1.27-22.39-3.82-6.87-2.54-12.82-6.17-17.86-10.87-5.04-4.7-8.95-10.27-11.74-16.7-2.79-6.43-4.18-13.54-4.18-21.31s1.39-14.88,4.18-21.31c2.78-6.43,6.7-12,11.74-16.7,5.04-4.7,10.99-8.33,17.86-10.87,6.86-2.54,14.33-3.82,22.39-3.82,9.89,0,18.65,1.73,26.28,5.18s13.94,8.45,18.94,14.98l-21.46,19.15c-2.98-3.74-6.26-6.65-9.86-8.71-3.6-2.06-7.66-3.1-12.17-3.1-3.55,0-6.77.58-9.65,1.73s-5.35,2.83-7.42,5.04c-2.07,2.21-3.67,4.87-4.82,7.99-1.15,3.12-1.73,6.6-1.73,10.44s.58,7.32,1.73,10.44c1.15,3.12,2.76,5.78,4.82,7.99,2.06,2.21,4.54,3.89,7.42,5.04,2.88,1.15,6.1,1.73,9.65,1.73,4.51,0,8.57-1.03,12.17-3.1,3.6-2.06,6.89-4.97,9.86-8.71l21.46,19.15c-4.99,6.43-11.3,11.4-18.94,14.9s-16.39,5.26-26.28,5.26Z"/>
    <path d="M1821.4,257.69c-8.45,0-16.61-.96-24.48-2.88-7.87-1.92-14.35-4.42-19.44-7.49l10.94-24.77c4.8,2.79,10.15,5.02,16.06,6.7,5.9,1.68,11.64,2.52,17.21,2.52,3.26,0,5.83-.22,7.7-.65,1.87-.43,3.24-1.05,4.1-1.87.86-.81,1.3-1.8,1.3-2.95,0-1.82-1.01-3.26-3.02-4.32-2.02-1.06-4.68-1.94-7.99-2.66-3.31-.72-6.94-1.49-10.87-2.3-3.94-.81-7.9-1.89-11.88-3.24-3.98-1.34-7.63-3.12-10.94-5.33-3.31-2.21-5.98-5.11-7.99-8.71-2.02-3.6-3.02-8.09-3.02-13.46,0-6.24,1.75-11.93,5.26-17.06,3.5-5.13,8.73-9.24,15.7-12.31,6.96-3.07,15.62-4.61,25.99-4.61,6.81,0,13.54.72,20.16,2.16s12.58,3.65,17.86,6.62l-10.22,24.62c-4.99-2.5-9.82-4.37-14.47-5.62-4.66-1.25-9.19-1.87-13.61-1.87-3.26,0-5.86.29-7.78.86-1.92.58-3.29,1.35-4.1,2.3-.82.96-1.22,2.02-1.22,3.17,0,1.73,1.01,3.1,3.02,4.1,2.02,1.01,4.68,1.85,7.99,2.52,3.31.67,6.96,1.39,10.94,2.16,3.98.77,7.94,1.82,11.88,3.17,3.94,1.35,7.56,3.12,10.87,5.33,3.31,2.21,5.98,5.09,7.99,8.64,2.02,3.55,3.02,7.97,3.02,13.25,0,6.15-1.75,11.79-5.26,16.92-3.51,5.14-8.71,9.26-15.62,12.38-6.91,3.12-15.6,4.68-26.06,4.68Z"/>
  </g>
  <g>
    <rect class="cls-4" x="826.5" y="267.3" width="630.45" height="31.52"/>
    <path d="M905.1,294.01v-18.61h-7.38v-6.59h23.26v6.59h-7.38v18.61h-8.5Z"/>
    <path d="M931.52,287.6h12.6v6.41h-20.95v-25.2h20.48v6.41h-12.13v12.38ZM930.95,278.17h11.23v6.12h-11.23v-6.12Z"/>
    <path d="M944.66,294.01l11.02-25.2h8.35l11.02,25.2h-8.78l-8.14-21.17h3.31l-8.14,21.17h-8.64ZM951.22,289.62l2.16-6.12h11.59l2.16,6.12h-15.91Z"/>
    <path d="M976.41,294.01v-25.2h6.98l10.08,16.45h-3.67l9.79-16.45h6.98l.07,25.2h-7.74l-.07-13.54h1.22l-6.7,11.27h-3.74l-6.98-11.27h1.51v13.54h-7.74Z"/>
    <path d="M1020.15,294.59c-2.11,0-4.15-.24-6.12-.72-1.97-.48-3.59-1.1-4.86-1.87l2.74-6.19c1.2.7,2.54,1.25,4.01,1.67,1.48.42,2.91.63,4.3.63.82,0,1.46-.05,1.93-.16.47-.11.81-.26,1.03-.47.22-.2.32-.45.32-.74,0-.46-.25-.82-.76-1.08-.5-.26-1.17-.49-2-.67s-1.73-.37-2.72-.58c-.98-.2-1.97-.47-2.97-.81s-1.91-.78-2.74-1.33c-.83-.55-1.49-1.28-2-2.18-.5-.9-.76-2.02-.76-3.37,0-1.56.44-2.98,1.31-4.27.88-1.28,2.18-2.31,3.92-3.08,1.74-.77,3.91-1.15,6.5-1.15,1.7,0,3.38.18,5.04.54,1.66.36,3.14.91,4.46,1.66l-2.56,6.16c-1.25-.62-2.45-1.09-3.62-1.4s-2.3-.47-3.4-.47c-.82,0-1.46.07-1.94.22-.48.14-.82.34-1.03.58s-.31.5-.31.79c0,.43.25.77.76,1.03s1.17.46,2,.63,1.74.35,2.74.54c1,.19,1.99.46,2.97.79s1.89.78,2.72,1.33c.83.55,1.49,1.27,2,2.16.5.89.76,1.99.76,3.31,0,1.54-.44,2.95-1.31,4.23-.88,1.28-2.18,2.32-3.91,3.1-1.73.78-3.9,1.17-6.52,1.17Z"/>
    <path d="M1047.8,294.01l9.5-22.18,2.27,3.56h-11.95l3.31-3.85v7.52h-7.02v-10.26h21.56v5.22l-8.39,19.98h-9.29Z"/>
    <path d="M1067.39,294.01v-5.22l9.11-8.42c.58-.55,1-1.03,1.28-1.44.28-.41.46-.77.56-1.1.1-.32.14-.63.14-.92,0-.62-.2-1.11-.61-1.46-.41-.35-1.02-.52-1.84-.52-.74,0-1.45.2-2.12.59-.67.4-1.2.98-1.58,1.75l-6.41-3.2c.91-1.73,2.28-3.13,4.1-4.21s4.09-1.62,6.8-1.62c1.99,0,3.76.32,5.29.97,1.54.65,2.74,1.56,3.6,2.74s1.3,2.57,1.3,4.18c0,.82-.1,1.63-.31,2.45-.2.82-.62,1.67-1.24,2.57-.62.9-1.55,1.9-2.77,3.01l-6.84,6.23-1.33-2.95h13.07v6.59h-20.2Z"/>
    <path d="M1098.38,294.59c-1.73,0-3.48-.19-5.26-.58-1.78-.38-3.34-.95-4.68-1.69l2.88-6.26c1.08.62,2.21,1.09,3.38,1.39,1.17.3,2.29.45,3.35.45.96,0,1.75-.17,2.38-.5.62-.34.94-.83.94-1.48,0-.36-.11-.68-.32-.95-.22-.28-.59-.49-1.13-.63-.54-.14-1.33-.22-2.36-.22h-7.31l1.26-15.3h16.74v6.41h-13.75l4.28-3.64-.76,9.76-4.28-3.64h5.87c2.5,0,4.49.36,5.99,1.08s2.59,1.69,3.28,2.9c.68,1.21,1.03,2.56,1.03,4.05s-.4,2.91-1.21,4.27c-.8,1.36-2.05,2.46-3.74,3.31-1.69.85-3.88,1.28-6.57,1.28Z"/>
    <path d="M1111.38,294.01v-5.22l9.11-8.42c.58-.55,1-1.03,1.28-1.44.28-.41.46-.77.56-1.1.1-.32.14-.63.14-.92,0-.62-.2-1.11-.61-1.46-.41-.35-1.02-.52-1.84-.52-.74,0-1.45.2-2.12.59-.67.4-1.2.98-1.58,1.75l-6.41-3.2c.91-1.73,2.28-3.13,4.1-4.21s4.09-1.62,6.8-1.62c1.99,0,3.76.32,5.29.97,1.54.65,2.74,1.56,3.6,2.74s1.3,2.57,1.3,4.18c0,.82-.1,1.63-.31,2.45-.2.82-.62,1.67-1.24,2.57-.62.9-1.55,1.9-2.77,3.01l-6.84,6.23-1.33-2.95h13.07v6.59h-20.2Z"/>
    <path d="M1144.68,286.67v-6.12h10.8v6.12h-10.8Z"/>
    <path d="M1172.54,294.01l9.5-22.18,2.27,3.56h-11.95l3.31-3.85v7.52h-7.02v-10.26h21.56v5.22l-8.39,19.98h-9.29Z"/>
    <path d="M1192.12,294.01v-5.22l9.11-8.42c.58-.55,1-1.03,1.28-1.44.28-.41.46-.77.56-1.1.1-.32.14-.63.14-.92,0-.62-.2-1.11-.61-1.46-.41-.35-1.02-.52-1.84-.52-.74,0-1.45.2-2.12.59-.67.4-1.2.98-1.58,1.75l-6.41-3.2c.91-1.73,2.28-3.13,4.1-4.21s4.09-1.62,6.8-1.62c1.99,0,3.76.32,5.29.97,1.54.65,2.74,1.56,3.6,2.74s1.3,2.57,1.3,4.18c0,.82-.1,1.63-.31,2.45-.2.82-.62,1.67-1.24,2.57-.62.9-1.55,1.9-2.77,3.01l-6.84,6.23-1.33-2.95h13.07v6.59h-20.2Z"/>
    <path d="M1223.12,294.59c-1.73,0-3.48-.19-5.26-.58-1.78-.38-3.34-.95-4.68-1.69l2.88-6.26c1.08.62,2.21,1.09,3.38,1.39,1.17.3,2.29.45,3.35.45.96,0,1.75-.17,2.38-.5.62-.34.94-.83.94-1.48,0-.36-.11-.68-.32-.95-.22-.28-.59-.49-1.13-.63-.54-.14-1.33-.22-2.36-.22h-7.31l1.26-15.3h16.74v6.41h-13.75l4.28-3.64-.76,9.76-4.28-3.64h5.87c2.5,0,4.49.36,5.99,1.08s2.59,1.69,3.28,2.9c.68,1.21,1.03,2.56,1.03,4.05s-.4,2.91-1.21,4.27c-.8,1.36-2.05,2.46-3.74,3.31-1.69.85-3.88,1.28-6.57,1.28Z"/>
    <path d="M1244.83,294.59c-1.73,0-3.48-.19-5.26-.58-1.78-.38-3.34-.95-4.68-1.69l2.88-6.26c1.08.62,2.21,1.09,3.4,1.39,1.19.3,2.31.45,3.37.45.96,0,1.75-.16,2.36-.49.61-.32.92-.81.92-1.46,0-.55-.23-.98-.68-1.28-.46-.3-1.22-.45-2.3-.45h-3.35v-5.22l6.52-6.62.76,2.84h-12.56v-6.41h18.79v5.22l-6.52,6.62-4.07-2.3h2.23c3.17,0,5.58.71,7.24,2.12,1.66,1.42,2.48,3.24,2.48,5.47,0,1.44-.4,2.82-1.21,4.14-.8,1.32-2.05,2.4-3.74,3.24s-3.88,1.26-6.57,1.26Z"/>
    <path d="M1269.63,286.67v-6.12h10.8v6.12h-10.8Z"/>
    <path d="M1297.49,294.01l9.5-22.18,2.27,3.56h-11.95l3.31-3.85v7.52h-7.02v-10.26h21.56v5.22l-8.39,19.98h-9.29Z"/>
    <path d="M1317.08,294.01v-5.22l9.11-8.42c.58-.55,1-1.03,1.28-1.44.28-.41.46-.77.56-1.1.1-.32.14-.63.14-.92,0-.62-.2-1.11-.61-1.46-.41-.35-1.02-.52-1.84-.52-.74,0-1.45.2-2.12.59-.67.4-1.2.98-1.58,1.75l-6.41-3.2c.91-1.73,2.28-3.13,4.1-4.21s4.09-1.62,6.8-1.62c1.99,0,3.76.32,5.29.97,1.54.65,2.74,1.56,3.6,2.74s1.3,2.57,1.3,4.18c0,.82-.1,1.63-.31,2.45-.2.82-.62,1.67-1.24,2.57-.62.9-1.55,1.9-2.77,3.01l-6.84,6.23-1.33-2.95h13.07v6.59h-20.2Z"/>
    <path d="M1348.07,294.59c-1.73,0-3.48-.19-5.26-.58-1.78-.38-3.34-.95-4.68-1.69l2.88-6.26c1.08.62,2.21,1.09,3.38,1.39,1.17.3,2.29.45,3.35.45.96,0,1.75-.17,2.38-.5.62-.34.94-.83.94-1.48,0-.36-.11-.68-.32-.95-.22-.28-.59-.49-1.13-.63-.54-.14-1.33-.22-2.36-.22h-7.31l1.26-15.3h16.74v6.41h-13.75l4.28-3.64-.76,9.76-4.28-3.64h5.87c2.5,0,4.49.36,5.99,1.08s2.59,1.69,3.28,2.9c.68,1.21,1.03,2.56,1.03,4.05s-.4,2.91-1.21,4.27c-.8,1.36-2.05,2.46-3.74,3.31-1.69.85-3.88,1.28-6.57,1.28Z"/>
    <path d="M1361.07,289.69v-5.4l10.69-15.48h8.71l-10.3,15.48-3.96-1.19h19.51v6.59h-24.66ZM1374.14,294.01v-4.32l.25-6.59v-3.85h7.99v14.76h-8.24Z"/>
  </g>
  <g>
    <line class="cls-2" x1="429.25" y1="91.9" x2="1853.25" y2="91.9"/>
    <line class="cls-2" x1="431.75" y1="334.4" x2="1855.75" y2="334.4"/>
  </g>
</svg>