<?xml version="1.0" encoding="UTF-8"?>
<svg id="Layer_1" xmlns="http://www.w3.org/2000/svg" viewBox="0 0 2027.44 2000">
  <defs>
    <style>
      .cls-1 {
        stroke: #fbf4a2;
      }

      .cls-1, .cls-2 {
        stroke-miterlimit: 10;
        stroke-width: 10px;
      }

      .cls-2 {
        fill: #fbf4a2;
        stroke: #231f20;
      }
    </style>
  </defs>
  <path class="cls-1" d="M280.73,899.11c17.23,9.58,34.47,19.16,51.69,28.75.61.34,1.08.92,1.64,1.37,15.95,13.04,30.05,30.83,48.31,37.94,24.35,9.47,25.86-25.8,44.27-30.95,8.02,16.92,16.06,33.91,24.11,50.9,3.01-.57,6.02-1.15,9.03-1.72,2.15-12.07,5.61-24.08,6.2-36.23,1.42-29.17,10.05-37.86,39.31-37.18,10.59.25,21.19.04,35.35.04-4.03-9.65-8.4-17.47-10.53-25.86-3.49-13.72-4.56-28.1-8.59-41.62-1.79-6-7.94-14.75-12.74-15.17-39.64-3.5-79.42-5.95-119.2-6.86-4.69-.11-12.52,10.4-13.81,16.98-2.28,11.6-.64,23.97-4.82,36.14,0-7.79-.23-15.59.04-23.38.97-27.61-3.78-32.76-30.17-34.74-38.77-2.9-77.51-6.37-115.28-9.51,13.26-7.18,27.18-14.71,40.99-22.19.68,12.82,12.12,20.23,29.17,21.81,42.88,3.99,85.71,8.38,128.57,12.61.9-2.24,1.81-4.48,2.71-6.72-13.22-8.27-26.35-16.68-39.68-24.77-9.72-5.9-19.47-11.85-29.61-16.96-15.42-7.76-22.53-18.84-14.79-38.85-25.58-3.95-49.84-7.69-74.09-11.43l.77-5.69c18.34,2.23,36.68,5.98,55.04,6.04,8.72.03,22.87-4.91,25.21-11.12,7.32-19.43,10.19-40.54,15.11-62.44-62.15-10.35-121.46-20.23-180.78-30.11.32-2.16.64-4.32.96-6.48,17.63,2.28,35.33,4.11,52.87,6.96,15.95,2.6,21.65-4.19,22.95-19.52,1.46-17.17,5.3-34.14,8.1-51.19-1.24,9.86-3.12,19.69-3.61,29.59-2.02,41.18,6.58,51.23,47.81,56.99,1.41.2,2.87.04,4.27.28,32.51,5.48,65.01,10.98,97.51,16.48-.19,1.42-.39,2.84-.58,4.26h-36.28c9.6,68.81,74.09,74.89,115.66,111.91v-23.09c16.51,2.08,31.86,4.87,47.31,5.52,5.96.25,12.12-4.33,18.2-6.71-4.77-5.11-8.92-13.68-14.44-14.69-16.77-3.06-25.06-12.57-32.02-27.35-10.69-22.71-28.45-38.2-49.86-39.09,1.09-21.55,1.39-41.72,3.37-61.72,1.48-14.9-5.7-20.03-18.69-22.48-36.22-6.82-72.2-14.94-108.51-21.16-23.34-4-47.1-5.54-70.68-8.18.23-9.88,3.47-13.69,14.6-10.78,21.89,5.73,44.12,10.53,66.48,13.92,5.96.9,16.09-2.86,18.88-7.65,16.19-27.74.08-66.14-30.36-74.5-19.42-5.34-39.03-9.99-57.52-19.19,60.51,14.48,121.02,28.95,185.73,44.43v-47.25c6.47,57.81,3.74,46.88,64.06,62.55,27.4,7.12,55.38,11.95,82.97,18.36,26.25,6.1,28.1,4.94,28.44-21.97.04-3.52,0-7.04,0-9.89,3.86,12.53,4.33,28.88,12.73,37.27,8.97,8.95,25.24,11.09,38.68,14.94,17.52,5.01,35.39,8.77,53.96,14.54-31.33-3.4-17.32,20.91-22.93,35.36-.85-7.25-2.18-12.61-1.98-17.91.58-15.31-5.65-22.8-21.44-26.12-38.79-8.16-77.16-18.3-115.7-27.65-13.14-3.19-20.93.47-20.42,15.5.32,9.27-.44,18.6.26,27.83,1.94,25.94,7.79,30.61,36.98,29.32.84-8.59,1.71-17.45,3.18-32.49,10.51,15.79,16.01,30.31,26.51,38.08,10.64,7.87,26.22,9.06,41.05,13.62,2.13-7.38,3.73-12.91,5.48-18.98,21.79,17.69,26.67,50.74,59.64,62.58v-80.63c18.76,12.98,34.1,23.35,49.18,34.1,13.74,9.79,26.2,22.52,45.81,15.3,2.37-.87,7.26,1.22,9.1,3.47,8.72,10.67,16.78,21.88,26.1,34.25-7.22,4.76-14.08,9.29-22.85,15.07-1.24-8.19-2.19-14.5-3.14-20.8-2.23-.17-4.47-.35-6.7-.52-1.92,15.52-5.28,31.04-5.4,46.57-.14,18.45,14.01,20.8,28.62,20.44,16.48-.41,14.4-12.05,13.65-22.92-.14-2.03.57-4.13,1.72-11.64,13.52,31.34,29.76,54.56,59.67,64.87,3.84,1.33,4.4,12.2,7.29,21.2,30.32-3.46,62.76-6.52,95.01-10.97,54.1-7.48,108.09-15.76,162.1-23.89,20.3-3.06,30.02,11.33,44.8,26.11-104.06,22.87-206.43,18.48-308.98,22.16,2.41.89,4.76,2.09,7.24,2.6,3.39.69,6.89.84,13.02,1.52-10.62,23.02-20.53,44.5-32.01,69.37,35.87,3.56,65.32,6.48,94.76,9.4-.11,1.34-.21,2.67-.32,4.01-6.74-.54-14.64-3.49-19.9-.96-5.52,2.66-8.5,10.57-10.41,13.19-5.17-5.05-12.61-12.33-23.16-22.64-4.25,12.18-6.14,17.62-8.39,24.08-9.87-4.15-18.75-7.89-27.62-11.62-1.06.92-2.11,1.84-3.17,2.77,12.38,17.39,24.77,34.78,39.1,54.9h-29.03c-1.31,2.04-2.62,4.08-3.93,6.12,20.43,33.62,60.09,47.56,84.78,73.71-11.95,8.02-22.49,18.14-35.06,22.9-30.43,11.53-45.48-15.24-65.2-29.64-3.88-2.84-5.63-9.37-9.67-11.06-6.75-2.82-15.29-5.57-21.69-3.67-4.83,1.43-9.45,9.77-10.66,15.74-1.81,8.92-2.23,18.89-.08,27.63,2.16,8.79,6.59,21.53,12.94,23.6,7.58,2.47,18.33-4.35,27.55-7.61,2.22-.79,3.79-3.41,7.81-7.25,2.47,16.44,5.79,30.14,6.36,43.96,1.3,31.36-9.03,42.45-40.12,42.98-16.95.29-22.93,7.38-20.64,23.76,1.8,12.86-1.31,20.77-13.92,30.7-14.91,11.74-21.44,34.14-34,56.12,22.53,7.12,42.05,14.42,62.2,18.83,4.73,1.03,13.6-6.49,17.07-12.2,7.72-12.69,13.22-26.72,25.15-41.57,5.11,13.92,10.23,27.84,16.39,44.6h33.27c.13,1.24.26,2.47.4,3.71-9.25,1.54-19.12,1.59-27.55,5.11-6.78,2.83-13.81,8.96-16.68,15.43-1.22,2.74,6.92,12.88,12.52,14.91,77.34,28.08,155.06,55.09,232.43,83.1,9.11,3.3,16.64,10.92,28.26,18.82-90.65,6.91-154.89-44.62-226.11-76.53-14.8-6.63-29.02-14.55-43.5-21.87-1.73,1.08-3.46,2.16-5.19,3.23,4.41,9,8.82,18,13.31,27.16-53.68,20.39-107.12,15.57-155.01-31.52-2.07,39.29,13.58,66.15,41.14,79.76,15.28,7.55,30.27,15.94,44.43,25.38,5.81,3.87,9.11,11.52,13.55,17.45-11.16,4.57-13.6,26.33-31.28,17.32-34.69-17.67-70.03-13.41-105.86-5.44-14.2,3.16-23.23,9.09-21.4,25.92,1.76,16.28,1.71,32.76,2.51,50.42-16.19,1.75-27.92,12.19-35.85,30.61-4.34,10.09-16.39,16.92-25.14,25.03-8.97,8.31-18.17,16.38-29.17,26.26-12.98-7.11-35.41-10.46-36.52-37.83-.14-3.5-12.07-10.15-17.44-9.2-22.92,4.07-45.46,10.37-68.08,16.06-3.4.86-7.21,2.03-9.69,4.31-9.56,8.8-29.94-3.49-33.11,16.48-2,12.58-2.1,25.46-3.02,38.21-.4,5.61-.72,11.23-4.21,16.85,0-14.25-.41-28.51.11-42.74.6-16.37-7.27-22.55-22.47-19.12-51.78,11.71-103.48,23.78-155.18,35.87-16.3,3.81-23.06,13.62-21.52,31.02,1.54,17.32.34,34.88.34,52.34-2.25.08-4.5.15-6.76.23,0-16.97.25-33.95-.06-50.92-.38-20.98-5.64-24.81-26.46-20.11-15.96,3.6-31.92,7.22-48.87,6.25,52.78-12.13,105.43-24.84,158.4-36.09,20.41-4.33,29.44-14.08,27.55-35.28-1.37-15.39-.27-31-.27-50.37-67.07,12.65-130.53,24.63-194,36.6-.52-2.25-1.03-4.49-1.55-6.74,13.61-2.92,27.46-5.04,40.76-9,13.68-4.07,35.7-7.09,38.44-15.6,6.42-19.96,4.11-42.94,3.53-64.65-.07-2.5-11.67-7.05-17.63-6.61-19.9,1.47-39.67,4.77-60.19,2.63,37.12-6.1,74.23-12.27,111.36-18.28,18.9-3.06,38.3-4.23,56.56-9.47,8.69-2.49,20.46-11.64,21.7-19.26,3.11-19.16,1.03-39.16,1.03-61.39-73.04,8.53-142.13,16.6-211.22,24.67l-.88-6.69c23.74-3.09,47.43-6.8,71.25-9.08,23.32-2.24,29.72-8.21,30.41-31.94,1.5-51.43-.5-54.25-51.43-50.98-41.82,2.68-83.47,8-125.24,11.65-11.3.99-22.76.15-34.14.15,0-2.06,0-4.12,0-6.19,20.17-1.52,40.33-3.27,60.52-4.49,28.34-1.72,34.98-8.4,35.03-36.22q.09-51.36-51.72-51.14c-17.58.07-35.15.01-52.81-3.59,57.66-2.57,115.31-5.71,172.99-7.51,43.16-1.34,61.93-31.67,43.39-72.03-7.68-16.72-23.22-14.54-36.89-14.38-53.44.61-106.87,2.12-160.31,3.26-6.76.14-13.52.02-20.28.02-.19-1.81-.37-3.62-.56-5.43,4.77-.89,9.52-2.46,14.3-2.54,17.84-.31,35.7.3,53.52-.32,9.12-.32,20.03.25,26.92-4.37,21.72-14.59,9.77-37.97,10.33-57.29.23-8-10.11-21.66-17.84-23.49-19.07-4.52-39.39-3.91-59.24-4.91-10.39-.52-20.83-.09-31.25-.09-.06-2.21-.13-4.42-.19-6.63,13.98,0,27.97-.27,41.94.05,52.72,1.22,105.43,3.16,158.16,3.37,7.41.03,20.47-7.19,21.3-12.53,3.1-20.14,3.09-40.94,1.91-61.36-.18-3.12-12.51-7.47-19.45-7.94-34.75-2.38-69.58-3.65-104.25-8.46,49.06-6.37,97.78-3.77,146.13,8.65-4.53,5.98-11.8,11.44-13.03,18.03-2.18,11.68-.72,24.05-.72,36.13,0,33.7,11.07,40.47,44.59,26.5,1.61-31.57-6.54-59.5-31.45-81.11ZM474.8,1400.72c.87,2.45,1.74,4.9,2.6,7.35-5.43,1.66-10.79,4.36-16.29,4.7-6.78.43-13.9-2.54-20.51-1.57-39.24,5.8-78.27,13.14-117.58,18.41-64.5,8.64-54.73,5.37-55.2,64.95-.15,19.03,8.48,25.11,27.62,21.54,36.88-6.89,73.67-14.3,110.62-20.74,28.94-5.05,58.24-8.78,50.58-52.28,13.63,5.79,24.4,9.4,34.22,14.76,13.28,7.25,23.48,4.4,30.89-7.78,28.84-47.4,57.51-94.92,85.65-142.74,2.74-4.66,3.66-15.77,1.61-16.88-6.1-3.33-15.3-6.13-21.13-3.78-13.06,5.26-24.2,15.24-37.24,20.57-18.2,7.44-37.42,12.38-59.22,19.35,2.64-27.31-4.48-42.86-23.19-52.83-4.69-2.5-8.32-7.67-11.47-12.28-10.23-14.98-23.42-19.57-43.82-11.97,6.8,17.99,10.15,38.08,21.03,52.48,10.79,14.28,29.17,22.83,45.54,34.87-5.36,14.97-23.04,18.64-39.77,24.83-24.3,8.99-43.54,2.14-60.88-18-2.07,18.65-2.98,34.81-1.78,50.81.94,12.47,8.18,18.49,22.04,16.28,25.12-4,50.44-6.77,75.67-10.05ZM255.64,1071.81s0-.04,0-.07c26.31,0,52.85,1.99,78.84-.91,11.6-1.29,23.97-10.72,32.28-19.84,3.84-4.21,1.92-21.15-2.79-24.35-19-12.9-39.09-28.47-60.68-32.32-35.27-6.28-72.03-4.74-108.18-5.46-40.81-.8-44.67,3.69-42.6,44.66.28,5.65,1.27,11.28,2.16,16.89,2.37,14.93,10.65,21.96,26.3,21.56,24.88-.63,49.78-.17,74.67-.17ZM153.92,1217.76h-.21c0,7.83-.6,15.71.13,23.46,1.26,13.2,7.55,20.44,22.37,18.9,57.05-5.93,114.12-11.76,171.26-16.67,16.57-1.42,21.98-11.33,23.86-24.87,2.1-15.14-8.28-18.12-20.52-21.31-15.57-4.06-34.37-3.19-42.3-23.24-1.38-3.5-11.18-5.29-17.03-5.14-38.32.96-76.73,1.51-114.85,5.05-8.13.76-17.04,12.17-22.06,20.75-3.41,5.82-.65,15.25-.65,23.06ZM376.05,518.58c-.04,40.46.2,40.43,39.75,47.51,31.95,5.72,64.08,10.89,95.59,18.53,51.9,12.58,48.79,10.98,49.46-41.06.21-16.47-5.99-23.59-22.48-27.12-45.51-9.76-90.54-21.72-135.82-32.55-21.07-5.04-25.64-1.44-26.45,19.76-.19,4.97-.03,9.95-.04,14.93ZM464.65,1224.62c19.65,19.82,41.66,10.64,62.09,8.15,7.55-.92,20.35-10.83,19.97-15.82-1.62-21.52,11.32-45.69-9.13-64.38-.9-.83-2.74-1-4.1-.9-20.42,1.5-43.09-2.02-60.75,5.79-31.5,13.94-60.26,34.28-89.4,53.12-4.6,2.97-6.57,11.97-7.11,18.41-.25,2.94,6.08,9.37,9.15,9.2,26.35-1.44,54.66,9.11,79.28-13.57ZM405.54,1255.12l-3.48-4.51c-4.6-.35-9.23-1.24-13.79-.96-23.33,1.4-46.62,3.86-69.97,4.54-51.59,1.5-58.86,9.84-50.87,60.95.33,2.09-.66,5.15.46,6.24,5.76,5.63,12.2,15.52,18.06,15.28,28.9-1.16,57.89-3.9,86.36-8.88,6.17-1.08,16.12-15.59,14.44-20.58-7.53-22.38-3.49-39.36,18.78-52.08ZM586.6,1515.21c14.64-11.41,26.33-20.51,38.76-30.19,4.87,6.42,10.66,13.56,15.91,21.08,10.95,15.67,25.1,18.64,42.9,13.19,35.76-10.95,49.45-37.99,34.73-73.44-2.39-5.77-11.72-8.66-17.85-12.87l-4.28,5.56c3.95,6.34,7.9,12.68,14.44,23.19-8.99,0-17.65,1.99-19.01-.32-9.21-15.67-23.15-12.8-35.82-9.19-16.84,4.81-30.91,3.88-46.21-6.18-18.38-12.08-27.82-7.58-38.19,15.73,11.44-1.3,21.4-2.43,33.78-3.83-46.24,24.19-47.47,27.08-34.85,81.87,10.7-2.03,21.49-4.07,32.28-6.12.49-2.08.99-4.16,1.48-6.24-6.37-4.31-12.73-8.62-18.07-12.23ZM561.74,717.67c3.26-.66,6.52-1.32,9.78-1.98,3.25-7.4,6.26-14.92,9.84-22.16,2.35-4.76,5.07-9.49,8.45-13.55,5.88-7.06,13.63-12.83,18.35-20.51,5.94-9.66,9.62-20.71,15.53-33.99,14.11,59.71,14.37,60.02,43.94,53.29-.6-4.74.22-10.43-2.08-14.26-9.4-15.7-19.59-30.93-29.94-46.03-1.22-1.77-5.17-1.82-7.92-2.37-29.21-5.8-58.35-11.95-87.67-17.16-18.26-3.25-23.22,2.64-17.83,20.68,5.66,18.97,11.45,37.98,18.74,56.36,5.7,14.38,13.78,27.82,20.8,41.67ZM457.82,1568.25c-2.05-12.79-5.53-23.06-5.01-33.13,2.62-51.02-3.65-40.29-43.25-34.6-14.77,2.12-29.02,7.54-31.52,23.75-2.45,15.89-1.85,32.55-.11,48.6.44,4.1,10.89,10.91,15.65,10.1,22.11-3.8,43.84-9.84,64.25-14.72ZM495.08,1127.66c-16.99-25.39-32.31-45.06-43.94-66.71-8.62-16.05-18.87-24.11-37.06-26.98-15.23-2.4-18.38,3.59-17.57,15.36,1.22,17.67,2.2,35.58,6.15,52.73,1.73,7.52,9.75,18.12,16.26,19.2,23.47,3.89,47.51,4.31,76.16,6.4ZM324.73,1083.76c-46.69-13.44-60.11-3.51-58.06,38.57.42,8.52-.7,17.46,1.59,25.42,1.54,5.35,7.18,12.28,12.14,13.41,21.66,4.93,27.54-1.04,27.72-23.93.14-18.48-7.76-39.13,16.61-53.48ZM472.08,585c5.17,26.55-6.16,51.65,9.29,76.89,11.8-24.15,22.14-45.33,33.25-68.06-11.78-2.45-25.21-5.24-42.54-8.83ZM517.97,1549.89c14.26-2.43,25.88-.9,31.07-5.96,15.68-15.29,12.28-35.27,5.17-56.03-10.85,18.57-21.71,37.13-36.24,61.99ZM767.52,1385.53c-11.24,15.7-20.02,27.97-30.97,43.26,11.56-.9,19.08-.93,26.37-2.2,7.99-1.4,15.78-3.94,26.28-6.67-7.24-11.49-13.42-21.29-21.68-34.39Z"/>
  <path class="cls-1" d="M868.24,301.43c13.83,17.44,26.7,33.52,39.36,49.77,2.57,3.3,4.34,7.23,8.85,14.92-60.15,32.8-119.6,65.75-179.81,97.25-6.3,3.3-19.99,1.16-25.19-3.78-13.8-13.14-25.48-28.72-36.71-44.27-6.96-9.63-2.13-16.61,8.2-21.7,61.16-30.14,122.11-60.69,185.29-92.18Z"/>
  <path class="cls-1" d="M778,1627.64c36.83,6.54,74.99,9.16,110.02,21.02,22.92,7.75,41.87,28.22,61.21,44.63,3.54,3,1.85,14.28-.1,20.95-1.43,4.9-6.67,9.29-11.18,12.58-16.3,11.93-23.76,44.77-53.41,26.04-18.54-11.71-41.71-20.26-46.18-46.99-.66-3.93-6.88-9.33-11.07-9.88-29.93-3.93-44.09-29.76-64.85-46.17-3.17-2.51-4.01-12.58-1.59-16.41,3.19-5.05,10.67-7.4,16.31-10.91.28,1.71.56,3.43.84,5.14Z"/>
  <path class="cls-1" d="M1032.71,593.79c-5.06,11.25-10.23,22.45-15.15,33.77-5.73,13.19-8.23,27.52-26.39,32.45-5.88,1.6-9.26,16.21-11.8,25.42-4.18,15.14-11.07,14.6-20.88,5.46-1.04-.97-2.02-2.01-3.01-3.04-10.84-11.38-36.32-103.71-32.94-120.88,37.42,7.03,74.86,14.05,112.29,21.14,2.06.39,4.98.73,5.88,2.14,13.89,21.71,39.11,36.68,41.45,66.01-28.4,5.14-34.87.12-37.7-26.06-1.27-11.76-3.95-23.38-5.99-35.06-1.92-.45-3.85-.9-5.77-1.34Z"/>
  <path class="cls-1" d="M1251.57,372.93c-6.8,28.66-25.35,45-53.34,51.26-75.24,16.82-150.34,34.33-225.82,50.05-37.36,7.78-75.41,12.2-115.27,18.48,133.06-40.41,263.88-80.14,394.43-119.78Z"/>
  <path class="cls-1" d="M795.65,1512.63c46.35,16.96,92.63,34.1,139.07,50.8,25.99,9.34,51.78,19.81,78.5,26.34,24.3,5.93,33.88,19.57,32.75,49.38-85.7-41.19-169.14-81.28-252.58-121.38l2.25-5.14Z"/>
  <path class="cls-1" d="M1027.44,1069.13h-81.18c25.62-12.05,53.4-3.41,81.18,0Z"/>
  <path class="cls-2" d="M1342.74,1090.72c8.5-4.89,15.74-9.07,22.52-12.97,30.25,27.32,33.15,26.61,48.88-11,15.14-1.86,29.92-5.21,29.76,19.37-.06,9.76,19.72,13.63,27.48,5.42,7.49-7.93,12.1-16.73,25.98-8.39,12.58,7.57,8.41,15.17,5.6,25-3.46,12.1,7.9,23.56,20.29,21.66q22.04-3.38,28.24,12.81c-5.78,14.4-14.1,25.44-12.78,35.18.93,6.87,14.94,11.97,26.92,20.61v15.82c-11.25,8.56-24.8,13.76-27.14,22.1-2.29,8.18,6.83,19.56,13.16,34.9-3.1,7.12-5.09,23.71-27.49,12.58-4.07-2.02-13.79,1.93-17.48,6.13-3.42,3.9-1.95,11.89-3.22,17.95-1.45,6.96-1.57,15.57-5.81,20.27-7.26,8.05-15.28,6.76-23.07-2.71-3.9-4.74-13.93-8.98-18.83-7.14-5.72,2.14-8.34,11.65-13.3,17.05-4.57,4.97-10.3,11.85-15.82,12.13-5.46.28-14.33-5.42-16.42-10.62-9.75-24.22-16.59-25.46-36.61-9.98-1.54,1.19-3.53,1.82-5.81,2.08-12.31,1.42-22.52-9.6-20.8-21.87,2.49-17.82-2.22-23.94-17.24-22.74-13.08,1.05-25.67-5.14-32.47-16.36l-.39-.64c27.12-33.58,25.66-40.01-11.33-47.61-2.06-13.98-9.78-29.88,16.35-30.44,3.96-.08,9.95-6.95,11.06-11.62,1.3-5.49.25-13.73-3.25-17.69-6.54-7.38-15.33-11.54-8.25-24.3,6.63-11.95,13.55-10.64,24.54-7.26,5.51,1.69,14.59-2.62,19.62-7.01,3.07-2.68,2.16-10.71,1.81-16.27-.25-4.06-2.49-8-4.68-14.43ZM1425.24,1144.1c-36.61.2-63.96,27.36-63.43,63,.52,34.95,29.6,62.62,65.26,62.08,35.26-.53,61.36-27.2,61.47-62.8.11-36.68-26.11-62.49-63.3-62.29Z"/>
  <path class="cls-1" d="M1486.33,1427.96c-1.05-.07-2.02.54-2.43,1.5-8.45,19.88-20.39,36.02-43.53,40.43-2.72.52-6.28,4.44-6.82,7.28-3.67,19.47-16.8,28.78-34.44,33.67-2.06.57-6.02.92-6.02,1.33.33,25.98-25.52,29.26-38.21,43.83-2.95,3.39-8.96,5.28-13.72,5.62-.1,0-.21.01-.31.02l-2.36,12.42c7.25,3.22,14.62,6.48,22.24,9.87,1.08.48,2.36.13,3.04-.84,5.57-8.04,10.08-15.35,15.54-21.87,19.91-23.75,44.1-22.55,61.75,2.7,23.19,33.17,19.91,97.8-6.52,128.28-20.36,23.48-46.94,22.91-64.49-2.69-6.19-9.03-11.91-20.56-12.16-31.07-.66-28.52-10.59-47.61-41.42-51.16-.68-.08-1.38.15-1.9.59-27.77,23.85-44.96,17.63-57.45-19.07-3.06-8.99-14.36-15.17-25.79-25.01-1.41-1.21-3.6-.52-4.03,1.29-3.26,13.83-4.83,23.09-8.03,31.76-5.12,13.88-10.1,28.21-17.9,40.6-13.55,21.52-32.08,37.45-59.95,32.15-26.73-5.08-41.34-25.07-48.64-48.99-15.05-49.26-7.97-96.93,17.1-141.49,10.7-19.01,25.13-35.4,50-34.66,25.19.74,39.83,16.91,50.49,37.34,4.89,9.37,10.78,19.58,11.2,29.62.8,18.98,12.1,23.52,31.88,27.82,1.88.41,3.49-1.4,2.86-3.22-4.13-11.99-7.23-21.04-10.43-30.06-.46-1.3-2.47-2.66-2.21-3.52,9.23-30.72-21.55-55.04-13.68-85.58.76-2.94-.22-6.62-1.22-9.68-5.97-18.23-12.16-36.39-18.29-54.57-.36-1.07.05-2.25,1-2.86.16-.1.32-.2.48-.31,1.72-1.1,1.43-3.7-.5-4.4-5.49-1.98-10.99-3.93-16.41-6.1-32.54-13.01-49.21-45.85-39.51-79.62,14.48-50.42,29.67-100.64,44.52-150.96,6.2-21.01.9-29.61-20.27-24.5-22.05,5.32-42.91,16.43-63.51,26.59-8.36,4.12-15.12,11.47-23.1,18.33-1.17,1-1.14,2.83.07,3.79,7.92,6.27,16.37,12.06,23.14,19.4,10.76,11.67,12.42,25.87,2.33,38.56-2.92,3.67-9.81,4.19-15.63,5.56-1.32.31-2.65-.53-2.94-1.85-1.28-5.81-3.71-12.04-1.96-16.71,9.16-24.4,2.17-36.24-24.23-38.27-3.52-.27-8.27.3-10.3-1.7-11.22-11.03-20.42-7.19-28.5,3.29-8.33,10.81-6.75,21.09,3.27,30.27,1.27,1.17,2.14,2.77,4.98,6.97.95,1.4.23,3.33-1.41,3.76-8.01,2.09-15.65,5.45-18.99,2.98-6.2-4.6-11.63-13.93-12.23-21.67-1.44-18.29,9.87-28.32,38.84-38.32.94-.32,1.61-1.17,1.68-2.16,1.69-24.11-.19-49.19,6.43-71.77,13.39-45.66,37.7-83.18,88.16-98.38,31.09-9.36,60.89-18.61,93.52-9.62,4.17,1.15,11.86-1.15,14.3-4.49,23.65-32.36,54.46-35.14,89.41-23.4,4.21,1.41,8.61,2.28,11.93,2.99,1.26.27,2.51-.48,2.88-1.72,5.54-18.79,10.86-36.79,16.9-57.27.38-1.28-.33-2.64-1.6-3.05-15.35-4.95-33.55-10.73-51.67-16.74-37.08-12.3-55.55-36.74-58.81-75.08-.55-6.47-4.95-14.86-10.23-18.31-41.29-26.98-56.01-66.08-48.62-112.57,6.63-41.78,32.57-69.67,72.72-84.73,7.09-2.66,14.71-10.97,17.01-18.27,21.11-66.97,41.37-134.22,60.98-201.64,2.01-6.93.08-16.6-3.38-23.23-10.67-20.44-7.62-37.85,10.25-47.66,15.77-8.66,36.46-2.5,44.07,13.11,8.69,17.82-.03,36.09-20.99,45.73-4.59,2.11-10.18,6.25-11.53,10.62-21.51,69.56-42.43,139.3-59.94,213.88-.45,1.91,1.41,3.56,3.25,2.89,6.11-2.25,12.75-4.05,16.4-8.38,25.88-30.67,57.77-36.18,94.35-25.22,114.75,34.38,229.43,69,344.26,103.09,37.53,11.14,58.56,35.33,64.42,73.95.76,5.02,4.42,9.59,7.75,14.22l10.49-1.73c14.21-46.51,28.48-92.99,42.57-139.54,4.93-16.29,8.72-32.95,14.24-49.03,5.11-14.88,10.03-27.29-2.41-42.91-11.24-14.11-1.92-35.49,14.27-43.19,15.6-7.42,33.63-1.46,41.78,13.83,8.76,16.42,3.86,36.38-13.83,43.08-14.3,5.41-18.33,14.83-22.11,27.61-18.92,63.92-39.06,127.49-57.48,191.55-2.41,8.39-.25,20.9,4.7,28.15,26.19,38.33,29.43,78.38,8.97,118.98-20.13,39.95-55.83,56.61-99.49,59.11-6.34.36-14.31,4.44-18.25,9.4-23.49,29.6-53.67,39.76-90.94,29.15-17.96-5.11-35.92-10.25-54.74-15.62-1.52-.43-3.05.65-3.15,2.23-.7,11.17-.31,21.18-2.96,30.3-2.61,8.99-8.28,17.1-13.45,26.36-.75,1.35-.1,3.05,1.36,3.55,9.61,3.27,18.62,6.39,27.67,9.38,28.67,9.48,45.7,28.6,46.03,59.37.15,13.69,8.73,15.59,18.17,19.38,50.47,20.28,94.98,81.94,93.39,129.78-1.31,39.38-7.22,77.21-35.66,108.19-3.99,4.35-1.72,15.76-.27,23.51,2.39,12.83,9.32,25.48,8.71,37.94-.33,6.8-11.25,15.84-19.21,18.6-4.25,1.47-10.17-1.88-15.97-4.86l.83-11.81c4.11-1.43,8.19-2.89,10.44-5.77,5.56-7.11,12.09-16.48,11.47-24.38-.44-5.63-11.59-10.94-18.62-15.33-3.95-2.47-9.63-2.01-13.87-4.17-23.26-11.84-34.93-5.94-39.88,19.01-.89,4.5-6.15,8.13-10.25,11.99-.99.93-2.55.88-3.47-.12-3.9-4.23-8.99-8.31-9.57-12.95-2.08-16.73,7.22-27.1,23.36-30.11,8.85-1.65,18.05-1.46,29.11-1.98,1.61-.08,2.72-1.65,2.25-3.18-10.13-33.43-19.62-65.62-47.34-88.49-15.24-12.57-24.78-9.41-30.5,9.49-13.77,45.48-27.36,91.02-41.35,136.43-16.74,54.33-41.46,68.34-97.2,55.69-1.52-.34-3.1-.39-5.03-.51ZM1344.52,1089.69c-1.04.6-1.51,1.87-1.09,3,1.94,5.31,3.76,8.84,3.98,12.46.34,5.55,1.26,13.58-1.81,16.27-5.02,4.39-14.1,8.71-19.62,7.01-10.99-3.38-17.91-4.69-24.54,7.26-7.08,12.77,1.71,16.92,8.25,24.3,3.51,3.96,4.56,12.2,3.25,17.69-1.11,4.67-7.1,11.53-11.06,11.62-25.09.54-18.98,15.22-16.62,28.76.18,1.01.94,1.82,1.94,2.03,34.87,7.36,36.33,14.02,10.74,45.92-.65.8-.73,1.93-.19,2.81.04.07.08.14.13.21,6.42,10.59,18.33,16.69,30.64,15.44,15.98-1.63,21,4.34,18.44,22.63-1.72,12.28,8.49,23.29,20.8,21.87,2.29-.26,4.27-.89,5.81-2.08,20.01-15.48,26.85-14.25,36.61,9.98,2.09,5.2,10.97,10.9,16.42,10.62,5.51-.28,11.25-7.16,15.82-12.13,4.96-5.4,7.58-14.9,13.3-17.05,4.9-1.83,14.93,2.41,18.83,7.14,7.79,9.47,15.81,10.76,23.07,2.71,4.24-4.7,4.36-13.31,5.81-20.27,1.27-6.07-.21-14.05,3.22-17.95,3.69-4.2,13.41-8.15,17.48-6.13,21.52,10.69,24.21-4.19,27.13-11.69.23-.59.21-1.25-.03-1.84-6.3-14.86-15-25.94-12.76-33.95,2.27-8.1,15.1-13.24,26.14-21.35.63-.46,1-1.21,1-1.99v-13.3c0-.8-.39-1.56-1.05-2.03-11.74-8.2-24.98-13.2-25.88-19.87-1.29-9.53,6.66-20.31,12.41-34.25.24-.59.25-1.26.02-1.86-5.85-15.25-6.28-15.18-27.88-11.87-12.39,1.9-23.75-9.56-20.29-21.66,2.81-9.83,6.99-17.43-5.6-25-13.88-8.35-18.48.46-25.98,8.39-7.76,8.21-27.55,4.33-27.48-5.42.16-23.8-13.7-21.41-28.33-19.55-.89.11-1.65.69-1.99,1.52-15.01,35.73-18.34,36.63-46.99,10.86-.79-.71-1.95-.84-2.87-.31-5.85,3.37-12.09,6.96-19.19,11.05ZM1283.35,730.71c2.71,1.25,4.88-2.52,2.46-4.26-.15-.11-.29-.21-.44-.32-32.39-23.21-44.12-58.61-31.05-93.75,13.78-37.06,43.41-54.62,85.65-49.45,12.46,1.53,19.39-2.51,26.14-12.82,15.08-23.01,32.32-28.93,58.53-21.07,108.06,32.4,216.06,64.98,324,97.77,28.45,8.64,39.71,22.62,39.31,50.57-.19,13.39,4.16,19.77,16.54,25.37,37.06,16.79,54.35,54.03,39.79,91.87-6.68,17.36-20.33,35.03-35.68,45.21-12.26,8.12-28.59,10.1-43.79,13-2.63.5-2.68,4.26-.07,4.83,2.35.52,4.83.93,7.32,1.07,38.74,2.1,74.15-23.51,87.04-62.43,12.76-38.53-1.96-81.27-34.51-103.95-7.17-5-16.04-13.52-16.62-21-2.6-33.39-19.04-54.29-50.48-63.81-109.99-33.32-219.88-66.97-330.15-99.33-28.96-8.5-54.48-.22-74.33,24.43-4.71,5.84-14.57,10.81-21.95,10.66-32.71-.66-58.16,12.49-77.08,37.99-32.42,43.67-16.32,108.34,29.39,129.41ZM1112.93,1567.15c.1.06.21.12.31.19.63.37,1.06,1,1.18,1.72,1.6,10.05,1.39,21.05,5.85,29.62,5.1,9.8,14.5,23.55,22.63,23.98,9.82.51,23.66-8.88,29.83-17.99,18.71-27.62,23.91-59.26,12.57-91.02-3.78-10.59-14.94-24.57-23.99-25.56-9.18-1.01-23.94,9.94-29.09,19.51-9.41,17.48-13.99,37.56-20.37,56.68-.37,1.1.07,2.3,1.07,2.89ZM1442.36,681.73c44.35,14.21,92.86,29.76,139.68,44.77,2.23.71,4.1-1.78,2.8-3.72-24.03-35.86-49.46-73.81-76-113.43-.89-1.32-2.78-1.47-3.86-.31-23.21,25.04-45.34,48.9-63.66,68.66-1.23,1.32-.67,3.47,1.05,4.02ZM1374.56,1626.9c-.16.43-.19.9-.09,1.35,3.05,14.14,3.8,24.87,7.87,34.15,7.56,17.23,24.33,19.58,35.42,4.71,18.1-24.26,22.79-51.8,11.96-80.35-7.81-20.58-27.32-22.57-38.54-3.33-8.13,13.94-11.9,30.44-16.63,43.48ZM1721.31,703.03c-35.04,9.91-68.34,19.32-100.38,28.38-2.24.63-2.44,3.73-.3,4.64,35.28,15.03,71.04,30.25,107.08,45.6,1.72.73,3.6-.63,3.43-2.48-2.07-22.86-4.31-47.66-6.69-73.98-.14-1.54-1.65-2.58-3.14-2.16Z"/>
  <path class="cls-1" d="M1425.24,1144.1c37.18-.2,63.4,25.6,63.3,62.29-.1,35.6-26.21,62.27-61.47,62.8-35.66.54-64.74-27.13-65.26-62.08-.53-35.65,26.82-62.81,63.43-63Z"/>
</svg>