<?xml version="1.0" encoding="UTF-8"?>
<svg id="Layer_2" data-name="Layer 2" xmlns="http://www.w3.org/2000/svg" viewBox="0 0 2000 2000">
  <defs>
    <style>
      .cls-1 {
        fill: #262767;
        stroke: #fff;
        stroke-miterlimit: 10;
        stroke-width: 20px;
      }

      .cls-2 {
        fill: #fff;
      }

      .cls-3 {
        fill: none;
      }
    </style>
  </defs>
  <path class="cls-1" d="M1701.54,1102.26c-45.24,232.26-104.61,426.42-701.54,851.92-596.93-425.5-656.3-619.66-701.54-851.92-45.25-232.25,143.63-456.45,135.54-579.03s-121.62-264.82-121.62-264.82c152.55-39.01,148.75-154.88,148.75-154.88,357.74,170.61,538.87-57.72,538.87-57.72,0,0,181.13,228.33,538.87,57.72,0,0-3.8,115.87,148.75,154.88,0,0-113.53,142.24-121.62,264.82s180.79,346.78,135.54,579.03Z"/>
  <g>
    <g>
      <path class="cls-2" d="M1330.29,949.92l8.03,8.03-126.99,126.97-8.03-8.02-32.93-32.94c-18.83,10.2-38.83,18.53-59.74,24.75v57.91h-179.58v-57.91c-20.9-6.22-40.89-14.55-59.72-24.75l-32.94,32.94-8.03,8.02-126.97-126.97,8.02-8.03,32.94-32.93c-10.2-18.85-18.53-38.83-24.75-59.74h-57.91v-179.58h57.91c6.22-20.9,14.55-40.89,24.75-59.74l-32.94-32.93-8.02-8.03,63.5-63.49,63.47-63.5,40.97,40.97c18.83-10.2,38.82-18.53,59.72-24.75v-57.91h179.58v57.91c20.9,6.22,40.9,14.55,59.74,24.75l40.96-40.97,63.49,63.5,63.5,63.49-8.03,8.03-32.94,32.93-59.72,59.74h-69.58c-30.28-49.54-84.88-82.61-147.2-82.61-95.21,0-172.4,77.19-172.4,172.4s77.19,172.4,172.4,172.4c62.32,0,116.91-33.07,147.2-82.61h69.58l59.72,59.74,32.94,32.93Z"/>
      <path class="cls-2" d="M711.65,950.31l-8.03,8.03,126.99,126.97,8.03-8.02,32.93-32.94c18.83,10.2,38.83,18.53,59.74,24.75v57.91h179.58v-57.91c20.9-6.22,40.89-14.55,59.72-24.75l32.94,32.94,8.03,8.02,126.97-126.97-8.02-8.03-32.94-32.93c10.2-18.85,18.53-38.83,24.75-59.74h57.91v-179.58h-57.91c-6.22-20.9-14.55-40.89-24.75-59.74l32.94-32.93,8.02-8.03-63.5-63.49-63.47-63.5-40.97,40.97c-18.83-10.2-38.82-18.53-59.72-24.75v-57.91h-179.58v57.91c-20.9,6.22-40.9,14.55-59.74,24.75l-40.96-40.97-63.49,63.5-63.5,63.49,8.03,8.03,32.94,32.93,59.72,59.74h69.58c30.28-49.54,84.88-82.61,147.2-82.61,95.21,0,172.4,77.19,172.4,172.4s-77.19,172.4-172.4,172.4c-62.32,0-116.91-33.07-147.2-82.61h-69.58l-59.72,59.74-32.94,32.93Z"/>
    </g>
    <path class="cls-2" d="M958.47,777.53h126.3c-18.38,36.94-56.42,62.42-100.46,62.42s-82.08-25.48-100.46-62.42h-73.16v-99.55h73.16c18.38-36.94,56.42-62.42,100.46-62.42s85.72,27.84,103,67.52h-128.84l-9.65,17.47-16.38,29.66,16.38,29.85,9.65,17.47Z"/>
    <path class="cls-2" d="M1149.75,835.1h-72.02c10.48,21.06,32.17,35.59,57.28,35.59s46.8-14.53,57.28-35.59h41.71v-56.76h-41.71c-10.48-21.06-32.17-35.59-57.28-35.59s-48.88,15.88-58.73,38.5h73.47l5.5,9.96,9.34,16.91-9.34,17.02-5.5,9.96Z"/>
  </g>
  <g>
    <rect class="cls-3" x="474.82" y="1240.59" width="1096.94" height="290.12"/>
    <path class="cls-2" d="M688.36,1454.28l76.03-177.41,18.14,28.51h-95.62l26.5-30.82v60.19h-56.16v-82.08h172.51v41.76l-67.1,159.84h-74.3Z"/>
    <path class="cls-2" d="M845.03,1454.28v-41.76l72.86-67.39c4.61-4.41,8.01-8.25,10.22-11.52,2.21-3.26,3.69-6.19,4.46-8.78.76-2.59,1.15-5.04,1.15-7.34,0-4.99-1.63-8.88-4.9-11.66-3.27-2.78-8.16-4.18-14.69-4.18-5.95,0-11.62,1.58-16.99,4.75-5.38,3.17-9.6,7.83-12.67,13.97l-51.26-25.63c7.29-13.82,18.24-25.06,32.83-33.7,14.59-8.64,32.73-12.96,54.43-12.96,15.93,0,30.05,2.59,42.34,7.78,12.29,5.18,21.89,12.48,28.8,21.89,6.91,9.41,10.37,20.55,10.37,33.41,0,6.53-.82,13.06-2.45,19.58-1.63,6.53-4.95,13.39-9.94,20.59-5,7.2-12.38,15.22-22.18,24.05l-54.72,49.82-10.66-23.62h104.54v52.7h-161.57Z"/>
    <path class="cls-2" d="M1092.99,1458.89c-13.82,0-27.84-1.54-42.05-4.61-14.21-3.07-26.69-7.58-37.44-13.54l23.04-50.11c8.64,5,17.66,8.69,27.07,11.09,9.41,2.4,18.33,3.6,26.78,3.6,7.68,0,14.01-1.34,19.01-4.03,4.99-2.69,7.49-6.62,7.49-11.81,0-2.88-.86-5.42-2.59-7.63-1.73-2.21-4.75-3.89-9.07-5.04-4.32-1.15-10.61-1.73-18.86-1.73h-58.46l10.08-122.4h133.92v51.26h-110.02l34.27-29.09-6.05,78.05-34.27-29.09h46.94c19.97,0,35.95,2.88,47.95,8.64,12,5.76,20.74,13.49,26.21,23.18,5.47,9.7,8.21,20.5,8.21,32.4s-3.22,23.28-9.65,34.13c-6.44,10.85-16.42,19.68-29.95,26.5-13.54,6.81-31.06,10.22-52.56,10.22Z"/>
    <path class="cls-2" d="M1196.96,1419.72v-43.2l85.54-123.84h69.7l-82.37,123.84-31.68-9.5h156.1v52.7h-197.28ZM1301.5,1454.28v-34.56l2.02-52.7v-30.82h63.94v118.08h-65.95Z"/>
  </g>
</svg>