<?xml version="1.0" encoding="UTF-8"?>
<svg id="Layer_1" xmlns="http://www.w3.org/2000/svg" viewBox="0 0 1813.14 1604.37">
  <defs>
    <style>
      .cls-1 {
        fill: #231f20;
      }

      .cls-2, .cls-3 {
        stroke: #231f20;
        stroke-miterlimit: 10;
      }

      .cls-3 {
        fill: #ffc517;
      }
    </style>
  </defs>
  <path class="cls-2" d="M795.56,64.59L17.86,1411.6c-49.34,85.45,12.33,192.27,111,192.27h1555.4c98.67,0,160.34-106.81,111-192.27L1017.57,64.59c-49.34-85.45-172.67-85.45-222.01,0Z"/>
  <path class="cls-3" d="M858.14,154.67L124.37,1425.6c-21.52,37.28,5.38,83.88,48.43,83.88h1467.54c43.05,0,69.95-46.6,48.43-83.88L955,154.67c-21.52-37.28-75.33-37.28-96.86,0Z"/>
  <path class="cls-1" d="M788.11,892.96c114.96-30.8,229.93-61.6,344.89-92.4.75.96,1.5,1.92,2.25,2.87-87.41,134.41-174.82,268.81-263.68,405.44h87.81c.53,1.27,1.06,2.55,1.59,3.82-64.2,48.77-128.41,97.55-194.51,147.76-25.52-50.72-50.34-100.07-75.86-150.79,26.42,0,50.63-.54,74.81.25,10.23.34,16.61-2.19,22.57-11.13,58.56-87.71,117.63-175.07,176.53-262.55.91-1.36,1.5-2.94,3.22-6.38-96.86,32.47-192.05,64.38-289.84,97.17,4.83-19.73,8.86-37.02,13.32-54.2,23.13-89.11,46.45-178.16,69.56-267.28,14.9-57.48,29.57-115.02,44.28-172.55,1.52-5.94,2.93-10.82,11.04-10.78,52.82.31,105.65.21,158.48.3,1.14,0,2.29.69,5.51,1.72-65.14,122.39-130.01,244.26-194.88,366.14l2.92,2.57Z"/>
</svg>